<?xml version="1.0" encoding="utf-8" standalone="no"?>
<!DOCTYPE svg PUBLIC "-//W3C//DTD SVG 1.1//EN"
  "http://www.w3.org/Graphics/SVG/1.1/DTD/svg11.dtd">
<!-- Created with matplotlib (https://matplotlib.org/) -->
<svg height="345.6pt" version="1.1" viewBox="0 0 460.8 345.6" width="460.8pt" xmlns="http://www.w3.org/2000/svg" xmlns:xlink="http://www.w3.org/1999/xlink">
 <metadata>
  <rdf:RDF xmlns:cc="http://creativecommons.org/ns#" xmlns:dc="http://purl.org/dc/elements/1.1/" xmlns:rdf="http://www.w3.org/1999/02/22-rdf-syntax-ns#">
   <cc:Work>
    <dc:type rdf:resource="http://purl.org/dc/dcmitype/StillImage"/>
    <dc:date>2022-01-02T19:24:39.349640</dc:date>
    <dc:format>image/svg+xml</dc:format>
    <dc:creator>
     <cc:Agent>
      <dc:title>Matplotlib v3.3.3, https://matplotlib.org/</dc:title>
     </cc:Agent>
    </dc:creator>
   </cc:Work>
  </rdf:RDF>
 </metadata>
 <defs>
  <style type="text/css">*{stroke-linecap:butt;stroke-linejoin:round;}</style>
 </defs>
 <g id="figure_1">
  <g id="patch_1">
   <path d="M 0 345.6 
L 460.8 345.6 
L 460.8 0 
L 0 0 
z
" style="fill:#ffffff;"/>
  </g>
  <g id="axes_1">
   <g id="patch_2">
    <path d="M 57.6 307.584 
L 414.72 307.584 
L 414.72 41.472 
L 57.6 41.472 
z
" style="fill:#ffffff;"/>
   </g>
   <g id="patch_3">
    <path clip-path="url(#p4417844e04)" d="M 152.893288 307.584 
L 153.288976 307.584 
L 153.288976 306.414664 
L 152.893288 306.414664 
z
" style="fill:#1f77b4;opacity:0.75;"/>
   </g>
   <g id="patch_4">
    <path clip-path="url(#p4417844e04)" d="M 153.288965 307.584 
L 153.684664 307.584 
L 153.684664 304.130726 
L 153.288965 304.130726 
z
" style="fill:#1f77b4;opacity:0.75;"/>
   </g>
   <g id="patch_5">
    <path clip-path="url(#p4417844e04)" d="M 153.684664 307.584 
L 154.080352 307.584 
L 154.080352 301.671748 
L 153.684664 301.671748 
z
" style="fill:#1f77b4;opacity:0.75;"/>
   </g>
   <g id="patch_6">
    <path clip-path="url(#p4417844e04)" d="M 154.080363 307.584 
L 154.476051 307.584 
L 154.476051 300.327557 
L 154.080363 300.327557 
z
" style="fill:#1f77b4;opacity:0.75;"/>
   </g>
   <g id="patch_7">
    <path clip-path="url(#p4417844e04)" d="M 154.47604 307.584 
L 154.871728 307.584 
L 154.871728 300.185489 
L 154.47604 300.185489 
z
" style="fill:#1f77b4;opacity:0.75;"/>
   </g>
   <g id="patch_8">
    <path clip-path="url(#p4417844e04)" d="M 154.871728 307.584 
L 155.267427 307.584 
L 155.267427 299.224017 
L 154.871728 299.224017 
z
" style="fill:#1f77b4;opacity:0.75;"/>
   </g>
   <g id="patch_9">
    <path clip-path="url(#p4417844e04)" d="M 155.267437 307.584 
L 155.663126 307.584 
L 155.663126 297.114614 
L 155.267437 297.114614 
z
" style="fill:#1f77b4;opacity:0.75;"/>
   </g>
   <g id="patch_10">
    <path clip-path="url(#p4417844e04)" d="M 155.663115 307.584 
L 156.058803 307.584 
L 156.058803 291.442787 
L 155.663115 291.442787 
z
" style="fill:#1f77b4;opacity:0.75;"/>
   </g>
   <g id="patch_11">
    <path clip-path="url(#p4417844e04)" d="M 156.058814 307.584 
L 156.454502 307.584 
L 156.454502 290.109525 
L 156.058814 290.109525 
z
" style="fill:#1f77b4;opacity:0.75;"/>
   </g>
   <g id="patch_12">
    <path clip-path="url(#p4417844e04)" d="M 156.454491 307.584 
L 156.85019 307.584 
L 156.85019 288.197582 
L 156.454491 288.197582 
z
" style="fill:#1f77b4;opacity:0.75;"/>
   </g>
   <g id="patch_13">
    <path clip-path="url(#p4417844e04)" d="M 156.85019 307.584 
L 157.245878 307.584 
L 157.245878 288.295414 
L 156.85019 288.295414 
z
" style="fill:#1f77b4;opacity:0.75;"/>
   </g>
   <g id="patch_14">
    <path clip-path="url(#p4417844e04)" d="M 157.245889 307.584 
L 157.641577 307.584 
L 157.641577 287.322788 
L 157.245889 287.322788 
z
" style="fill:#1f77b4;opacity:0.75;"/>
   </g>
   <g id="patch_15">
    <path clip-path="url(#p4417844e04)" d="M 157.641566 307.584 
L 158.037265 307.584 
L 158.037265 282.6789 
L 157.641566 282.6789 
z
" style="fill:#1f77b4;opacity:0.75;"/>
   </g>
   <g id="patch_16">
    <path clip-path="url(#p4417844e04)" d="M 158.037265 307.584 
L 158.432953 307.584 
L 158.432953 285.344752 
L 158.037265 285.344752 
z
" style="fill:#1f77b4;opacity:0.75;"/>
   </g>
   <g id="patch_17">
    <path clip-path="url(#p4417844e04)" d="M 158.432963 307.584 
L 158.828652 307.584 
L 158.828652 283.694567 
L 158.432963 283.694567 
z
" style="fill:#1f77b4;opacity:0.75;"/>
   </g>
   <g id="patch_18">
    <path clip-path="url(#p4417844e04)" d="M 158.828641 307.584 
L 159.224329 307.584 
L 159.224329 285.978598 
L 158.828641 285.978598 
z
" style="fill:#1f77b4;opacity:0.75;"/>
   </g>
   <g id="patch_19">
    <path clip-path="url(#p4417844e04)" d="M 159.224329 307.584 
L 159.620028 307.584 
L 159.620028 287.159414 
L 159.224329 287.159414 
z
" style="fill:#1f77b4;opacity:0.75;"/>
   </g>
   <g id="patch_20">
    <path clip-path="url(#p4417844e04)" d="M 159.620038 307.584 
L 160.015726 307.584 
L 160.015726 287.770852 
L 159.620038 287.770852 
z
" style="fill:#1f77b4;opacity:0.75;"/>
   </g>
   <g id="patch_21">
    <path clip-path="url(#p4417844e04)" d="M 160.015716 307.584 
L 160.411404 307.584 
L 160.411404 287.639711 
L 160.015716 287.639711 
z
" style="fill:#1f77b4;opacity:0.75;"/>
   </g>
   <g id="patch_22">
    <path clip-path="url(#p4417844e04)" d="M 160.411404 307.584 
L 160.807103 307.584 
L 160.807103 285.563914 
L 160.411404 285.563914 
z
" style="fill:#1f77b4;opacity:0.75;"/>
   </g>
   <g id="patch_23">
    <path clip-path="url(#p4417844e04)" d="M 160.807113 307.584 
L 161.202801 307.584 
L 161.202801 285.257325 
L 160.807113 285.257325 
z
" style="fill:#1f77b4;opacity:0.75;"/>
   </g>
   <g id="patch_24">
    <path clip-path="url(#p4417844e04)" d="M 161.202791 307.584 
L 161.598479 307.584 
L 161.598479 288.65605 
L 161.202791 288.65605 
z
" style="fill:#1f77b4;opacity:0.75;"/>
   </g>
   <g id="patch_25">
    <path clip-path="url(#p4417844e04)" d="M 161.598489 307.584 
L 161.994178 307.584 
L 161.994178 288.131488 
L 161.598489 288.131488 
z
" style="fill:#1f77b4;opacity:0.75;"/>
   </g>
   <g id="patch_26">
    <path clip-path="url(#p4417844e04)" d="M 161.994167 307.584 
L 162.389866 307.584 
L 162.389866 288.689346 
L 161.994167 288.689346 
z
" style="fill:#1f77b4;opacity:0.75;"/>
   </g>
   <g id="patch_27">
    <path clip-path="url(#p4417844e04)" d="M 162.389866 307.584 
L 162.785554 307.584 
L 162.785554 289.442894 
L 162.389866 289.442894 
z
" style="fill:#1f77b4;opacity:0.75;"/>
   </g>
   <g id="patch_28">
    <path clip-path="url(#p4417844e04)" d="M 162.785564 307.584 
L 163.181252 307.584 
L 163.181252 289.858172 
L 162.785564 289.858172 
z
" style="fill:#1f77b4;opacity:0.75;"/>
   </g>
   <g id="patch_29">
    <path clip-path="url(#p4417844e04)" d="M 163.181242 307.584 
L 163.57693 307.584 
L 163.57693 289.781673 
L 163.181242 289.781673 
z
" style="fill:#1f77b4;opacity:0.75;"/>
   </g>
   <g id="patch_30">
    <path clip-path="url(#p4417844e04)" d="M 163.57693 307.584 
L 163.972629 307.584 
L 163.972629 290.31763 
L 163.57693 290.31763 
z
" style="fill:#1f77b4;opacity:0.75;"/>
   </g>
   <g id="patch_31">
    <path clip-path="url(#p4417844e04)" d="M 163.972639 307.584 
L 164.368327 307.584 
L 164.368327 290.011169 
L 163.972639 290.011169 
z
" style="fill:#1f77b4;opacity:0.75;"/>
   </g>
   <g id="patch_32">
    <path clip-path="url(#p4417844e04)" d="M 164.368317 307.584 
L 164.764005 307.584 
L 164.764005 289.901885 
L 164.368317 289.901885 
z
" style="fill:#1f77b4;opacity:0.75;"/>
   </g>
   <g id="patch_33">
    <path clip-path="url(#p4417844e04)" d="M 164.764005 307.584 
L 165.159703 307.584 
L 165.159703 290.044428 
L 164.764005 290.044428 
z
" style="fill:#1f77b4;opacity:0.75;"/>
   </g>
   <g id="patch_34">
    <path clip-path="url(#p4417844e04)" d="M 165.159714 307.584 
L 165.555402 307.584 
L 165.555402 290.426448 
L 165.159714 290.426448 
z
" style="fill:#1f77b4;opacity:0.75;"/>
   </g>
   <g id="patch_35">
    <path clip-path="url(#p4417844e04)" d="M 165.555392 307.584 
L 165.95108 307.584 
L 165.95108 290.175095 
L 165.555392 290.175095 
z
" style="fill:#1f77b4;opacity:0.75;"/>
   </g>
   <g id="patch_36">
    <path clip-path="url(#p4417844e04)" d="M 165.95109 307.584 
L 166.346778 307.584 
L 166.346778 289.300825 
L 165.95109 289.300825 
z
" style="fill:#1f77b4;opacity:0.75;"/>
   </g>
   <g id="patch_37">
    <path clip-path="url(#p4417844e04)" d="M 166.346768 307.584 
L 166.742466 307.584 
L 166.742466 288.678418 
L 166.346768 288.678418 
z
" style="fill:#1f77b4;opacity:0.75;"/>
   </g>
   <g id="patch_38">
    <path clip-path="url(#p4417844e04)" d="M 166.742466 307.584 
L 167.138155 307.584 
L 167.138155 287.300932 
L 166.742466 287.300932 
z
" style="fill:#1f77b4;opacity:0.75;"/>
   </g>
   <g id="patch_39">
    <path clip-path="url(#p4417844e04)" d="M 167.138165 307.584 
L 167.533853 307.584 
L 167.533853 288.284486 
L 167.138165 288.284486 
z
" style="fill:#1f77b4;opacity:0.75;"/>
   </g>
   <g id="patch_40">
    <path clip-path="url(#p4417844e04)" d="M 167.533843 307.584 
L 167.929541 307.584 
L 167.929541 289.552664 
L 167.533843 289.552664 
z
" style="fill:#1f77b4;opacity:0.75;"/>
   </g>
   <g id="patch_41">
    <path clip-path="url(#p4417844e04)" d="M 167.929541 307.584 
L 168.325229 307.584 
L 168.325229 289.836315 
L 167.929541 289.836315 
z
" style="fill:#1f77b4;opacity:0.75;"/>
   </g>
   <g id="patch_42">
    <path clip-path="url(#p4417844e04)" d="M 168.32524 307.584 
L 168.720928 307.584 
L 168.720928 290.6778 
L 168.32524 290.6778 
z
" style="fill:#1f77b4;opacity:0.75;"/>
   </g>
   <g id="patch_43">
    <path clip-path="url(#p4417844e04)" d="M 168.720918 307.584 
L 169.116606 307.584 
L 169.116606 290.666872 
L 168.720918 290.666872 
z
" style="fill:#1f77b4;opacity:0.75;"/>
   </g>
   <g id="patch_44">
    <path clip-path="url(#p4417844e04)" d="M 169.116606 307.584 
L 169.512304 307.584 
L 169.512304 290.055356 
L 169.116606 290.055356 
z
" style="fill:#1f77b4;opacity:0.75;"/>
   </g>
   <g id="patch_45">
    <path clip-path="url(#p4417844e04)" d="M 169.512315 307.584 
L 169.908003 307.584 
L 169.908003 288.732549 
L 169.512315 288.732549 
z
" style="fill:#1f77b4;opacity:0.75;"/>
   </g>
   <g id="patch_46">
    <path clip-path="url(#p4417844e04)" d="M 169.907992 307.584 
L 170.30368 307.584 
L 170.30368 289.759816 
L 169.907992 289.759816 
z
" style="fill:#1f77b4;opacity:0.75;"/>
   </g>
   <g id="patch_47">
    <path clip-path="url(#p4417844e04)" d="M 170.303691 307.584 
L 170.699379 307.584 
L 170.699379 289.584962 
L 170.303691 289.584962 
z
" style="fill:#1f77b4;opacity:0.75;"/>
   </g>
   <g id="patch_48">
    <path clip-path="url(#p4417844e04)" d="M 170.699369 307.584 
L 171.095067 307.584 
L 171.095067 289.651017 
L 170.699369 289.651017 
z
" style="fill:#1f77b4;opacity:0.75;"/>
   </g>
   <g id="patch_49">
    <path clip-path="url(#p4417844e04)" d="M 171.095067 307.584 
L 171.490755 307.584 
L 171.490755 287.475786 
L 171.095067 287.475786 
z
" style="fill:#1f77b4;opacity:0.75;"/>
   </g>
   <g id="patch_50">
    <path clip-path="url(#p4417844e04)" d="M 171.490766 307.584 
L 171.886454 307.584 
L 171.886454 282.415947 
L 171.490766 282.415947 
z
" style="fill:#1f77b4;opacity:0.75;"/>
   </g>
   <g id="patch_51">
    <path clip-path="url(#p4417844e04)" d="M 171.886443 307.584 
L 172.282142 307.584 
L 172.282142 265.139328 
L 171.886443 265.139328 
z
" style="fill:#1f77b4;opacity:0.75;"/>
   </g>
   <g id="patch_52">
    <path clip-path="url(#p4417844e04)" d="M 172.282142 307.584 
L 172.67783 307.584 
L 172.67783 275.498284 
L 172.282142 275.498284 
z
" style="fill:#1f77b4;opacity:0.75;"/>
   </g>
   <g id="patch_53">
    <path clip-path="url(#p4417844e04)" d="M 172.677841 307.584 
L 173.073529 307.584 
L 173.073529 275.421785 
L 172.677841 275.421785 
z
" style="fill:#1f77b4;opacity:0.75;"/>
   </g>
   <g id="patch_54">
    <path clip-path="url(#p4417844e04)" d="M 173.073518 307.584 
L 173.469206 307.584 
L 173.469206 274.143165 
L 173.073518 274.143165 
z
" style="fill:#1f77b4;opacity:0.75;"/>
   </g>
   <g id="patch_55">
    <path clip-path="url(#p4417844e04)" d="M 173.469206 307.584 
L 173.864905 307.584 
L 173.864905 274.406342 
L 173.469206 274.406342 
z
" style="fill:#1f77b4;opacity:0.75;"/>
   </g>
   <g id="patch_56">
    <path clip-path="url(#p4417844e04)" d="M 173.864916 307.584 
L 174.260604 307.584 
L 174.260604 273.837171 
L 173.864916 273.837171 
z
" style="fill:#1f77b4;opacity:0.75;"/>
   </g>
   <g id="patch_57">
    <path clip-path="url(#p4417844e04)" d="M 174.260593 307.584 
L 174.656281 307.584 
L 174.656281 274.875366 
L 174.260593 274.875366 
z
" style="fill:#1f77b4;opacity:0.75;"/>
   </g>
   <g id="patch_58">
    <path clip-path="url(#p4417844e04)" d="M 174.656281 307.584 
L 175.05198 307.584 
L 175.05198 277.903328 
L 174.656281 277.903328 
z
" style="fill:#1f77b4;opacity:0.75;"/>
   </g>
   <g id="patch_59">
    <path clip-path="url(#p4417844e04)" d="M 175.051991 307.584 
L 175.447679 307.584 
L 175.447679 278.416161 
L 175.051991 278.416161 
z
" style="fill:#1f77b4;opacity:0.75;"/>
   </g>
   <g id="patch_60">
    <path clip-path="url(#p4417844e04)" d="M 175.447668 307.584 
L 175.843356 307.584 
L 175.843356 279.508998 
L 175.447668 279.508998 
z
" style="fill:#1f77b4;opacity:0.75;"/>
   </g>
   <g id="patch_61">
    <path clip-path="url(#p4417844e04)" d="M 175.843367 307.584 
L 176.239055 307.584 
L 176.239055 277.836957 
L 175.843367 277.836957 
z
" style="fill:#1f77b4;opacity:0.75;"/>
   </g>
   <g id="patch_62">
    <path clip-path="url(#p4417844e04)" d="M 176.239044 307.584 
L 176.634743 307.584 
L 176.634743 277.706623 
L 176.239044 277.706623 
z
" style="fill:#1f77b4;opacity:0.75;"/>
   </g>
   <g id="patch_63">
    <path clip-path="url(#p4417844e04)" d="M 176.634743 307.584 
L 177.030431 307.584 
L 177.030431 277.618389 
L 176.634743 277.618389 
z
" style="fill:#1f77b4;opacity:0.75;"/>
   </g>
   <g id="patch_64">
    <path clip-path="url(#p4417844e04)" d="M 177.030442 307.584 
L 177.42613 307.584 
L 177.42613 275.487356 
L 177.030442 275.487356 
z
" style="fill:#1f77b4;opacity:0.75;"/>
   </g>
   <g id="patch_65">
    <path clip-path="url(#p4417844e04)" d="M 177.426119 307.584 
L 177.821807 307.584 
L 177.821807 275.563854 
L 177.426119 275.563854 
z
" style="fill:#1f77b4;opacity:0.75;"/>
   </g>
   <g id="patch_66">
    <path clip-path="url(#p4417844e04)" d="M 177.821807 307.584 
L 178.217506 307.584 
L 178.217506 273.914578 
L 177.821807 273.914578 
z
" style="fill:#1f77b4;opacity:0.75;"/>
   </g>
   <g id="patch_67">
    <path clip-path="url(#p4417844e04)" d="M 178.217517 307.584 
L 178.613205 307.584 
L 178.613205 270.624228 
L 178.217517 270.624228 
z
" style="fill:#1f77b4;opacity:0.75;"/>
   </g>
   <g id="patch_68">
    <path clip-path="url(#p4417844e04)" d="M 178.613194 307.584 
L 179.008882 307.584 
L 179.008882 267.269216 
L 178.613194 267.269216 
z
" style="fill:#1f77b4;opacity:0.75;"/>
   </g>
   <g id="patch_69">
    <path clip-path="url(#p4417844e04)" d="M 179.008882 307.584 
L 179.404581 307.584 
L 179.404581 261.434708 
L 179.008882 261.434708 
z
" style="fill:#1f77b4;opacity:0.75;"/>
   </g>
   <g id="patch_70">
    <path clip-path="url(#p4417844e04)" d="M 179.404592 307.584 
L 179.80028 307.584 
L 179.80028 258.264233 
L 179.404592 258.264233 
z
" style="fill:#1f77b4;opacity:0.75;"/>
   </g>
   <g id="patch_71">
    <path clip-path="url(#p4417844e04)" d="M 179.800269 307.584 
L 180.195957 307.584 
L 180.195957 255.45564 
L 179.800269 255.45564 
z
" style="fill:#1f77b4;opacity:0.75;"/>
   </g>
   <g id="patch_72">
    <path clip-path="url(#p4417844e04)" d="M 180.195968 307.584 
L 180.591656 307.584 
L 180.591656 255.248001 
L 180.195968 255.248001 
z
" style="fill:#1f77b4;opacity:0.75;"/>
   </g>
   <g id="patch_73">
    <path clip-path="url(#p4417844e04)" d="M 180.591645 307.584 
L 180.987344 307.584 
L 180.987344 259.194452 
L 180.591645 259.194452 
z
" style="fill:#1f77b4;opacity:0.75;"/>
   </g>
   <g id="patch_74">
    <path clip-path="url(#p4417844e04)" d="M 180.987344 307.584 
L 181.383032 307.584 
L 181.383032 258.154949 
L 180.987344 258.154949 
z
" style="fill:#1f77b4;opacity:0.75;"/>
   </g>
   <g id="patch_75">
    <path clip-path="url(#p4417844e04)" d="M 181.383043 307.584 
L 181.778731 307.584 
L 181.778731 259.040148 
L 181.383043 259.040148 
z
" style="fill:#1f77b4;opacity:0.75;"/>
   </g>
   <g id="patch_76">
    <path clip-path="url(#p4417844e04)" d="M 181.77872 307.584 
L 182.174419 307.584 
L 182.174419 258.385773 
L 181.77872 258.385773 
z
" style="fill:#1f77b4;opacity:0.75;"/>
   </g>
   <g id="patch_77">
    <path clip-path="url(#p4417844e04)" d="M 182.174419 307.584 
L 182.570107 307.584 
L 182.570107 254.406516 
L 182.174419 254.406516 
z
" style="fill:#1f77b4;opacity:0.75;"/>
   </g>
   <g id="patch_78">
    <path clip-path="url(#p4417844e04)" d="M 182.570118 307.584 
L 182.965806 307.584 
L 182.965806 253.739885 
L 182.570118 253.739885 
z
" style="fill:#1f77b4;opacity:0.75;"/>
   </g>
   <g id="patch_79">
    <path clip-path="url(#p4417844e04)" d="M 182.965795 307.584 
L 183.361483 307.584 
L 183.361483 254.024022 
L 182.965795 254.024022 
z
" style="fill:#1f77b4;opacity:0.75;"/>
   </g>
   <g id="patch_80">
    <path clip-path="url(#p4417844e04)" d="M 183.361483 307.584 
L 183.757182 307.584 
L 183.757182 256.965123 
L 183.361483 256.965123 
z
" style="fill:#1f77b4;opacity:0.75;"/>
   </g>
   <g id="patch_81">
    <path clip-path="url(#p4417844e04)" d="M 183.757193 307.584 
L 184.152881 307.584 
L 184.152881 256.308053 
L 183.757193 256.308053 
z
" style="fill:#1f77b4;opacity:0.75;"/>
   </g>
   <g id="patch_82">
    <path clip-path="url(#p4417844e04)" d="M 184.15287 307.584 
L 184.548558 307.584 
L 184.548558 254.537656 
L 184.15287 254.537656 
z
" style="fill:#1f77b4;opacity:0.75;"/>
   </g>
   <g id="patch_83">
    <path clip-path="url(#p4417844e04)" d="M 184.548569 307.584 
L 184.944257 307.584 
L 184.944257 249.608958 
L 184.548569 249.608958 
z
" style="fill:#1f77b4;opacity:0.75;"/>
   </g>
   <g id="patch_84">
    <path clip-path="url(#p4417844e04)" d="M 184.944246 307.584 
L 185.339945 307.584 
L 185.339945 251.457369 
L 184.944246 251.457369 
z
" style="fill:#1f77b4;opacity:0.75;"/>
   </g>
   <g id="patch_85">
    <path clip-path="url(#p4417844e04)" d="M 185.339945 307.584 
L 185.735633 307.584 
L 185.735633 252.789116 
L 185.339945 252.789116 
z
" style="fill:#1f77b4;opacity:0.75;"/>
   </g>
   <g id="patch_86">
    <path clip-path="url(#p4417844e04)" d="M 185.735644 307.584 
L 186.131332 307.584 
L 186.131332 252.28641 
L 185.735644 252.28641 
z
" style="fill:#1f77b4;opacity:0.75;"/>
   </g>
   <g id="patch_87">
    <path clip-path="url(#p4417844e04)" d="M 186.131321 307.584 
L 186.52702 307.584 
L 186.52702 249.413818 
L 186.131321 249.413818 
z
" style="fill:#1f77b4;opacity:0.75;"/>
   </g>
   <g id="patch_88">
    <path clip-path="url(#p4417844e04)" d="M 186.52702 307.584 
L 186.922708 307.584 
L 186.922708 251.018719 
L 186.52702 251.018719 
z
" style="fill:#1f77b4;opacity:0.75;"/>
   </g>
   <g id="patch_89">
    <path clip-path="url(#p4417844e04)" d="M 186.922719 307.584 
L 187.318407 307.584 
L 187.318407 249.893096 
L 186.922719 249.893096 
z
" style="fill:#1f77b4;opacity:0.75;"/>
   </g>
   <g id="patch_90">
    <path clip-path="url(#p4417844e04)" d="M 187.318396 307.584 
L 187.714084 307.584 
L 187.714084 248.975112 
L 187.318396 248.975112 
z
" style="fill:#1f77b4;opacity:0.75;"/>
   </g>
   <g id="patch_91">
    <path clip-path="url(#p4417844e04)" d="M 187.714084 307.584 
L 188.109783 307.584 
L 188.109783 244.135554 
L 187.714084 244.135554 
z
" style="fill:#1f77b4;opacity:0.75;"/>
   </g>
   <g id="patch_92">
    <path clip-path="url(#p4417844e04)" d="M 188.109793 307.584 
L 188.505482 307.584 
L 188.505482 236.647902 
L 188.109793 236.647902 
z
" style="fill:#1f77b4;opacity:0.75;"/>
   </g>
   <g id="patch_93">
    <path clip-path="url(#p4417844e04)" d="M 188.505471 307.584 
L 188.901159 307.584 
L 188.901159 236.221696 
L 188.505471 236.221696 
z
" style="fill:#1f77b4;opacity:0.75;"/>
   </g>
   <g id="patch_94">
    <path clip-path="url(#p4417844e04)" d="M 188.901159 307.584 
L 189.296858 307.584 
L 189.296858 240.310725 
L 188.901159 240.310725 
z
" style="fill:#1f77b4;opacity:0.75;"/>
   </g>
   <g id="patch_95">
    <path clip-path="url(#p4417844e04)" d="M 189.296868 307.584 
L 189.692556 307.584 
L 189.692556 239.390925 
L 189.296868 239.390925 
z
" style="fill:#1f77b4;opacity:0.75;"/>
   </g>
   <g id="patch_96">
    <path clip-path="url(#p4417844e04)" d="M 189.692546 307.584 
L 190.088234 307.584 
L 190.088234 237.620528 
L 189.692546 237.620528 
z
" style="fill:#1f77b4;opacity:0.75;"/>
   </g>
   <g id="patch_97">
    <path clip-path="url(#p4417844e04)" d="M 190.088244 307.584 
L 190.483933 307.584 
L 190.483933 229.839523 
L 190.088244 229.839523 
z
" style="fill:#1f77b4;opacity:0.75;"/>
   </g>
   <g id="patch_98">
    <path clip-path="url(#p4417844e04)" d="M 190.483922 307.584 
L 190.879621 307.584 
L 190.879621 230.606588 
L 190.483922 230.606588 
z
" style="fill:#1f77b4;opacity:0.75;"/>
   </g>
   <g id="patch_99">
    <path clip-path="url(#p4417844e04)" d="M 190.879621 307.584 
L 191.275309 307.584 
L 191.275309 226.746792 
L 190.879621 226.746792 
z
" style="fill:#1f77b4;opacity:0.75;"/>
   </g>
   <g id="patch_100">
    <path clip-path="url(#p4417844e04)" d="M 191.275319 307.584 
L 191.671007 307.584 
L 191.671007 223.304354 
L 191.275319 223.304354 
z
" style="fill:#1f77b4;opacity:0.75;"/>
   </g>
   <g id="patch_101">
    <path clip-path="url(#p4417844e04)" d="M 191.670997 307.584 
L 192.066685 307.584 
L 192.066685 228.659259 
L 191.670997 228.659259 
z
" style="fill:#1f77b4;opacity:0.75;"/>
   </g>
   <g id="patch_102">
    <path clip-path="url(#p4417844e04)" d="M 192.066685 307.584 
L 192.462384 307.584 
L 192.462384 230.278746 
L 192.066685 230.278746 
z
" style="fill:#1f77b4;opacity:0.75;"/>
   </g>
   <g id="patch_103">
    <path clip-path="url(#p4417844e04)" d="M 192.462394 307.584 
L 192.858082 307.584 
L 192.858082 228.145625 
L 192.462394 228.145625 
z
" style="fill:#1f77b4;opacity:0.75;"/>
   </g>
   <g id="patch_104">
    <path clip-path="url(#p4417844e04)" d="M 192.858072 307.584 
L 193.25376 307.584 
L 193.25376 225.490029 
L 192.858072 225.490029 
z
" style="fill:#1f77b4;opacity:0.75;"/>
   </g>
   <g id="patch_105">
    <path clip-path="url(#p4417844e04)" d="M 193.25376 307.584 
L 193.649459 307.584 
L 193.649459 221.853194 
L 193.25376 221.853194 
z
" style="fill:#1f77b4;opacity:0.75;"/>
   </g>
   <g id="patch_106">
    <path clip-path="url(#p4417844e04)" d="M 193.649469 307.584 
L 194.045157 307.584 
L 194.045157 217.206319 
L 193.649469 217.206319 
z
" style="fill:#1f77b4;opacity:0.75;"/>
   </g>
   <g id="patch_107">
    <path clip-path="url(#p4417844e04)" d="M 194.045147 307.584 
L 194.440835 307.584 
L 194.440835 214.900431 
L 194.045147 214.900431 
z
" style="fill:#1f77b4;opacity:0.75;"/>
   </g>
   <g id="patch_108">
    <path clip-path="url(#p4417844e04)" d="M 194.440845 307.584 
L 194.836533 307.584 
L 194.836533 210.234014 
L 194.440845 210.234014 
z
" style="fill:#1f77b4;opacity:0.75;"/>
   </g>
   <g id="patch_109">
    <path clip-path="url(#p4417844e04)" d="M 194.836523 307.584 
L 195.232222 307.584 
L 195.232222 199.516194 
L 194.836523 199.516194 
z
" style="fill:#1f77b4;opacity:0.75;"/>
   </g>
   <g id="patch_110">
    <path clip-path="url(#p4417844e04)" d="M 195.232222 307.584 
L 195.62791 307.584 
L 195.62791 188.967392 
L 195.232222 188.967392 
z
" style="fill:#1f77b4;opacity:0.75;"/>
   </g>
   <g id="patch_111">
    <path clip-path="url(#p4417844e04)" d="M 195.62792 307.584 
L 196.023608 307.584 
L 196.023608 188.049408 
L 195.62792 188.049408 
z
" style="fill:#1f77b4;opacity:0.75;"/>
   </g>
   <g id="patch_112">
    <path clip-path="url(#p4417844e04)" d="M 196.023598 307.584 
L 196.419296 307.584 
L 196.419296 182.260752 
L 196.023598 182.260752 
z
" style="fill:#1f77b4;opacity:0.75;"/>
   </g>
   <g id="patch_113">
    <path clip-path="url(#p4417844e04)" d="M 196.419296 307.584 
L 196.814984 307.584 
L 196.814984 193.743093 
L 196.419296 193.743093 
z
" style="fill:#1f77b4;opacity:0.75;"/>
   </g>
   <g id="patch_114">
    <path clip-path="url(#p4417844e04)" d="M 196.814995 307.584 
L 197.210683 307.584 
L 197.210683 192.442616 
L 196.814995 192.442616 
z
" style="fill:#1f77b4;opacity:0.75;"/>
   </g>
   <g id="patch_115">
    <path clip-path="url(#p4417844e04)" d="M 197.210673 307.584 
L 197.606361 307.584 
L 197.606361 182.891214 
L 197.210673 182.891214 
z
" style="fill:#1f77b4;opacity:0.75;"/>
   </g>
   <g id="patch_116">
    <path clip-path="url(#p4417844e04)" d="M 197.606361 307.584 
L 198.002059 307.584 
L 198.002059 187.790362 
L 197.606361 187.790362 
z
" style="fill:#1f77b4;opacity:0.75;"/>
   </g>
   <g id="patch_117">
    <path clip-path="url(#p4417844e04)" d="M 198.00207 307.584 
L 198.397758 307.584 
L 198.397758 183.973123 
L 198.00207 183.973123 
z
" style="fill:#1f77b4;opacity:0.75;"/>
   </g>
   <g id="patch_118">
    <path clip-path="url(#p4417844e04)" d="M 198.397747 307.584 
L 198.793436 307.584 
L 198.793436 177.623736 
L 198.397747 177.623736 
z
" style="fill:#1f77b4;opacity:0.75;"/>
   </g>
   <g id="patch_119">
    <path clip-path="url(#p4417844e04)" d="M 198.793446 307.584 
L 199.189134 307.584 
L 199.189134 169.121458 
L 198.793446 169.121458 
z
" style="fill:#1f77b4;opacity:0.75;"/>
   </g>
   <g id="patch_120">
    <path clip-path="url(#p4417844e04)" d="M 199.189124 307.584 
L 199.584822 307.584 
L 199.584822 168.775499 
L 199.189124 168.775499 
z
" style="fill:#1f77b4;opacity:0.75;"/>
   </g>
   <g id="patch_121">
    <path clip-path="url(#p4417844e04)" d="M 199.584822 307.584 
L 199.98051 307.584 
L 199.98051 153.253455 
L 199.584822 153.253455 
z
" style="fill:#1f77b4;opacity:0.75;"/>
   </g>
   <g id="patch_122">
    <path clip-path="url(#p4417844e04)" d="M 199.980521 307.584 
L 200.376209 307.584 
L 200.376209 156.630323 
L 199.980521 156.630323 
z
" style="fill:#1f77b4;opacity:0.75;"/>
   </g>
   <g id="patch_123">
    <path clip-path="url(#p4417844e04)" d="M 200.376199 307.584 
L 200.771897 307.584 
L 200.771897 150.798803 
L 200.376199 150.798803 
z
" style="fill:#1f77b4;opacity:0.75;"/>
   </g>
   <g id="patch_124">
    <path clip-path="url(#p4417844e04)" d="M 200.771897 307.584 
L 201.167585 307.584 
L 201.167585 145.53802 
L 200.771897 145.53802 
z
" style="fill:#1f77b4;opacity:0.75;"/>
   </g>
   <g id="patch_125">
    <path clip-path="url(#p4417844e04)" d="M 201.167596 307.584 
L 201.563284 307.584 
L 201.563284 137.99744 
L 201.167596 137.99744 
z
" style="fill:#1f77b4;opacity:0.75;"/>
   </g>
   <g id="patch_126">
    <path clip-path="url(#p4417844e04)" d="M 201.563273 307.584 
L 201.958962 307.584 
L 201.958962 127.145561 
L 201.563273 127.145561 
z
" style="fill:#1f77b4;opacity:0.75;"/>
   </g>
   <g id="patch_127">
    <path clip-path="url(#p4417844e04)" d="M 201.958962 307.584 
L 202.35466 307.584 
L 202.35466 123.052402 
L 201.958962 123.052402 
z
" style="fill:#1f77b4;opacity:0.75;"/>
   </g>
   <g id="patch_128">
    <path clip-path="url(#p4417844e04)" d="M 202.354671 307.584 
L 202.750359 307.584 
L 202.750359 117.233523 
L 202.354671 117.233523 
z
" style="fill:#1f77b4;opacity:0.75;"/>
   </g>
   <g id="patch_129">
    <path clip-path="url(#p4417844e04)" d="M 202.750348 307.584 
L 203.146036 307.584 
L 203.146036 106.556498 
L 202.750348 106.556498 
z
" style="fill:#1f77b4;opacity:0.75;"/>
   </g>
   <g id="patch_130">
    <path clip-path="url(#p4417844e04)" d="M 203.146047 307.584 
L 203.541735 307.584 
L 203.541735 94.535283 
L 203.146047 94.535283 
z
" style="fill:#1f77b4;opacity:0.75;"/>
   </g>
   <g id="patch_131">
    <path clip-path="url(#p4417844e04)" d="M 203.541724 307.584 
L 203.937423 307.584 
L 203.937423 107.720303 
L 203.541724 107.720303 
z
" style="fill:#1f77b4;opacity:0.75;"/>
   </g>
   <g id="patch_132">
    <path clip-path="url(#p4417844e04)" d="M 203.937423 307.584 
L 204.333111 307.584 
L 204.333111 105.955437 
L 203.937423 105.955437 
z
" style="fill:#1f77b4;opacity:0.75;"/>
   </g>
   <g id="patch_133">
    <path clip-path="url(#p4417844e04)" d="M 204.333122 307.584 
L 204.72881 307.584 
L 204.72881 106.184933 
L 204.333122 106.184933 
z
" style="fill:#1f77b4;opacity:0.75;"/>
   </g>
   <g id="patch_134">
    <path clip-path="url(#p4417844e04)" d="M 204.728799 307.584 
L 205.124498 307.584 
L 205.124498 105.545614 
L 204.728799 105.545614 
z
" style="fill:#1f77b4;opacity:0.75;"/>
   </g>
   <g id="patch_135">
    <path clip-path="url(#p4417844e04)" d="M 205.124498 307.584 
L 205.520186 307.584 
L 205.520186 101.004882 
L 205.124498 101.004882 
z
" style="fill:#1f77b4;opacity:0.75;"/>
   </g>
   <g id="patch_136">
    <path clip-path="url(#p4417844e04)" d="M 205.520197 307.584 
L 205.915885 307.584 
L 205.915885 100.043185 
L 205.520197 100.043185 
z
" style="fill:#1f77b4;opacity:0.75;"/>
   </g>
   <g id="patch_137">
    <path clip-path="url(#p4417844e04)" d="M 205.915874 307.584 
L 206.311562 307.584 
L 206.311562 113.244665 
L 205.915874 113.244665 
z
" style="fill:#1f77b4;opacity:0.75;"/>
   </g>
   <g id="patch_138">
    <path clip-path="url(#p4417844e04)" d="M 206.311562 307.584 
L 206.707261 307.584 
L 206.707261 106.234084 
L 206.311562 106.234084 
z
" style="fill:#1f77b4;opacity:0.75;"/>
   </g>
   <g id="patch_139">
    <path clip-path="url(#p4417844e04)" d="M 206.707272 307.584 
L 207.10296 307.584 
L 207.10296 105.256021 
L 206.707272 105.256021 
z
" style="fill:#1f77b4;opacity:0.75;"/>
   </g>
   <g id="patch_140">
    <path clip-path="url(#p4417844e04)" d="M 207.102949 307.584 
L 207.498637 307.584 
L 207.498637 89.420802 
L 207.102949 89.420802 
z
" style="fill:#1f77b4;opacity:0.75;"/>
   </g>
   <g id="patch_141">
    <path clip-path="url(#p4417844e04)" d="M 207.498637 307.584 
L 207.894336 307.584 
L 207.894336 71.930833 
L 207.498637 71.930833 
z
" style="fill:#1f77b4;opacity:0.75;"/>
   </g>
   <g id="patch_142">
    <path clip-path="url(#p4417844e04)" d="M 207.894347 307.584 
L 208.290035 307.584 
L 208.290035 70.492853 
L 207.894347 70.492853 
z
" style="fill:#1f77b4;opacity:0.75;"/>
   </g>
   <g id="patch_143">
    <path clip-path="url(#p4417844e04)" d="M 208.290024 307.584 
L 208.685712 307.584 
L 208.685712 74.940702 
L 208.290024 74.940702 
z
" style="fill:#1f77b4;opacity:0.75;"/>
   </g>
   <g id="patch_144">
    <path clip-path="url(#p4417844e04)" d="M 208.685723 307.584 
L 209.081411 307.584 
L 209.081411 61.629939 
L 208.685723 61.629939 
z
" style="fill:#1f77b4;opacity:0.75;"/>
   </g>
   <g id="patch_145">
    <path clip-path="url(#p4417844e04)" d="M 209.0814 307.584 
L 209.477099 307.584 
L 209.477099 63.505282 
L 209.0814 63.505282 
z
" style="fill:#1f77b4;opacity:0.75;"/>
   </g>
   <g id="patch_146">
    <path clip-path="url(#p4417844e04)" d="M 209.477099 307.584 
L 209.872787 307.584 
L 209.872787 61.48787 
L 209.477099 61.48787 
z
" style="fill:#1f77b4;opacity:0.75;"/>
   </g>
   <g id="patch_147">
    <path clip-path="url(#p4417844e04)" d="M 209.872798 307.584 
L 210.268486 307.584 
L 210.268486 61.750151 
L 209.872798 61.750151 
z
" style="fill:#1f77b4;opacity:0.75;"/>
   </g>
   <g id="patch_148">
    <path clip-path="url(#p4417844e04)" d="M 210.268475 307.584 
L 210.664163 307.584 
L 210.664163 54.144 
L 210.268475 54.144 
z
" style="fill:#1f77b4;opacity:0.75;"/>
   </g>
   <g id="patch_149">
    <path clip-path="url(#p4417844e04)" d="M 210.664163 307.584 
L 211.059862 307.584 
L 211.059862 63.712915 
L 210.664163 63.712915 
z
" style="fill:#1f77b4;opacity:0.75;"/>
   </g>
   <g id="patch_150">
    <path clip-path="url(#p4417844e04)" d="M 211.059873 307.584 
L 211.455561 307.584 
L 211.455561 76.09911 
L 211.059873 76.09911 
z
" style="fill:#1f77b4;opacity:0.75;"/>
   </g>
   <g id="patch_151">
    <path clip-path="url(#p4417844e04)" d="M 211.45555 307.584 
L 211.851238 307.584 
L 211.851238 90.076505 
L 211.45555 90.076505 
z
" style="fill:#1f77b4;opacity:0.75;"/>
   </g>
   <g id="patch_152">
    <path clip-path="url(#p4417844e04)" d="M 211.851238 307.584 
L 212.246937 307.584 
L 212.246937 91.339107 
L 211.851238 91.339107 
z
" style="fill:#1f77b4;opacity:0.75;"/>
   </g>
   <g id="patch_153">
    <path clip-path="url(#p4417844e04)" d="M 212.246948 307.584 
L 212.642636 307.584 
L 212.642636 86.393642 
L 212.246948 86.393642 
z
" style="fill:#1f77b4;opacity:0.75;"/>
   </g>
   <g id="patch_154">
    <path clip-path="url(#p4417844e04)" d="M 212.642625 307.584 
L 213.038313 307.584 
L 213.038313 86.907275 
L 212.642625 86.907275 
z
" style="fill:#1f77b4;opacity:0.75;"/>
   </g>
   <g id="patch_155">
    <path clip-path="url(#p4417844e04)" d="M 213.038324 307.584 
L 213.434012 307.584 
L 213.434012 95.420481 
L 213.038324 95.420481 
z
" style="fill:#1f77b4;opacity:0.75;"/>
   </g>
   <g id="patch_156">
    <path clip-path="url(#p4417844e04)" d="M 213.434001 307.584 
L 213.8297 307.584 
L 213.8297 95.120224 
L 213.434001 95.120224 
z
" style="fill:#1f77b4;opacity:0.75;"/>
   </g>
   <g id="patch_157">
    <path clip-path="url(#p4417844e04)" d="M 213.8297 307.584 
L 214.225388 307.584 
L 214.225388 95.529765 
L 213.8297 95.529765 
z
" style="fill:#1f77b4;opacity:0.75;"/>
   </g>
   <g id="patch_158">
    <path clip-path="url(#p4417844e04)" d="M 214.225399 307.584 
L 214.621087 307.584 
L 214.621087 100.0104 
L 214.225399 100.0104 
z
" style="fill:#1f77b4;opacity:0.75;"/>
   </g>
   <g id="patch_159">
    <path clip-path="url(#p4417844e04)" d="M 214.621076 307.584 
L 215.016775 307.584 
L 215.016775 104.387238 
L 214.621076 104.387238 
z
" style="fill:#1f77b4;opacity:0.75;"/>
   </g>
   <g id="patch_160">
    <path clip-path="url(#p4417844e04)" d="M 215.016775 307.584 
L 215.412463 307.584 
L 215.412463 114.468643 
L 215.016775 114.468643 
z
" style="fill:#1f77b4;opacity:0.75;"/>
   </g>
   <g id="patch_161">
    <path clip-path="url(#p4417844e04)" d="M 215.412474 307.584 
L 215.808162 307.584 
L 215.808162 116.151613 
L 215.412474 116.151613 
z
" style="fill:#1f77b4;opacity:0.75;"/>
   </g>
   <g id="patch_162">
    <path clip-path="url(#p4417844e04)" d="M 215.808151 307.584 
L 216.203839 307.584 
L 216.203839 119.681479 
L 215.808151 119.681479 
z
" style="fill:#1f77b4;opacity:0.75;"/>
   </g>
   <g id="patch_163">
    <path clip-path="url(#p4417844e04)" d="M 216.203839 307.584 
L 216.599538 307.584 
L 216.599538 125.194306 
L 216.203839 125.194306 
z
" style="fill:#1f77b4;opacity:0.75;"/>
   </g>
   <g id="patch_164">
    <path clip-path="url(#p4417844e04)" d="M 216.599548 307.584 
L 216.995237 307.584 
L 216.995237 120.883601 
L 216.599548 120.883601 
z
" style="fill:#1f77b4;opacity:0.75;"/>
   </g>
   <g id="patch_165">
    <path clip-path="url(#p4417844e04)" d="M 216.995226 307.584 
L 217.390914 307.584 
L 217.390914 117.397448 
L 216.995226 117.397448 
z
" style="fill:#1f77b4;opacity:0.75;"/>
   </g>
   <g id="patch_166">
    <path clip-path="url(#p4417844e04)" d="M 217.390925 307.584 
L 217.786613 307.584 
L 217.786613 108.785887 
L 217.390925 108.785887 
z
" style="fill:#1f77b4;opacity:0.75;"/>
   </g>
   <g id="patch_167">
    <path clip-path="url(#p4417844e04)" d="M 217.786602 307.584 
L 218.182301 307.584 
L 218.182301 101.163453 
L 217.786602 101.163453 
z
" style="fill:#1f77b4;opacity:0.75;"/>
   </g>
   <g id="patch_168">
    <path clip-path="url(#p4417844e04)" d="M 218.182301 307.584 
L 218.577989 307.584 
L 218.577989 88.240537 
L 218.182301 88.240537 
z
" style="fill:#1f77b4;opacity:0.75;"/>
   </g>
   <g id="patch_169">
    <path clip-path="url(#p4417844e04)" d="M 218.578 307.584 
L 218.973688 307.584 
L 218.973688 84.896454 
L 218.578 84.896454 
z
" style="fill:#1f77b4;opacity:0.75;"/>
   </g>
   <g id="patch_170">
    <path clip-path="url(#p4417844e04)" d="M 218.973677 307.584 
L 219.369376 307.584 
L 219.369376 85.601864 
L 218.973677 85.601864 
z
" style="fill:#1f77b4;opacity:0.75;"/>
   </g>
   <g id="patch_171">
    <path clip-path="url(#p4417844e04)" d="M 219.369376 307.584 
L 219.765064 307.584 
L 219.765064 80.503246 
L 219.369376 80.503246 
z
" style="fill:#1f77b4;opacity:0.75;"/>
   </g>
   <g id="patch_172">
    <path clip-path="url(#p4417844e04)" d="M 219.765074 307.584 
L 220.160763 307.584 
L 220.160763 98.841064 
L 219.765074 98.841064 
z
" style="fill:#1f77b4;opacity:0.75;"/>
   </g>
   <g id="patch_173">
    <path clip-path="url(#p4417844e04)" d="M 220.160752 307.584 
L 220.55644 307.584 
L 220.55644 97.442231 
L 220.160752 97.442231 
z
" style="fill:#1f77b4;opacity:0.75;"/>
   </g>
   <g id="patch_174">
    <path clip-path="url(#p4417844e04)" d="M 220.55644 307.584 
L 220.952139 307.584 
L 220.952139 80.542162 
L 220.55644 80.542162 
z
" style="fill:#1f77b4;opacity:0.75;"/>
   </g>
   <g id="patch_175">
    <path clip-path="url(#p4417844e04)" d="M 220.952149 307.584 
L 221.347837 307.584 
L 221.347837 89.923508 
L 220.952149 89.923508 
z
" style="fill:#1f77b4;opacity:0.75;"/>
   </g>
   <g id="patch_176">
    <path clip-path="url(#p4417844e04)" d="M 221.347827 307.584 
L 221.743515 307.584 
L 221.743515 106.359787 
L 221.347827 106.359787 
z
" style="fill:#1f77b4;opacity:0.75;"/>
   </g>
   <g id="patch_177">
    <path clip-path="url(#p4417844e04)" d="M 221.743515 307.584 
L 222.139214 307.584 
L 222.139214 114.670563 
L 221.743515 114.670563 
z
" style="fill:#1f77b4;opacity:0.75;"/>
   </g>
   <g id="patch_178">
    <path clip-path="url(#p4417844e04)" d="M 222.139224 307.584 
L 222.534912 307.584 
L 222.534912 125.462591 
L 222.139224 125.462591 
z
" style="fill:#1f77b4;opacity:0.75;"/>
   </g>
   <g id="patch_179">
    <path clip-path="url(#p4417844e04)" d="M 222.534902 307.584 
L 222.93059 307.584 
L 222.93059 127.407842 
L 222.534902 127.407842 
z
" style="fill:#1f77b4;opacity:0.75;"/>
   </g>
   <g id="patch_180">
    <path clip-path="url(#p4417844e04)" d="M 222.9306 307.584 
L 223.326288 307.584 
L 223.326288 133.593304 
L 222.9306 133.593304 
z
" style="fill:#1f77b4;opacity:0.75;"/>
   </g>
   <g id="patch_181">
    <path clip-path="url(#p4417844e04)" d="M 223.326278 307.584 
L 223.721977 307.584 
L 223.721977 141.761279 
L 223.326278 141.761279 
z
" style="fill:#1f77b4;opacity:0.75;"/>
   </g>
   <g id="patch_182">
    <path clip-path="url(#p4417844e04)" d="M 223.721977 307.584 
L 224.117665 307.584 
L 224.117665 141.308738 
L 223.721977 141.308738 
z
" style="fill:#1f77b4;opacity:0.75;"/>
   </g>
   <g id="patch_183">
    <path clip-path="url(#p4417844e04)" d="M 224.117675 307.584 
L 224.513363 307.584 
L 224.513363 140.707677 
L 224.117675 140.707677 
z
" style="fill:#1f77b4;opacity:0.75;"/>
   </g>
   <g id="patch_184">
    <path clip-path="url(#p4417844e04)" d="M 224.513353 307.584 
L 224.909041 307.584 
L 224.909041 139.800622 
L 224.513353 139.800622 
z
" style="fill:#1f77b4;opacity:0.75;"/>
   </g>
   <g id="patch_185">
    <path clip-path="url(#p4417844e04)" d="M 224.909041 307.584 
L 225.30474 307.584 
L 225.30474 137.127772 
L 224.909041 137.127772 
z
" style="fill:#1f77b4;opacity:0.75;"/>
   </g>
   <g id="patch_186">
    <path clip-path="url(#p4417844e04)" d="M 225.30475 307.584 
L 225.700438 307.584 
L 225.700438 141.680303 
L 225.30475 141.680303 
z
" style="fill:#1f77b4;opacity:0.75;"/>
   </g>
   <g id="patch_187">
    <path clip-path="url(#p4417844e04)" d="M 225.700428 307.584 
L 226.096116 307.584 
L 226.096116 135.145133 
L 225.700428 135.145133 
z
" style="fill:#1f77b4;opacity:0.75;"/>
   </g>
   <g id="patch_188">
    <path clip-path="url(#p4417844e04)" d="M 226.096116 307.584 
L 226.491814 307.584 
L 226.491814 130.964334 
L 226.096116 130.964334 
z
" style="fill:#1f77b4;opacity:0.75;"/>
   </g>
   <g id="patch_189">
    <path clip-path="url(#p4417844e04)" d="M 226.491825 307.584 
L 226.887513 307.584 
L 226.887513 124.577392 
L 226.491825 124.577392 
z
" style="fill:#1f77b4;opacity:0.75;"/>
   </g>
   <g id="patch_190">
    <path clip-path="url(#p4417844e04)" d="M 226.887503 307.584 
L 227.283191 307.584 
L 227.283191 130.129008 
L 226.887503 130.129008 
z
" style="fill:#1f77b4;opacity:0.75;"/>
   </g>
   <g id="patch_191">
    <path clip-path="url(#p4417844e04)" d="M 227.283201 307.584 
L 227.678889 307.584 
L 227.678889 115.845619 
L 227.283201 115.845619 
z
" style="fill:#1f77b4;opacity:0.75;"/>
   </g>
   <g id="patch_192">
    <path clip-path="url(#p4417844e04)" d="M 227.678879 307.584 
L 228.074577 307.584 
L 228.074577 120.451519 
L 227.678879 120.451519 
z
" style="fill:#1f77b4;opacity:0.75;"/>
   </g>
   <g id="patch_193">
    <path clip-path="url(#p4417844e04)" d="M 228.074577 307.584 
L 228.470266 307.584 
L 228.470266 133.95394 
L 228.074577 133.95394 
z
" style="fill:#1f77b4;opacity:0.75;"/>
   </g>
   <g id="patch_194">
    <path clip-path="url(#p4417844e04)" d="M 228.470276 307.584 
L 228.865964 307.584 
L 228.865964 139.265131 
L 228.470276 139.265131 
z
" style="fill:#1f77b4;opacity:0.75;"/>
   </g>
   <g id="patch_195">
    <path clip-path="url(#p4417844e04)" d="M 228.865954 307.584 
L 229.261652 307.584 
L 229.261652 147.072327 
L 228.865954 147.072327 
z
" style="fill:#1f77b4;opacity:0.75;"/>
   </g>
   <g id="patch_196">
    <path clip-path="url(#p4417844e04)" d="M 229.261652 307.584 
L 229.65734 307.584 
L 229.65734 157.286026 
L 229.261652 157.286026 
z
" style="fill:#1f77b4;opacity:0.75;"/>
   </g>
   <g id="patch_197">
    <path clip-path="url(#p4417844e04)" d="M 229.657351 307.584 
L 230.053039 307.584 
L 230.053039 169.154244 
L 229.657351 169.154244 
z
" style="fill:#1f77b4;opacity:0.75;"/>
   </g>
   <g id="patch_198">
    <path clip-path="url(#p4417844e04)" d="M 230.053028 307.584 
L 230.448717 307.584 
L 230.448717 149.832872 
L 230.053028 149.832872 
z
" style="fill:#1f77b4;opacity:0.75;"/>
   </g>
   <g id="patch_199">
    <path clip-path="url(#p4417844e04)" d="M 230.448717 307.584 
L 230.844415 307.584 
L 230.844415 146.525923 
L 230.448717 146.525923 
z
" style="fill:#1f77b4;opacity:0.75;"/>
   </g>
   <g id="patch_200">
    <path clip-path="url(#p4417844e04)" d="M 230.844426 307.584 
L 231.240114 307.584 
L 231.240114 165.132601 
L 230.844426 165.132601 
z
" style="fill:#1f77b4;opacity:0.75;"/>
   </g>
   <g id="patch_201">
    <path clip-path="url(#p4417844e04)" d="M 231.240103 307.584 
L 231.635791 307.584 
L 231.635791 180.749252 
L 231.240103 180.749252 
z
" style="fill:#1f77b4;opacity:0.75;"/>
   </g>
   <g id="patch_202">
    <path clip-path="url(#p4417844e04)" d="M 231.635802 307.584 
L 232.03149 307.584 
L 232.03149 185.229887 
L 231.635802 185.229887 
z
" style="fill:#1f77b4;opacity:0.75;"/>
   </g>
   <g id="patch_203">
    <path clip-path="url(#p4417844e04)" d="M 232.03148 307.584 
L 232.427178 307.584 
L 232.427178 170.81905 
L 232.03148 170.81905 
z
" style="fill:#1f77b4;opacity:0.75;"/>
   </g>
   <g id="patch_204">
    <path clip-path="url(#p4417844e04)" d="M 232.427178 307.584 
L 232.822866 307.584 
L 232.822866 181.361241 
L 232.427178 181.361241 
z
" style="fill:#1f77b4;opacity:0.75;"/>
   </g>
   <g id="patch_205">
    <path clip-path="url(#p4417844e04)" d="M 232.822877 307.584 
L 233.218565 307.584 
L 233.218565 184.027765 
L 232.822877 184.027765 
z
" style="fill:#1f77b4;opacity:0.75;"/>
   </g>
   <g id="patch_206">
    <path clip-path="url(#p4417844e04)" d="M 233.218554 307.584 
L 233.614253 307.584 
L 233.614253 206.455526 
L 233.218554 206.455526 
z
" style="fill:#1f77b4;opacity:0.75;"/>
   </g>
   <g id="patch_207">
    <path clip-path="url(#p4417844e04)" d="M 233.614253 307.584 
L 234.009941 307.584 
L 234.009941 234.757293 
L 233.614253 234.757293 
z
" style="fill:#1f77b4;opacity:0.75;"/>
   </g>
   <g id="patch_208">
    <path clip-path="url(#p4417844e04)" d="M 234.009952 307.584 
L 234.40564 307.584 
L 234.40564 243.893417 
L 234.009952 243.893417 
z
" style="fill:#1f77b4;opacity:0.75;"/>
   </g>
   <g id="patch_209">
    <path clip-path="url(#p4417844e04)" d="M 234.405629 307.584 
L 234.801317 307.584 
L 234.801317 248.0462 
L 234.405629 248.0462 
z
" style="fill:#1f77b4;opacity:0.75;"/>
   </g>
   <g id="patch_210">
    <path clip-path="url(#p4417844e04)" d="M 234.801317 307.584 
L 235.197016 307.584 
L 235.197016 253.10751 
L 234.801317 253.10751 
z
" style="fill:#1f77b4;opacity:0.75;"/>
   </g>
   <g id="patch_211">
    <path clip-path="url(#p4417844e04)" d="M 235.197027 307.584 
L 235.592715 307.584 
L 235.592715 261.936168 
L 235.197027 261.936168 
z
" style="fill:#1f77b4;opacity:0.75;"/>
   </g>
   <g id="patch_212">
    <path clip-path="url(#p4417844e04)" d="M 235.592704 307.584 
L 235.988392 307.584 
L 235.988392 261.837812 
L 235.592704 261.837812 
z
" style="fill:#1f77b4;opacity:0.75;"/>
   </g>
   <g id="patch_213">
    <path clip-path="url(#p4417844e04)" d="M 235.988392 307.584 
L 236.384091 307.584 
L 236.384091 262.986496 
L 235.988392 262.986496 
z
" style="fill:#1f77b4;opacity:0.75;"/>
   </g>
   <g id="patch_214">
    <path clip-path="url(#p4417844e04)" d="M 236.384102 307.584 
L 236.77979 307.584 
L 236.77979 273.345394 
L 236.384102 273.345394 
z
" style="fill:#1f77b4;opacity:0.75;"/>
   </g>
   <g id="patch_215">
    <path clip-path="url(#p4417844e04)" d="M 236.77979 307.584 
L 237.175478 307.584 
L 237.175478 272.99662 
L 236.77979 272.99662 
z
" style="fill:#1f77b4;opacity:0.75;"/>
   </g>
   <g id="patch_216">
    <path clip-path="url(#p4417844e04)" d="M 237.175478 307.584 
L 237.571155 307.584 
L 237.571155 274.218763 
L 237.175478 274.218763 
z
" style="fill:#1f77b4;opacity:0.75;"/>
   </g>
   <g id="patch_217">
    <path clip-path="url(#p4417844e04)" d="M 237.571155 307.584 
L 237.966854 307.584 
L 237.966854 277.662911 
L 237.571155 277.662911 
z
" style="fill:#1f77b4;opacity:0.75;"/>
   </g>
   <g id="patch_218">
    <path clip-path="url(#p4417844e04)" d="M 237.966854 307.584 
L 238.362531 307.584 
L 238.362531 277.683152 
L 237.966854 277.683152 
z
" style="fill:#1f77b4;opacity:0.75;"/>
   </g>
   <g id="patch_219">
    <path clip-path="url(#p4417844e04)" d="M 238.362553 307.584 
L 238.758252 307.584 
L 238.758252 279.520685 
L 238.362553 279.520685 
z
" style="fill:#1f77b4;opacity:0.75;"/>
   </g>
   <g id="patch_220">
    <path clip-path="url(#p4417844e04)" d="M 238.75823 307.584 
L 239.153929 307.584 
L 239.153929 285.454633 
L 238.75823 285.454633 
z
" style="fill:#1f77b4;opacity:0.75;"/>
   </g>
   <g id="patch_221">
    <path clip-path="url(#p4417844e04)" d="M 239.153929 307.584 
L 239.549606 307.584 
L 239.549606 284.469858 
L 239.153929 284.469858 
z
" style="fill:#1f77b4;opacity:0.75;"/>
   </g>
   <g id="patch_222">
    <path clip-path="url(#p4417844e04)" d="M 239.549628 307.584 
L 239.945327 307.584 
L 239.945327 282.984887 
L 239.549628 282.984887 
z
" style="fill:#1f77b4;opacity:0.75;"/>
   </g>
   <g id="patch_223">
    <path clip-path="url(#p4417844e04)" d="M 239.945305 307.584 
L 240.341004 307.584 
L 240.341004 285.498346 
L 239.945305 285.498346 
z
" style="fill:#1f77b4;opacity:0.75;"/>
   </g>
   <g id="patch_224">
    <path clip-path="url(#p4417844e04)" d="M 240.341004 307.584 
L 240.736681 307.584 
L 240.736681 287.4971 
L 240.341004 287.4971 
z
" style="fill:#1f77b4;opacity:0.75;"/>
   </g>
   <g id="patch_225">
    <path clip-path="url(#p4417844e04)" d="M 240.736703 307.584 
L 241.132401 307.584 
L 241.132401 288.066445 
L 240.736703 288.066445 
z
" style="fill:#1f77b4;opacity:0.75;"/>
   </g>
   <g id="patch_226">
    <path clip-path="url(#p4417844e04)" d="M 241.13238 307.584 
L 241.528079 307.584 
L 241.528079 288.372431 
L 241.13238 288.372431 
z
" style="fill:#1f77b4;opacity:0.75;"/>
   </g>
   <g id="patch_227">
    <path clip-path="url(#p4417844e04)" d="M 241.528079 307.584 
L 241.923756 307.584 
L 241.923756 289.453332 
L 241.528079 289.453332 
z
" style="fill:#1f77b4;opacity:0.75;"/>
   </g>
   <g id="patch_228">
    <path clip-path="url(#p4417844e04)" d="M 241.923778 307.584 
L 242.319476 307.584 
L 242.319476 290.08814 
L 241.923778 290.08814 
z
" style="fill:#1f77b4;opacity:0.75;"/>
   </g>
   <g id="patch_229">
    <path clip-path="url(#p4417844e04)" d="M 242.319455 307.584 
L 242.715132 307.584 
L 242.715132 289.96698 
L 242.319455 289.96698 
z
" style="fill:#1f77b4;opacity:0.75;"/>
   </g>
   <g id="patch_230">
    <path clip-path="url(#p4417844e04)" d="M 242.715132 307.584 
L 243.110831 307.584 
L 243.110831 290.219277 
L 242.715132 290.219277 
z
" style="fill:#1f77b4;opacity:0.75;"/>
   </g>
   <g id="patch_231">
    <path clip-path="url(#p4417844e04)" d="M 243.110852 307.584 
L 243.506551 307.584 
L 243.506551 290.492479 
L 243.110852 290.492479 
z
" style="fill:#1f77b4;opacity:0.75;"/>
   </g>
   <g id="patch_232">
    <path clip-path="url(#p4417844e04)" d="M 243.50653 307.584 
L 243.902207 307.584 
L 243.902207 290.589914 
L 243.50653 290.589914 
z
" style="fill:#1f77b4;opacity:0.75;"/>
   </g>
   <g id="patch_233">
    <path clip-path="url(#p4417844e04)" d="M 243.902207 307.584 
L 244.297906 307.584 
L 244.297906 290.929603 
L 243.902207 290.929603 
z
" style="fill:#1f77b4;opacity:0.75;"/>
   </g>
   <g id="patch_234">
    <path clip-path="url(#p4417844e04)" d="M 244.297927 307.584 
L 244.693626 307.584 
L 244.693626 287.69489 
L 244.297927 287.69489 
z
" style="fill:#1f77b4;opacity:0.75;"/>
   </g>
   <g id="patch_235">
    <path clip-path="url(#p4417844e04)" d="M 244.693605 307.584 
L 245.089282 307.584 
L 245.089282 282.437125 
L 244.693605 282.437125 
z
" style="fill:#1f77b4;opacity:0.75;"/>
   </g>
   <g id="patch_236">
    <path clip-path="url(#p4417844e04)" d="M 245.089282 307.584 
L 245.484981 307.584 
L 245.484981 284.755236 
L 245.089282 284.755236 
z
" style="fill:#1f77b4;opacity:0.75;"/>
   </g>
   <g id="patch_237">
    <path clip-path="url(#p4417844e04)" d="M 245.485002 307.584 
L 245.880701 307.584 
L 245.880701 284.973798 
L 245.485002 284.973798 
z
" style="fill:#1f77b4;opacity:0.75;"/>
   </g>
   <g id="patch_238">
    <path clip-path="url(#p4417844e04)" d="M 245.88068 307.584 
L 246.276357 307.584 
L 246.276357 284.20757 
L 245.88068 284.20757 
z
" style="fill:#1f77b4;opacity:0.75;"/>
   </g>
   <g id="patch_239">
    <path clip-path="url(#p4417844e04)" d="M 246.276357 307.584 
L 246.672056 307.584 
L 246.672056 284.154192 
L 246.276357 284.154192 
z
" style="fill:#1f77b4;opacity:0.75;"/>
   </g>
   <g id="patch_240">
    <path clip-path="url(#p4417844e04)" d="M 246.672077 307.584 
L 247.067776 307.584 
L 247.067776 287.563753 
L 246.672077 287.563753 
z
" style="fill:#1f77b4;opacity:0.75;"/>
   </g>
   <g id="patch_241">
    <path clip-path="url(#p4417844e04)" d="M 247.067755 307.584 
L 247.463432 307.584 
L 247.463432 288.589967 
L 247.067755 288.589967 
z
" style="fill:#1f77b4;opacity:0.75;"/>
   </g>
   <g id="patch_242">
    <path clip-path="url(#p4417844e04)" d="M 247.463432 307.584 
L 247.859131 307.584 
L 247.859131 293.759976 
L 247.463432 293.759976 
z
" style="fill:#1f77b4;opacity:0.75;"/>
   </g>
   <g id="patch_243">
    <path clip-path="url(#p4417844e04)" d="M 247.859131 307.584 
L 248.254808 307.584 
L 248.254808 298.644346 
L 247.859131 298.644346 
z
" style="fill:#1f77b4;opacity:0.75;"/>
   </g>
   <g id="patch_244">
    <path clip-path="url(#p4417844e04)" d="M 248.25483 307.584 
L 248.650528 307.584 
L 248.650528 300.010839 
L 248.25483 300.010839 
z
" style="fill:#1f77b4;opacity:0.75;"/>
   </g>
   <g id="patch_245">
    <path clip-path="url(#p4417844e04)" d="M 248.650507 307.584 
L 249.046206 307.584 
L 249.046206 300.305897 
L 248.650507 300.305897 
z
" style="fill:#1f77b4;opacity:0.75;"/>
   </g>
   <g id="patch_246">
    <path clip-path="url(#p4417844e04)" d="M 249.046206 307.584 
L 249.441883 307.584 
L 249.441883 300.906581 
L 249.046206 300.906581 
z
" style="fill:#1f77b4;opacity:0.75;"/>
   </g>
   <g id="patch_247">
    <path clip-path="url(#p4417844e04)" d="M 249.441904 307.584 
L 249.837603 307.584 
L 249.837603 300.841373 
L 249.441904 300.841373 
z
" style="fill:#1f77b4;opacity:0.75;"/>
   </g>
   <g id="patch_248">
    <path clip-path="url(#p4417844e04)" d="M 249.837582 307.584 
L 250.233281 307.584 
L 250.233281 301.387777 
L 249.837582 301.387777 
z
" style="fill:#1f77b4;opacity:0.75;"/>
   </g>
   <g id="patch_249">
    <path clip-path="url(#p4417844e04)" d="M 250.233281 307.584 
L 250.628958 307.584 
L 250.628958 302.786313 
L 250.233281 302.786313 
z
" style="fill:#1f77b4;opacity:0.75;"/>
   </g>
   <g id="patch_250">
    <path clip-path="url(#p4417844e04)" d="M 250.628979 307.584 
L 251.024678 307.584 
L 251.024678 303.573394 
L 250.628979 303.573394 
z
" style="fill:#1f77b4;opacity:0.75;"/>
   </g>
   <g id="patch_251">
    <path clip-path="url(#p4417844e04)" d="M 251.024657 307.584 
L 251.420355 307.584 
L 251.420355 303.420401 
L 251.024657 303.420401 
z
" style="fill:#1f77b4;opacity:0.75;"/>
   </g>
   <g id="patch_252">
    <path clip-path="url(#p4417844e04)" d="M 251.420355 307.584 
L 251.816033 307.584 
L 251.816033 303.332746 
L 251.420355 303.332746 
z
" style="fill:#1f77b4;opacity:0.75;"/>
   </g>
   <g id="patch_253">
    <path clip-path="url(#p4417844e04)" d="M 251.816054 307.584 
L 252.211753 307.584 
L 252.211753 302.327592 
L 251.816054 302.327592 
z
" style="fill:#1f77b4;opacity:0.75;"/>
   </g>
   <g id="patch_254">
    <path clip-path="url(#p4417844e04)" d="M 252.211732 307.584 
L 252.607409 307.584 
L 252.607409 300.327361 
L 252.211732 300.327361 
z
" style="fill:#1f77b4;opacity:0.75;"/>
   </g>
   <g id="patch_255">
    <path clip-path="url(#p4417844e04)" d="M 252.607409 307.584 
L 253.003108 307.584 
L 253.003108 299.999911 
L 252.607409 299.999911 
z
" style="fill:#1f77b4;opacity:0.75;"/>
   </g>
   <g id="patch_256">
    <path clip-path="url(#p4417844e04)" d="M 253.003129 307.584 
L 253.398828 307.584 
L 253.398828 301.966966 
L 253.003129 301.966966 
z
" style="fill:#1f77b4;opacity:0.75;"/>
   </g>
   <g id="patch_257">
    <path clip-path="url(#p4417844e04)" d="M 253.398807 307.584 
L 253.794484 307.584 
L 253.794484 302.338237 
L 253.398807 302.338237 
z
" style="fill:#1f77b4;opacity:0.75;"/>
   </g>
   <g id="patch_258">
    <path clip-path="url(#p4417844e04)" d="M 253.794484 307.584 
L 254.190183 307.584 
L 254.190183 301.464274 
L 253.794484 301.464274 
z
" style="fill:#1f77b4;opacity:0.75;"/>
   </g>
   <g id="matplotlib.axis_1">
    <g id="xtick_1">
     <g id="line2d_1">
      <path clip-path="url(#p4417844e04)" d="M 57.6 307.584 
L 57.6 41.472 
" style="fill:none;stroke:#b0b0b0;stroke-linecap:square;stroke-width:0.8;"/>
     </g>
     <g id="line2d_2">
      <defs>
       <path d="M 0 0 
L 0 3.5 
" id="me10b68a648" style="stroke:#000000;stroke-width:0.8;"/>
      </defs>
      <g>
       <use style="stroke:#000000;stroke-width:0.8;" x="57.6" xlink:href="#me10b68a648" y="307.584"/>
      </g>
     </g>
     <g id="text_1">
      <!-- 0 -->
      <g transform="translate(54.41875 322.182437)scale(0.1 -0.1)">
       <defs>
        <path d="M 31.78125 66.40625 
Q 24.171875 66.40625 20.328125 58.90625 
Q 16.5 51.421875 16.5 36.375 
Q 16.5 21.390625 20.328125 13.890625 
Q 24.171875 6.390625 31.78125 6.390625 
Q 39.453125 6.390625 43.28125 13.890625 
Q 47.125 21.390625 47.125 36.375 
Q 47.125 51.421875 43.28125 58.90625 
Q 39.453125 66.40625 31.78125 66.40625 
z
M 31.78125 74.21875 
Q 44.046875 74.21875 50.515625 64.515625 
Q 56.984375 54.828125 56.984375 36.375 
Q 56.984375 17.96875 50.515625 8.265625 
Q 44.046875 -1.421875 31.78125 -1.421875 
Q 19.53125 -1.421875 13.0625 8.265625 
Q 6.59375 17.96875 6.59375 36.375 
Q 6.59375 54.828125 13.0625 64.515625 
Q 19.53125 74.21875 31.78125 74.21875 
z
" id="DejaVuSans-48"/>
       </defs>
       <use xlink:href="#DejaVuSans-48"/>
      </g>
     </g>
    </g>
    <g id="xtick_2">
     <g id="line2d_3">
      <path clip-path="url(#p4417844e04)" d="M 127.623529 307.584 
L 127.623529 41.472 
" style="fill:none;stroke:#b0b0b0;stroke-linecap:square;stroke-width:0.8;"/>
     </g>
     <g id="line2d_4">
      <g>
       <use style="stroke:#000000;stroke-width:0.8;" x="127.623529" xlink:href="#me10b68a648" y="307.584"/>
      </g>
     </g>
     <g id="text_2">
      <!-- 50 -->
      <g transform="translate(121.261029 322.182437)scale(0.1 -0.1)">
       <defs>
        <path d="M 10.796875 72.90625 
L 49.515625 72.90625 
L 49.515625 64.59375 
L 19.828125 64.59375 
L 19.828125 46.734375 
Q 21.96875 47.46875 24.109375 47.828125 
Q 26.265625 48.1875 28.421875 48.1875 
Q 40.625 48.1875 47.75 41.5 
Q 54.890625 34.8125 54.890625 23.390625 
Q 54.890625 11.625 47.5625 5.09375 
Q 40.234375 -1.421875 26.90625 -1.421875 
Q 22.3125 -1.421875 17.546875 -0.640625 
Q 12.796875 0.140625 7.71875 1.703125 
L 7.71875 11.625 
Q 12.109375 9.234375 16.796875 8.0625 
Q 21.484375 6.890625 26.703125 6.890625 
Q 35.15625 6.890625 40.078125 11.328125 
Q 45.015625 15.765625 45.015625 23.390625 
Q 45.015625 31 40.078125 35.4375 
Q 35.15625 39.890625 26.703125 39.890625 
Q 22.75 39.890625 18.8125 39.015625 
Q 14.890625 38.140625 10.796875 36.28125 
z
" id="DejaVuSans-53"/>
       </defs>
       <use xlink:href="#DejaVuSans-53"/>
       <use x="63.623047" xlink:href="#DejaVuSans-48"/>
      </g>
     </g>
    </g>
    <g id="xtick_3">
     <g id="line2d_5">
      <path clip-path="url(#p4417844e04)" d="M 197.647059 307.584 
L 197.647059 41.472 
" style="fill:none;stroke:#b0b0b0;stroke-linecap:square;stroke-width:0.8;"/>
     </g>
     <g id="line2d_6">
      <g>
       <use style="stroke:#000000;stroke-width:0.8;" x="197.647059" xlink:href="#me10b68a648" y="307.584"/>
      </g>
     </g>
     <g id="text_3">
      <!-- 100 -->
      <g transform="translate(188.103309 322.182437)scale(0.1 -0.1)">
       <defs>
        <path d="M 12.40625 8.296875 
L 28.515625 8.296875 
L 28.515625 63.921875 
L 10.984375 60.40625 
L 10.984375 69.390625 
L 28.421875 72.90625 
L 38.28125 72.90625 
L 38.28125 8.296875 
L 54.390625 8.296875 
L 54.390625 0 
L 12.40625 0 
z
" id="DejaVuSans-49"/>
       </defs>
       <use xlink:href="#DejaVuSans-49"/>
       <use x="63.623047" xlink:href="#DejaVuSans-48"/>
       <use x="127.246094" xlink:href="#DejaVuSans-48"/>
      </g>
     </g>
    </g>
    <g id="xtick_4">
     <g id="line2d_7">
      <path clip-path="url(#p4417844e04)" d="M 267.670588 307.584 
L 267.670588 41.472 
" style="fill:none;stroke:#b0b0b0;stroke-linecap:square;stroke-width:0.8;"/>
     </g>
     <g id="line2d_8">
      <g>
       <use style="stroke:#000000;stroke-width:0.8;" x="267.670588" xlink:href="#me10b68a648" y="307.584"/>
      </g>
     </g>
     <g id="text_4">
      <!-- 150 -->
      <g transform="translate(258.126838 322.182437)scale(0.1 -0.1)">
       <use xlink:href="#DejaVuSans-49"/>
       <use x="63.623047" xlink:href="#DejaVuSans-53"/>
       <use x="127.246094" xlink:href="#DejaVuSans-48"/>
      </g>
     </g>
    </g>
    <g id="xtick_5">
     <g id="line2d_9">
      <path clip-path="url(#p4417844e04)" d="M 337.694118 307.584 
L 337.694118 41.472 
" style="fill:none;stroke:#b0b0b0;stroke-linecap:square;stroke-width:0.8;"/>
     </g>
     <g id="line2d_10">
      <g>
       <use style="stroke:#000000;stroke-width:0.8;" x="337.694118" xlink:href="#me10b68a648" y="307.584"/>
      </g>
     </g>
     <g id="text_5">
      <!-- 200 -->
      <g transform="translate(328.150368 322.182437)scale(0.1 -0.1)">
       <defs>
        <path d="M 19.1875 8.296875 
L 53.609375 8.296875 
L 53.609375 0 
L 7.328125 0 
L 7.328125 8.296875 
Q 12.9375 14.109375 22.625 23.890625 
Q 32.328125 33.6875 34.8125 36.53125 
Q 39.546875 41.84375 41.421875 45.53125 
Q 43.3125 49.21875 43.3125 52.78125 
Q 43.3125 58.59375 39.234375 62.25 
Q 35.15625 65.921875 28.609375 65.921875 
Q 23.96875 65.921875 18.8125 64.3125 
Q 13.671875 62.703125 7.8125 59.421875 
L 7.8125 69.390625 
Q 13.765625 71.78125 18.9375 73 
Q 24.125 74.21875 28.421875 74.21875 
Q 39.75 74.21875 46.484375 68.546875 
Q 53.21875 62.890625 53.21875 53.421875 
Q 53.21875 48.921875 51.53125 44.890625 
Q 49.859375 40.875 45.40625 35.40625 
Q 44.1875 33.984375 37.640625 27.21875 
Q 31.109375 20.453125 19.1875 8.296875 
z
" id="DejaVuSans-50"/>
       </defs>
       <use xlink:href="#DejaVuSans-50"/>
       <use x="63.623047" xlink:href="#DejaVuSans-48"/>
       <use x="127.246094" xlink:href="#DejaVuSans-48"/>
      </g>
     </g>
    </g>
    <g id="xtick_6">
     <g id="line2d_11">
      <path clip-path="url(#p4417844e04)" d="M 407.717647 307.584 
L 407.717647 41.472 
" style="fill:none;stroke:#b0b0b0;stroke-linecap:square;stroke-width:0.8;"/>
     </g>
     <g id="line2d_12">
      <g>
       <use style="stroke:#000000;stroke-width:0.8;" x="407.717647" xlink:href="#me10b68a648" y="307.584"/>
      </g>
     </g>
     <g id="text_6">
      <!-- 250 -->
      <g transform="translate(398.173897 322.182437)scale(0.1 -0.1)">
       <use xlink:href="#DejaVuSans-50"/>
       <use x="63.623047" xlink:href="#DejaVuSans-53"/>
       <use x="127.246094" xlink:href="#DejaVuSans-48"/>
      </g>
     </g>
    </g>
    <g id="text_7">
     <!-- values -->
     <g transform="translate(219.8975 335.860562)scale(0.1 -0.1)">
      <defs>
       <path d="M 2.984375 54.6875 
L 12.5 54.6875 
L 29.59375 8.796875 
L 46.6875 54.6875 
L 56.203125 54.6875 
L 35.6875 0 
L 23.484375 0 
z
" id="DejaVuSans-118"/>
       <path d="M 34.28125 27.484375 
Q 23.390625 27.484375 19.1875 25 
Q 14.984375 22.515625 14.984375 16.5 
Q 14.984375 11.71875 18.140625 8.90625 
Q 21.296875 6.109375 26.703125 6.109375 
Q 34.1875 6.109375 38.703125 11.40625 
Q 43.21875 16.703125 43.21875 25.484375 
L 43.21875 27.484375 
z
M 52.203125 31.203125 
L 52.203125 0 
L 43.21875 0 
L 43.21875 8.296875 
Q 40.140625 3.328125 35.546875 0.953125 
Q 30.953125 -1.421875 24.3125 -1.421875 
Q 15.921875 -1.421875 10.953125 3.296875 
Q 6 8.015625 6 15.921875 
Q 6 25.140625 12.171875 29.828125 
Q 18.359375 34.515625 30.609375 34.515625 
L 43.21875 34.515625 
L 43.21875 35.40625 
Q 43.21875 41.609375 39.140625 45 
Q 35.0625 48.390625 27.6875 48.390625 
Q 23 48.390625 18.546875 47.265625 
Q 14.109375 46.140625 10.015625 43.890625 
L 10.015625 52.203125 
Q 14.9375 54.109375 19.578125 55.046875 
Q 24.21875 56 28.609375 56 
Q 40.484375 56 46.34375 49.84375 
Q 52.203125 43.703125 52.203125 31.203125 
z
" id="DejaVuSans-97"/>
       <path d="M 9.421875 75.984375 
L 18.40625 75.984375 
L 18.40625 0 
L 9.421875 0 
z
" id="DejaVuSans-108"/>
       <path d="M 8.5 21.578125 
L 8.5 54.6875 
L 17.484375 54.6875 
L 17.484375 21.921875 
Q 17.484375 14.15625 20.5 10.265625 
Q 23.53125 6.390625 29.59375 6.390625 
Q 36.859375 6.390625 41.078125 11.03125 
Q 45.3125 15.671875 45.3125 23.6875 
L 45.3125 54.6875 
L 54.296875 54.6875 
L 54.296875 0 
L 45.3125 0 
L 45.3125 8.40625 
Q 42.046875 3.421875 37.71875 1 
Q 33.40625 -1.421875 27.6875 -1.421875 
Q 18.265625 -1.421875 13.375 4.4375 
Q 8.5 10.296875 8.5 21.578125 
z
M 31.109375 56 
z
" id="DejaVuSans-117"/>
       <path d="M 56.203125 29.59375 
L 56.203125 25.203125 
L 14.890625 25.203125 
Q 15.484375 15.921875 20.484375 11.0625 
Q 25.484375 6.203125 34.421875 6.203125 
Q 39.59375 6.203125 44.453125 7.46875 
Q 49.3125 8.734375 54.109375 11.28125 
L 54.109375 2.78125 
Q 49.265625 0.734375 44.1875 -0.34375 
Q 39.109375 -1.421875 33.890625 -1.421875 
Q 20.796875 -1.421875 13.15625 6.1875 
Q 5.515625 13.8125 5.515625 26.8125 
Q 5.515625 40.234375 12.765625 48.109375 
Q 20.015625 56 32.328125 56 
Q 43.359375 56 49.78125 48.890625 
Q 56.203125 41.796875 56.203125 29.59375 
z
M 47.21875 32.234375 
Q 47.125 39.59375 43.09375 43.984375 
Q 39.0625 48.390625 32.421875 48.390625 
Q 24.90625 48.390625 20.390625 44.140625 
Q 15.875 39.890625 15.1875 32.171875 
z
" id="DejaVuSans-101"/>
       <path d="M 44.28125 53.078125 
L 44.28125 44.578125 
Q 40.484375 46.53125 36.375 47.5 
Q 32.28125 48.484375 27.875 48.484375 
Q 21.1875 48.484375 17.84375 46.4375 
Q 14.5 44.390625 14.5 40.28125 
Q 14.5 37.15625 16.890625 35.375 
Q 19.28125 33.59375 26.515625 31.984375 
L 29.59375 31.296875 
Q 39.15625 29.25 43.1875 25.515625 
Q 47.21875 21.78125 47.21875 15.09375 
Q 47.21875 7.46875 41.1875 3.015625 
Q 35.15625 -1.421875 24.609375 -1.421875 
Q 20.21875 -1.421875 15.453125 -0.5625 
Q 10.6875 0.296875 5.421875 2 
L 5.421875 11.28125 
Q 10.40625 8.6875 15.234375 7.390625 
Q 20.0625 6.109375 24.8125 6.109375 
Q 31.15625 6.109375 34.5625 8.28125 
Q 37.984375 10.453125 37.984375 14.40625 
Q 37.984375 18.0625 35.515625 20.015625 
Q 33.0625 21.96875 24.703125 23.78125 
L 21.578125 24.515625 
Q 13.234375 26.265625 9.515625 29.90625 
Q 5.8125 33.546875 5.8125 39.890625 
Q 5.8125 47.609375 11.28125 51.796875 
Q 16.75 56 26.8125 56 
Q 31.78125 56 36.171875 55.265625 
Q 40.578125 54.546875 44.28125 53.078125 
z
" id="DejaVuSans-115"/>
      </defs>
      <use xlink:href="#DejaVuSans-118"/>
      <use x="59.179688" xlink:href="#DejaVuSans-97"/>
      <use x="120.458984" xlink:href="#DejaVuSans-108"/>
      <use x="148.242188" xlink:href="#DejaVuSans-117"/>
      <use x="211.621094" xlink:href="#DejaVuSans-101"/>
      <use x="273.144531" xlink:href="#DejaVuSans-115"/>
     </g>
    </g>
   </g>
   <g id="matplotlib.axis_2">
    <g id="ytick_1">
     <g id="line2d_13">
      <path clip-path="url(#p4417844e04)" d="M 57.6 307.584 
L 414.72 307.584 
" style="fill:none;stroke:#b0b0b0;stroke-linecap:square;stroke-width:0.8;"/>
     </g>
     <g id="line2d_14">
      <defs>
       <path d="M 0 0 
L -3.5 0 
" id="m97eed9a7bd" style="stroke:#000000;stroke-width:0.8;"/>
      </defs>
      <g>
       <use style="stroke:#000000;stroke-width:0.8;" x="57.6" xlink:href="#m97eed9a7bd" y="307.584"/>
      </g>
     </g>
     <g id="text_8">
      <!-- 0.000 -->
      <g transform="translate(21.971875 311.383219)scale(0.1 -0.1)">
       <defs>
        <path d="M 10.6875 12.40625 
L 21 12.40625 
L 21 0 
L 10.6875 0 
z
" id="DejaVuSans-46"/>
       </defs>
       <use xlink:href="#DejaVuSans-48"/>
       <use x="63.623047" xlink:href="#DejaVuSans-46"/>
       <use x="95.410156" xlink:href="#DejaVuSans-48"/>
       <use x="159.033203" xlink:href="#DejaVuSans-48"/>
       <use x="222.65625" xlink:href="#DejaVuSans-48"/>
      </g>
     </g>
    </g>
    <g id="ytick_2">
     <g id="line2d_15">
      <path clip-path="url(#p4417844e04)" d="M 57.6 275.012056 
L 414.72 275.012056 
" style="fill:none;stroke:#b0b0b0;stroke-linecap:square;stroke-width:0.8;"/>
     </g>
     <g id="line2d_16">
      <g>
       <use style="stroke:#000000;stroke-width:0.8;" x="57.6" xlink:href="#m97eed9a7bd" y="275.012056"/>
      </g>
     </g>
     <g id="text_9">
      <!-- 0.005 -->
      <g transform="translate(21.971875 278.811275)scale(0.1 -0.1)">
       <use xlink:href="#DejaVuSans-48"/>
       <use x="63.623047" xlink:href="#DejaVuSans-46"/>
       <use x="95.410156" xlink:href="#DejaVuSans-48"/>
       <use x="159.033203" xlink:href="#DejaVuSans-48"/>
       <use x="222.65625" xlink:href="#DejaVuSans-53"/>
      </g>
     </g>
    </g>
    <g id="ytick_3">
     <g id="line2d_17">
      <path clip-path="url(#p4417844e04)" d="M 57.6 242.440112 
L 414.72 242.440112 
" style="fill:none;stroke:#b0b0b0;stroke-linecap:square;stroke-width:0.8;"/>
     </g>
     <g id="line2d_18">
      <g>
       <use style="stroke:#000000;stroke-width:0.8;" x="57.6" xlink:href="#m97eed9a7bd" y="242.440112"/>
      </g>
     </g>
     <g id="text_10">
      <!-- 0.010 -->
      <g transform="translate(21.971875 246.239331)scale(0.1 -0.1)">
       <use xlink:href="#DejaVuSans-48"/>
       <use x="63.623047" xlink:href="#DejaVuSans-46"/>
       <use x="95.410156" xlink:href="#DejaVuSans-48"/>
       <use x="159.033203" xlink:href="#DejaVuSans-49"/>
       <use x="222.65625" xlink:href="#DejaVuSans-48"/>
      </g>
     </g>
    </g>
    <g id="ytick_4">
     <g id="line2d_19">
      <path clip-path="url(#p4417844e04)" d="M 57.6 209.868168 
L 414.72 209.868168 
" style="fill:none;stroke:#b0b0b0;stroke-linecap:square;stroke-width:0.8;"/>
     </g>
     <g id="line2d_20">
      <g>
       <use style="stroke:#000000;stroke-width:0.8;" x="57.6" xlink:href="#m97eed9a7bd" y="209.868168"/>
      </g>
     </g>
     <g id="text_11">
      <!-- 0.015 -->
      <g transform="translate(21.971875 213.667386)scale(0.1 -0.1)">
       <use xlink:href="#DejaVuSans-48"/>
       <use x="63.623047" xlink:href="#DejaVuSans-46"/>
       <use x="95.410156" xlink:href="#DejaVuSans-48"/>
       <use x="159.033203" xlink:href="#DejaVuSans-49"/>
       <use x="222.65625" xlink:href="#DejaVuSans-53"/>
      </g>
     </g>
    </g>
    <g id="ytick_5">
     <g id="line2d_21">
      <path clip-path="url(#p4417844e04)" d="M 57.6 177.296224 
L 414.72 177.296224 
" style="fill:none;stroke:#b0b0b0;stroke-linecap:square;stroke-width:0.8;"/>
     </g>
     <g id="line2d_22">
      <g>
       <use style="stroke:#000000;stroke-width:0.8;" x="57.6" xlink:href="#m97eed9a7bd" y="177.296224"/>
      </g>
     </g>
     <g id="text_12">
      <!-- 0.020 -->
      <g transform="translate(21.971875 181.095442)scale(0.1 -0.1)">
       <use xlink:href="#DejaVuSans-48"/>
       <use x="63.623047" xlink:href="#DejaVuSans-46"/>
       <use x="95.410156" xlink:href="#DejaVuSans-48"/>
       <use x="159.033203" xlink:href="#DejaVuSans-50"/>
       <use x="222.65625" xlink:href="#DejaVuSans-48"/>
      </g>
     </g>
    </g>
    <g id="ytick_6">
     <g id="line2d_23">
      <path clip-path="url(#p4417844e04)" d="M 57.6 144.724279 
L 414.72 144.724279 
" style="fill:none;stroke:#b0b0b0;stroke-linecap:square;stroke-width:0.8;"/>
     </g>
     <g id="line2d_24">
      <g>
       <use style="stroke:#000000;stroke-width:0.8;" x="57.6" xlink:href="#m97eed9a7bd" y="144.724279"/>
      </g>
     </g>
     <g id="text_13">
      <!-- 0.025 -->
      <g transform="translate(21.971875 148.523498)scale(0.1 -0.1)">
       <use xlink:href="#DejaVuSans-48"/>
       <use x="63.623047" xlink:href="#DejaVuSans-46"/>
       <use x="95.410156" xlink:href="#DejaVuSans-48"/>
       <use x="159.033203" xlink:href="#DejaVuSans-50"/>
       <use x="222.65625" xlink:href="#DejaVuSans-53"/>
      </g>
     </g>
    </g>
    <g id="ytick_7">
     <g id="line2d_25">
      <path clip-path="url(#p4417844e04)" d="M 57.6 112.152335 
L 414.72 112.152335 
" style="fill:none;stroke:#b0b0b0;stroke-linecap:square;stroke-width:0.8;"/>
     </g>
     <g id="line2d_26">
      <g>
       <use style="stroke:#000000;stroke-width:0.8;" x="57.6" xlink:href="#m97eed9a7bd" y="112.152335"/>
      </g>
     </g>
     <g id="text_14">
      <!-- 0.030 -->
      <g transform="translate(21.971875 115.951554)scale(0.1 -0.1)">
       <defs>
        <path d="M 40.578125 39.3125 
Q 47.65625 37.796875 51.625 33 
Q 55.609375 28.21875 55.609375 21.1875 
Q 55.609375 10.40625 48.1875 4.484375 
Q 40.765625 -1.421875 27.09375 -1.421875 
Q 22.515625 -1.421875 17.65625 -0.515625 
Q 12.796875 0.390625 7.625 2.203125 
L 7.625 11.71875 
Q 11.71875 9.328125 16.59375 8.109375 
Q 21.484375 6.890625 26.8125 6.890625 
Q 36.078125 6.890625 40.9375 10.546875 
Q 45.796875 14.203125 45.796875 21.1875 
Q 45.796875 27.640625 41.28125 31.265625 
Q 36.765625 34.90625 28.71875 34.90625 
L 20.21875 34.90625 
L 20.21875 43.015625 
L 29.109375 43.015625 
Q 36.375 43.015625 40.234375 45.921875 
Q 44.09375 48.828125 44.09375 54.296875 
Q 44.09375 59.90625 40.109375 62.90625 
Q 36.140625 65.921875 28.71875 65.921875 
Q 24.65625 65.921875 20.015625 65.03125 
Q 15.375 64.15625 9.8125 62.3125 
L 9.8125 71.09375 
Q 15.4375 72.65625 20.34375 73.4375 
Q 25.25 74.21875 29.59375 74.21875 
Q 40.828125 74.21875 47.359375 69.109375 
Q 53.90625 64.015625 53.90625 55.328125 
Q 53.90625 49.265625 50.4375 45.09375 
Q 46.96875 40.921875 40.578125 39.3125 
z
" id="DejaVuSans-51"/>
       </defs>
       <use xlink:href="#DejaVuSans-48"/>
       <use x="63.623047" xlink:href="#DejaVuSans-46"/>
       <use x="95.410156" xlink:href="#DejaVuSans-48"/>
       <use x="159.033203" xlink:href="#DejaVuSans-51"/>
       <use x="222.65625" xlink:href="#DejaVuSans-48"/>
      </g>
     </g>
    </g>
    <g id="ytick_8">
     <g id="line2d_27">
      <path clip-path="url(#p4417844e04)" d="M 57.6 79.580391 
L 414.72 79.580391 
" style="fill:none;stroke:#b0b0b0;stroke-linecap:square;stroke-width:0.8;"/>
     </g>
     <g id="line2d_28">
      <g>
       <use style="stroke:#000000;stroke-width:0.8;" x="57.6" xlink:href="#m97eed9a7bd" y="79.580391"/>
      </g>
     </g>
     <g id="text_15">
      <!-- 0.035 -->
      <g transform="translate(21.971875 83.37961)scale(0.1 -0.1)">
       <use xlink:href="#DejaVuSans-48"/>
       <use x="63.623047" xlink:href="#DejaVuSans-46"/>
       <use x="95.410156" xlink:href="#DejaVuSans-48"/>
       <use x="159.033203" xlink:href="#DejaVuSans-51"/>
       <use x="222.65625" xlink:href="#DejaVuSans-53"/>
      </g>
     </g>
    </g>
    <g id="ytick_9">
     <g id="line2d_29">
      <path clip-path="url(#p4417844e04)" d="M 57.6 47.008447 
L 414.72 47.008447 
" style="fill:none;stroke:#b0b0b0;stroke-linecap:square;stroke-width:0.8;"/>
     </g>
     <g id="line2d_30">
      <g>
       <use style="stroke:#000000;stroke-width:0.8;" x="57.6" xlink:href="#m97eed9a7bd" y="47.008447"/>
      </g>
     </g>
     <g id="text_16">
      <!-- 0.040 -->
      <g transform="translate(21.971875 50.807666)scale(0.1 -0.1)">
       <defs>
        <path d="M 37.796875 64.3125 
L 12.890625 25.390625 
L 37.796875 25.390625 
z
M 35.203125 72.90625 
L 47.609375 72.90625 
L 47.609375 25.390625 
L 58.015625 25.390625 
L 58.015625 17.1875 
L 47.609375 17.1875 
L 47.609375 0 
L 37.796875 0 
L 37.796875 17.1875 
L 4.890625 17.1875 
L 4.890625 26.703125 
z
" id="DejaVuSans-52"/>
       </defs>
       <use xlink:href="#DejaVuSans-48"/>
       <use x="63.623047" xlink:href="#DejaVuSans-46"/>
       <use x="95.410156" xlink:href="#DejaVuSans-48"/>
       <use x="159.033203" xlink:href="#DejaVuSans-52"/>
       <use x="222.65625" xlink:href="#DejaVuSans-48"/>
      </g>
     </g>
    </g>
    <g id="text_17">
     <!-- Probability -->
     <g transform="translate(15.892187 200.956906)rotate(-90)scale(0.1 -0.1)">
      <defs>
       <path d="M 19.671875 64.796875 
L 19.671875 37.40625 
L 32.078125 37.40625 
Q 38.96875 37.40625 42.71875 40.96875 
Q 46.484375 44.53125 46.484375 51.125 
Q 46.484375 57.671875 42.71875 61.234375 
Q 38.96875 64.796875 32.078125 64.796875 
z
M 9.8125 72.90625 
L 32.078125 72.90625 
Q 44.34375 72.90625 50.609375 67.359375 
Q 56.890625 61.8125 56.890625 51.125 
Q 56.890625 40.328125 50.609375 34.8125 
Q 44.34375 29.296875 32.078125 29.296875 
L 19.671875 29.296875 
L 19.671875 0 
L 9.8125 0 
z
" id="DejaVuSans-80"/>
       <path d="M 41.109375 46.296875 
Q 39.59375 47.171875 37.8125 47.578125 
Q 36.03125 48 33.890625 48 
Q 26.265625 48 22.1875 43.046875 
Q 18.109375 38.09375 18.109375 28.8125 
L 18.109375 0 
L 9.078125 0 
L 9.078125 54.6875 
L 18.109375 54.6875 
L 18.109375 46.1875 
Q 20.953125 51.171875 25.484375 53.578125 
Q 30.03125 56 36.53125 56 
Q 37.453125 56 38.578125 55.875 
Q 39.703125 55.765625 41.0625 55.515625 
z
" id="DejaVuSans-114"/>
       <path d="M 30.609375 48.390625 
Q 23.390625 48.390625 19.1875 42.75 
Q 14.984375 37.109375 14.984375 27.296875 
Q 14.984375 17.484375 19.15625 11.84375 
Q 23.34375 6.203125 30.609375 6.203125 
Q 37.796875 6.203125 41.984375 11.859375 
Q 46.1875 17.53125 46.1875 27.296875 
Q 46.1875 37.015625 41.984375 42.703125 
Q 37.796875 48.390625 30.609375 48.390625 
z
M 30.609375 56 
Q 42.328125 56 49.015625 48.375 
Q 55.71875 40.765625 55.71875 27.296875 
Q 55.71875 13.875 49.015625 6.21875 
Q 42.328125 -1.421875 30.609375 -1.421875 
Q 18.84375 -1.421875 12.171875 6.21875 
Q 5.515625 13.875 5.515625 27.296875 
Q 5.515625 40.765625 12.171875 48.375 
Q 18.84375 56 30.609375 56 
z
" id="DejaVuSans-111"/>
       <path d="M 48.6875 27.296875 
Q 48.6875 37.203125 44.609375 42.84375 
Q 40.53125 48.484375 33.40625 48.484375 
Q 26.265625 48.484375 22.1875 42.84375 
Q 18.109375 37.203125 18.109375 27.296875 
Q 18.109375 17.390625 22.1875 11.75 
Q 26.265625 6.109375 33.40625 6.109375 
Q 40.53125 6.109375 44.609375 11.75 
Q 48.6875 17.390625 48.6875 27.296875 
z
M 18.109375 46.390625 
Q 20.953125 51.265625 25.265625 53.625 
Q 29.59375 56 35.59375 56 
Q 45.5625 56 51.78125 48.09375 
Q 58.015625 40.1875 58.015625 27.296875 
Q 58.015625 14.40625 51.78125 6.484375 
Q 45.5625 -1.421875 35.59375 -1.421875 
Q 29.59375 -1.421875 25.265625 0.953125 
Q 20.953125 3.328125 18.109375 8.203125 
L 18.109375 0 
L 9.078125 0 
L 9.078125 75.984375 
L 18.109375 75.984375 
z
" id="DejaVuSans-98"/>
       <path d="M 9.421875 54.6875 
L 18.40625 54.6875 
L 18.40625 0 
L 9.421875 0 
z
M 9.421875 75.984375 
L 18.40625 75.984375 
L 18.40625 64.59375 
L 9.421875 64.59375 
z
" id="DejaVuSans-105"/>
       <path d="M 18.3125 70.21875 
L 18.3125 54.6875 
L 36.8125 54.6875 
L 36.8125 47.703125 
L 18.3125 47.703125 
L 18.3125 18.015625 
Q 18.3125 11.328125 20.140625 9.421875 
Q 21.96875 7.515625 27.59375 7.515625 
L 36.8125 7.515625 
L 36.8125 0 
L 27.59375 0 
Q 17.1875 0 13.234375 3.875 
Q 9.28125 7.765625 9.28125 18.015625 
L 9.28125 47.703125 
L 2.6875 47.703125 
L 2.6875 54.6875 
L 9.28125 54.6875 
L 9.28125 70.21875 
z
" id="DejaVuSans-116"/>
       <path d="M 32.171875 -5.078125 
Q 28.375 -14.84375 24.75 -17.8125 
Q 21.140625 -20.796875 15.09375 -20.796875 
L 7.90625 -20.796875 
L 7.90625 -13.28125 
L 13.1875 -13.28125 
Q 16.890625 -13.28125 18.9375 -11.515625 
Q 21 -9.765625 23.484375 -3.21875 
L 25.09375 0.875 
L 2.984375 54.6875 
L 12.5 54.6875 
L 29.59375 11.921875 
L 46.6875 54.6875 
L 56.203125 54.6875 
z
" id="DejaVuSans-121"/>
      </defs>
      <use xlink:href="#DejaVuSans-80"/>
      <use x="58.552734" xlink:href="#DejaVuSans-114"/>
      <use x="97.416016" xlink:href="#DejaVuSans-111"/>
      <use x="158.597656" xlink:href="#DejaVuSans-98"/>
      <use x="222.074219" xlink:href="#DejaVuSans-97"/>
      <use x="283.353516" xlink:href="#DejaVuSans-98"/>
      <use x="346.830078" xlink:href="#DejaVuSans-105"/>
      <use x="374.613281" xlink:href="#DejaVuSans-108"/>
      <use x="402.396484" xlink:href="#DejaVuSans-105"/>
      <use x="430.179688" xlink:href="#DejaVuSans-116"/>
      <use x="469.388672" xlink:href="#DejaVuSans-121"/>
     </g>
    </g>
   </g>
   <g id="line2d_31">
    <path clip-path="url(#p4417844e04)" d="M 152.893277 306.47085 
L 155.267427 305.876635 
L 157.245878 305.179204 
L 159.224329 304.239563 
L 160.807103 303.269263 
L 162.389866 302.062457 
L 163.972629 300.575229 
L 165.555392 298.759326 
L 167.138155 296.562751 
L 168.720918 293.930678 
L 170.30368 290.806733 
L 171.886443 287.134653 
L 173.469206 282.860324 
L 175.05198 277.93415 
L 176.634743 272.313892 
L 178.217506 265.967415 
L 180.195957 256.985884 
L 182.174419 246.841114 
L 184.15287 235.581292 
L 186.52702 220.747222 
L 189.296858 202.00093 
L 198.002059 141.579172 
L 199.98051 129.790384 
L 201.563273 121.466445 
L 203.146036 114.327607 
L 204.333111 109.850276 
L 205.520186 106.190707 
L 206.707261 103.397681 
L 207.498637 102.036158 
L 208.290024 101.084941 
L 209.0814 100.54982 
L 209.872787 100.434031 
L 210.664163 100.73828 
L 211.45555 101.460727 
L 212.246937 102.596986 
L 213.038313 104.140159 
L 213.8297 106.080992 
L 215.016775 109.711765 
L 216.203839 114.162094 
L 217.390914 119.373535 
L 218.973677 127.388527 
L 220.952139 138.86563 
L 223.326278 154.265271 
L 226.887503 179.240291 
L 232.03148 215.256195 
L 234.801317 232.958131 
L 237.175478 246.621796 
L 239.153929 256.789976 
L 241.13238 265.795445 
L 243.110831 273.63752 
L 244.693605 279.098825 
L 246.276357 283.874662 
L 247.859131 288.009334 
L 249.441883 291.553556 
L 251.024657 294.562196 
L 252.607409 297.091636 
L 254.190183 299.198105 
L 254.190183 299.198105 
" style="fill:none;stroke:#ff0000;stroke-dasharray:5.55,2.4;stroke-dashoffset:0;stroke-width:1.5;"/>
   </g>
   <g id="patch_259">
    <path d="M 57.6 307.584 
L 57.6 41.472 
" style="fill:none;stroke:#000000;stroke-linecap:square;stroke-linejoin:miter;stroke-width:0.8;"/>
   </g>
   <g id="patch_260">
    <path d="M 414.72 307.584 
L 414.72 41.472 
" style="fill:none;stroke:#000000;stroke-linecap:square;stroke-linejoin:miter;stroke-width:0.8;"/>
   </g>
   <g id="patch_261">
    <path d="M 57.6 307.584 
L 414.72 307.584 
" style="fill:none;stroke:#000000;stroke-linecap:square;stroke-linejoin:miter;stroke-width:0.8;"/>
   </g>
   <g id="patch_262">
    <path d="M 57.6 41.472 
L 414.72 41.472 
" style="fill:none;stroke:#000000;stroke-linecap:square;stroke-linejoin:miter;stroke-width:0.8;"/>
   </g>
   <g id="text_18">
    <!-- Histogram : $\mu$=108.6 $\sigma=$12.55 -->
    <g transform="translate(142.92 35.472)scale(0.12 -0.12)">
     <defs>
      <path d="M 9.8125 72.90625 
L 19.671875 72.90625 
L 19.671875 43.015625 
L 55.515625 43.015625 
L 55.515625 72.90625 
L 65.375 72.90625 
L 65.375 0 
L 55.515625 0 
L 55.515625 34.71875 
L 19.671875 34.71875 
L 19.671875 0 
L 9.8125 0 
z
" id="DejaVuSans-72"/>
      <path d="M 45.40625 27.984375 
Q 45.40625 37.75 41.375 43.109375 
Q 37.359375 48.484375 30.078125 48.484375 
Q 22.859375 48.484375 18.828125 43.109375 
Q 14.796875 37.75 14.796875 27.984375 
Q 14.796875 18.265625 18.828125 12.890625 
Q 22.859375 7.515625 30.078125 7.515625 
Q 37.359375 7.515625 41.375 12.890625 
Q 45.40625 18.265625 45.40625 27.984375 
z
M 54.390625 6.78125 
Q 54.390625 -7.171875 48.1875 -13.984375 
Q 42 -20.796875 29.203125 -20.796875 
Q 24.46875 -20.796875 20.265625 -20.09375 
Q 16.0625 -19.390625 12.109375 -17.921875 
L 12.109375 -9.1875 
Q 16.0625 -11.328125 19.921875 -12.34375 
Q 23.78125 -13.375 27.78125 -13.375 
Q 36.625 -13.375 41.015625 -8.765625 
Q 45.40625 -4.15625 45.40625 5.171875 
L 45.40625 9.625 
Q 42.625 4.78125 38.28125 2.390625 
Q 33.9375 0 27.875 0 
Q 17.828125 0 11.671875 7.65625 
Q 5.515625 15.328125 5.515625 27.984375 
Q 5.515625 40.671875 11.671875 48.328125 
Q 17.828125 56 27.875 56 
Q 33.9375 56 38.28125 53.609375 
Q 42.625 51.21875 45.40625 46.390625 
L 45.40625 54.6875 
L 54.390625 54.6875 
z
" id="DejaVuSans-103"/>
      <path d="M 52 44.1875 
Q 55.375 50.25 60.0625 53.125 
Q 64.75 56 71.09375 56 
Q 79.640625 56 84.28125 50.015625 
Q 88.921875 44.046875 88.921875 33.015625 
L 88.921875 0 
L 79.890625 0 
L 79.890625 32.71875 
Q 79.890625 40.578125 77.09375 44.375 
Q 74.3125 48.1875 68.609375 48.1875 
Q 61.625 48.1875 57.5625 43.546875 
Q 53.515625 38.921875 53.515625 30.90625 
L 53.515625 0 
L 44.484375 0 
L 44.484375 32.71875 
Q 44.484375 40.625 41.703125 44.40625 
Q 38.921875 48.1875 33.109375 48.1875 
Q 26.21875 48.1875 22.15625 43.53125 
Q 18.109375 38.875 18.109375 30.90625 
L 18.109375 0 
L 9.078125 0 
L 9.078125 54.6875 
L 18.109375 54.6875 
L 18.109375 46.1875 
Q 21.1875 51.21875 25.484375 53.609375 
Q 29.78125 56 35.6875 56 
Q 41.65625 56 45.828125 52.96875 
Q 50 49.953125 52 44.1875 
z
" id="DejaVuSans-109"/>
      <path id="DejaVuSans-32"/>
      <path d="M 11.71875 12.40625 
L 22.015625 12.40625 
L 22.015625 0 
L 11.71875 0 
z
M 11.71875 51.703125 
L 22.015625 51.703125 
L 22.015625 39.3125 
L 11.71875 39.3125 
z
" id="DejaVuSans-58"/>
      <path d="M -1.3125 -20.796875 
L 13.375 54.6875 
L 22.40625 54.6875 
L 15.765625 20.65625 
Q 15.578125 19.625 15.421875 18.359375 
Q 15.28125 17.09375 15.28125 15.828125 
Q 15.28125 11.28125 18.140625 8.828125 
Q 21 6.390625 26.3125 6.390625 
Q 33.546875 6.390625 37.984375 10.484375 
Q 42.4375 14.59375 44 22.796875 
L 50.203125 54.6875 
L 59.1875 54.6875 
L 51.03125 12.640625 
Q 50.828125 11.71875 50.75 11.03125 
Q 50.6875 10.359375 50.6875 9.8125 
Q 50.6875 8.296875 51.296875 7.59375 
Q 51.90625 6.890625 53.21875 6.890625 
Q 53.71875 6.890625 54.5625 7.125 
Q 55.421875 7.375 56.984375 8.015625 
L 55.609375 0.78125 
Q 53.46875 -0.296875 51.515625 -0.859375 
Q 49.5625 -1.421875 47.703125 -1.421875 
Q 44.484375 -1.421875 42.65625 0.625 
Q 40.828125 2.6875 40.828125 6.296875 
Q 38.09375 2.390625 34.296875 0.484375 
Q 30.515625 -1.421875 25.390625 -1.421875 
Q 20.84375 -1.421875 17.453125 0.671875 
Q 14.0625 2.78125 12.984375 6.203125 
L 7.71875 -20.796875 
z
" id="DejaVuSans-Oblique-956"/>
      <path d="M 10.59375 45.40625 
L 73.1875 45.40625 
L 73.1875 37.203125 
L 10.59375 37.203125 
z
M 10.59375 25.484375 
L 73.1875 25.484375 
L 73.1875 17.1875 
L 10.59375 17.1875 
z
" id="DejaVuSans-61"/>
      <path d="M 31.78125 34.625 
Q 24.75 34.625 20.71875 30.859375 
Q 16.703125 27.09375 16.703125 20.515625 
Q 16.703125 13.921875 20.71875 10.15625 
Q 24.75 6.390625 31.78125 6.390625 
Q 38.8125 6.390625 42.859375 10.171875 
Q 46.921875 13.96875 46.921875 20.515625 
Q 46.921875 27.09375 42.890625 30.859375 
Q 38.875 34.625 31.78125 34.625 
z
M 21.921875 38.8125 
Q 15.578125 40.375 12.03125 44.71875 
Q 8.5 49.078125 8.5 55.328125 
Q 8.5 64.0625 14.71875 69.140625 
Q 20.953125 74.21875 31.78125 74.21875 
Q 42.671875 74.21875 48.875 69.140625 
Q 55.078125 64.0625 55.078125 55.328125 
Q 55.078125 49.078125 51.53125 44.71875 
Q 48 40.375 41.703125 38.8125 
Q 48.828125 37.15625 52.796875 32.3125 
Q 56.78125 27.484375 56.78125 20.515625 
Q 56.78125 9.90625 50.3125 4.234375 
Q 43.84375 -1.421875 31.78125 -1.421875 
Q 19.734375 -1.421875 13.25 4.234375 
Q 6.78125 9.90625 6.78125 20.515625 
Q 6.78125 27.484375 10.78125 32.3125 
Q 14.796875 37.15625 21.921875 38.8125 
z
M 18.3125 54.390625 
Q 18.3125 48.734375 21.84375 45.5625 
Q 25.390625 42.390625 31.78125 42.390625 
Q 38.140625 42.390625 41.71875 45.5625 
Q 45.3125 48.734375 45.3125 54.390625 
Q 45.3125 60.0625 41.71875 63.234375 
Q 38.140625 66.40625 31.78125 66.40625 
Q 25.390625 66.40625 21.84375 63.234375 
Q 18.3125 60.0625 18.3125 54.390625 
z
" id="DejaVuSans-56"/>
      <path d="M 33.015625 40.375 
Q 26.375 40.375 22.484375 35.828125 
Q 18.609375 31.296875 18.609375 23.390625 
Q 18.609375 15.53125 22.484375 10.953125 
Q 26.375 6.390625 33.015625 6.390625 
Q 39.65625 6.390625 43.53125 10.953125 
Q 47.40625 15.53125 47.40625 23.390625 
Q 47.40625 31.296875 43.53125 35.828125 
Q 39.65625 40.375 33.015625 40.375 
z
M 52.59375 71.296875 
L 52.59375 62.3125 
Q 48.875 64.0625 45.09375 64.984375 
Q 41.3125 65.921875 37.59375 65.921875 
Q 27.828125 65.921875 22.671875 59.328125 
Q 17.53125 52.734375 16.796875 39.40625 
Q 19.671875 43.65625 24.015625 45.921875 
Q 28.375 48.1875 33.59375 48.1875 
Q 44.578125 48.1875 50.953125 41.515625 
Q 57.328125 34.859375 57.328125 23.390625 
Q 57.328125 12.15625 50.6875 5.359375 
Q 44.046875 -1.421875 33.015625 -1.421875 
Q 20.359375 -1.421875 13.671875 8.265625 
Q 6.984375 17.96875 6.984375 36.375 
Q 6.984375 53.65625 15.1875 63.9375 
Q 23.390625 74.21875 37.203125 74.21875 
Q 40.921875 74.21875 44.703125 73.484375 
Q 48.484375 72.75 52.59375 71.296875 
z
" id="DejaVuSans-54"/>
      <path d="M 34.671875 47.5625 
Q 27.25 47.5625 22.21875 42.1875 
Q 16.890625 36.578125 15.140625 27.296875 
Q 13.1875 17.484375 16.3125 11.8125 
Q 19.390625 6.203125 26.65625 6.203125 
Q 33.84375 6.203125 39.109375 11.859375 
Q 44.4375 17.53125 46.34375 27.296875 
Q 48.046875 36.234375 45.015625 42.1875 
Q 42.1875 47.5625 34.671875 47.5625 
z
M 36.078125 54.734375 
L 65.921875 54.6875 
L 64.15625 45.703125 
L 54.109375 45.703125 
Q 57.90625 38.09375 55.859375 27.296875 
Q 53.21875 13.875 45.0625 6.25 
Q 36.859375 -1.421875 25.140625 -1.421875 
Q 13.375 -1.421875 8.203125 6.25 
Q 3.03125 13.875 5.671875 27.296875 
Q 8.25 40.765625 16.40625 48.390625 
Q 23.1875 54.734375 36.078125 54.734375 
z
" id="DejaVuSans-Oblique-963"/>
     </defs>
     <use transform="translate(0 0.015625)" xlink:href="#DejaVuSans-72"/>
     <use transform="translate(75.195312 0.015625)" xlink:href="#DejaVuSans-105"/>
     <use transform="translate(102.978516 0.015625)" xlink:href="#DejaVuSans-115"/>
     <use transform="translate(155.078125 0.015625)" xlink:href="#DejaVuSans-116"/>
     <use transform="translate(194.287109 0.015625)" xlink:href="#DejaVuSans-111"/>
     <use transform="translate(255.46875 0.015625)" xlink:href="#DejaVuSans-103"/>
     <use transform="translate(318.945312 0.015625)" xlink:href="#DejaVuSans-114"/>
     <use transform="translate(360.058594 0.015625)" xlink:href="#DejaVuSans-97"/>
     <use transform="translate(421.337891 0.015625)" xlink:href="#DejaVuSans-109"/>
     <use transform="translate(518.75 0.015625)" xlink:href="#DejaVuSans-32"/>
     <use transform="translate(550.537109 0.015625)" xlink:href="#DejaVuSans-58"/>
     <use transform="translate(584.228516 0.015625)" xlink:href="#DejaVuSans-32"/>
     <use transform="translate(616.015625 0.015625)" xlink:href="#DejaVuSans-Oblique-956"/>
     <use transform="translate(679.638672 0.015625)" xlink:href="#DejaVuSans-61"/>
     <use transform="translate(763.427734 0.015625)" xlink:href="#DejaVuSans-49"/>
     <use transform="translate(827.050781 0.015625)" xlink:href="#DejaVuSans-48"/>
     <use transform="translate(890.673828 0.015625)" xlink:href="#DejaVuSans-56"/>
     <use transform="translate(954.296875 0.015625)" xlink:href="#DejaVuSans-46"/>
     <use transform="translate(986.083984 0.015625)" xlink:href="#DejaVuSans-54"/>
     <use transform="translate(1049.707031 0.015625)" xlink:href="#DejaVuSans-32"/>
     <use transform="translate(1081.494141 0.015625)" xlink:href="#DejaVuSans-Oblique-963"/>
     <use transform="translate(1164.355469 0.015625)" xlink:href="#DejaVuSans-61"/>
     <use transform="translate(1267.626953 0.015625)" xlink:href="#DejaVuSans-49"/>
     <use transform="translate(1331.25 0.015625)" xlink:href="#DejaVuSans-50"/>
     <use transform="translate(1394.873047 0.015625)" xlink:href="#DejaVuSans-46"/>
     <use transform="translate(1426.660156 0.015625)" xlink:href="#DejaVuSans-53"/>
     <use transform="translate(1490.283203 0.015625)" xlink:href="#DejaVuSans-53"/>
    </g>
   </g>
  </g>
 </g>
 <defs>
  <clipPath id="p4417844e04">
   <rect height="266.112" width="357.12" x="57.6" y="41.472"/>
  </clipPath>
 </defs>
</svg>
