<?xml version="1.0" encoding="utf-8" standalone="no"?>
<!DOCTYPE svg PUBLIC "-//W3C//DTD SVG 1.1//EN"
  "http://www.w3.org/Graphics/SVG/1.1/DTD/svg11.dtd">
<!-- Created with matplotlib (https://matplotlib.org/) -->
<svg height="345.6pt" version="1.1" viewBox="0 0 460.8 345.6" width="460.8pt" xmlns="http://www.w3.org/2000/svg" xmlns:xlink="http://www.w3.org/1999/xlink">
 <metadata>
  <rdf:RDF xmlns:cc="http://creativecommons.org/ns#" xmlns:dc="http://purl.org/dc/elements/1.1/" xmlns:rdf="http://www.w3.org/1999/02/22-rdf-syntax-ns#">
   <cc:Work>
    <dc:type rdf:resource="http://purl.org/dc/dcmitype/StillImage"/>
    <dc:date>2022-01-02T19:48:10.438946</dc:date>
    <dc:format>image/svg+xml</dc:format>
    <dc:creator>
     <cc:Agent>
      <dc:title>Matplotlib v3.3.3, https://matplotlib.org/</dc:title>
     </cc:Agent>
    </dc:creator>
   </cc:Work>
  </rdf:RDF>
 </metadata>
 <defs>
  <style type="text/css">*{stroke-linecap:butt;stroke-linejoin:round;}</style>
 </defs>
 <g id="figure_1">
  <g id="patch_1">
   <path d="M 0 345.6 
L 460.8 345.6 
L 460.8 0 
L 0 0 
z
" style="fill:#ffffff;"/>
  </g>
  <g id="axes_1">
   <g id="patch_2">
    <path d="M 57.6 307.584 
L 414.72 307.584 
L 414.72 41.472 
L 57.6 41.472 
z
" style="fill:#ffffff;"/>
   </g>
   <g id="patch_3">
    <path clip-path="url(#p12abc189e8)" d="M 73.832727 307.584 
L 75.1009 307.584 
L 75.1009 306.414664 
L 73.832727 306.414664 
z
" style="fill:#1f77b4;opacity:0.75;"/>
   </g>
   <g id="patch_4">
    <path clip-path="url(#p12abc189e8)" d="M 75.100865 307.584 
L 76.369072 307.584 
L 76.369072 304.130726 
L 75.100865 304.130726 
z
" style="fill:#1f77b4;opacity:0.75;"/>
   </g>
   <g id="patch_5">
    <path clip-path="url(#p12abc189e8)" d="M 76.369072 307.584 
L 77.637245 307.584 
L 77.637245 301.671748 
L 76.369072 301.671748 
z
" style="fill:#1f77b4;opacity:0.75;"/>
   </g>
   <g id="patch_6">
    <path clip-path="url(#p12abc189e8)" d="M 77.637279 307.584 
L 78.905451 307.584 
L 78.905451 300.327557 
L 77.637279 300.327557 
z
" style="fill:#1f77b4;opacity:0.75;"/>
   </g>
   <g id="patch_7">
    <path clip-path="url(#p12abc189e8)" d="M 78.905417 307.584 
L 80.17359 307.584 
L 80.17359 300.185489 
L 78.905417 300.185489 
z
" style="fill:#1f77b4;opacity:0.75;"/>
   </g>
   <g id="patch_8">
    <path clip-path="url(#p12abc189e8)" d="M 80.17359 307.584 
L 81.441796 307.584 
L 81.441796 299.224017 
L 80.17359 299.224017 
z
" style="fill:#1f77b4;opacity:0.75;"/>
   </g>
   <g id="patch_9">
    <path clip-path="url(#p12abc189e8)" d="M 81.44183 307.584 
L 82.710003 307.584 
L 82.710003 297.114614 
L 81.44183 297.114614 
z
" style="fill:#1f77b4;opacity:0.75;"/>
   </g>
   <g id="patch_10">
    <path clip-path="url(#p12abc189e8)" d="M 82.709969 307.584 
L 83.978141 307.584 
L 83.978141 291.442787 
L 82.709969 291.442787 
z
" style="fill:#1f77b4;opacity:0.75;"/>
   </g>
   <g id="patch_11">
    <path clip-path="url(#p12abc189e8)" d="M 83.978175 307.584 
L 85.246348 307.584 
L 85.246348 290.109525 
L 83.978175 290.109525 
z
" style="fill:#1f77b4;opacity:0.75;"/>
   </g>
   <g id="patch_12">
    <path clip-path="url(#p12abc189e8)" d="M 85.246314 307.584 
L 86.51452 307.584 
L 86.51452 288.197582 
L 85.246314 288.197582 
z
" style="fill:#1f77b4;opacity:0.75;"/>
   </g>
   <g id="patch_13">
    <path clip-path="url(#p12abc189e8)" d="M 86.51452 307.584 
L 87.782693 307.584 
L 87.782693 288.295414 
L 86.51452 288.295414 
z
" style="fill:#1f77b4;opacity:0.75;"/>
   </g>
   <g id="patch_14">
    <path clip-path="url(#p12abc189e8)" d="M 87.782727 307.584 
L 89.050899 307.584 
L 89.050899 287.322788 
L 87.782727 287.322788 
z
" style="fill:#1f77b4;opacity:0.75;"/>
   </g>
   <g id="patch_15">
    <path clip-path="url(#p12abc189e8)" d="M 89.050865 307.584 
L 90.319072 307.584 
L 90.319072 282.6789 
L 89.050865 282.6789 
z
" style="fill:#1f77b4;opacity:0.75;"/>
   </g>
   <g id="patch_16">
    <path clip-path="url(#p12abc189e8)" d="M 90.319072 307.584 
L 91.587244 307.584 
L 91.587244 285.344752 
L 90.319072 285.344752 
z
" style="fill:#1f77b4;opacity:0.75;"/>
   </g>
   <g id="patch_17">
    <path clip-path="url(#p12abc189e8)" d="M 91.587279 307.584 
L 92.855451 307.584 
L 92.855451 283.694567 
L 91.587279 283.694567 
z
" style="fill:#1f77b4;opacity:0.75;"/>
   </g>
   <g id="patch_18">
    <path clip-path="url(#p12abc189e8)" d="M 92.855417 307.584 
L 94.123589 307.584 
L 94.123589 285.978598 
L 92.855417 285.978598 
z
" style="fill:#1f77b4;opacity:0.75;"/>
   </g>
   <g id="patch_19">
    <path clip-path="url(#p12abc189e8)" d="M 94.123589 307.584 
L 95.391796 307.584 
L 95.391796 287.159414 
L 94.123589 287.159414 
z
" style="fill:#1f77b4;opacity:0.75;"/>
   </g>
   <g id="patch_20">
    <path clip-path="url(#p12abc189e8)" d="M 95.39183 307.584 
L 96.660003 307.584 
L 96.660003 287.770852 
L 95.39183 287.770852 
z
" style="fill:#1f77b4;opacity:0.75;"/>
   </g>
   <g id="patch_21">
    <path clip-path="url(#p12abc189e8)" d="M 96.659968 307.584 
L 97.928141 307.584 
L 97.928141 287.639711 
L 96.659968 287.639711 
z
" style="fill:#1f77b4;opacity:0.75;"/>
   </g>
   <g id="patch_22">
    <path clip-path="url(#p12abc189e8)" d="M 97.928141 307.584 
L 99.196348 307.584 
L 99.196348 285.563914 
L 97.928141 285.563914 
z
" style="fill:#1f77b4;opacity:0.75;"/>
   </g>
   <g id="patch_23">
    <path clip-path="url(#p12abc189e8)" d="M 99.196382 307.584 
L 100.464554 307.584 
L 100.464554 285.257325 
L 99.196382 285.257325 
z
" style="fill:#1f77b4;opacity:0.75;"/>
   </g>
   <g id="patch_24">
    <path clip-path="url(#p12abc189e8)" d="M 100.46452 307.584 
L 101.732692 307.584 
L 101.732692 288.65605 
L 100.46452 288.65605 
z
" style="fill:#1f77b4;opacity:0.75;"/>
   </g>
   <g id="patch_25">
    <path clip-path="url(#p12abc189e8)" d="M 101.732727 307.584 
L 103.000899 307.584 
L 103.000899 288.131488 
L 101.732727 288.131488 
z
" style="fill:#1f77b4;opacity:0.75;"/>
   </g>
   <g id="patch_26">
    <path clip-path="url(#p12abc189e8)" d="M 103.000865 307.584 
L 104.269072 307.584 
L 104.269072 288.689346 
L 103.000865 288.689346 
z
" style="fill:#1f77b4;opacity:0.75;"/>
   </g>
   <g id="patch_27">
    <path clip-path="url(#p12abc189e8)" d="M 104.269072 307.584 
L 105.537244 307.584 
L 105.537244 289.442894 
L 104.269072 289.442894 
z
" style="fill:#1f77b4;opacity:0.75;"/>
   </g>
   <g id="patch_28">
    <path clip-path="url(#p12abc189e8)" d="M 105.537278 307.584 
L 106.805451 307.584 
L 106.805451 289.858172 
L 105.537278 289.858172 
z
" style="fill:#1f77b4;opacity:0.75;"/>
   </g>
   <g id="patch_29">
    <path clip-path="url(#p12abc189e8)" d="M 106.805417 307.584 
L 108.073589 307.584 
L 108.073589 289.781673 
L 106.805417 289.781673 
z
" style="fill:#1f77b4;opacity:0.75;"/>
   </g>
   <g id="patch_30">
    <path clip-path="url(#p12abc189e8)" d="M 108.073589 307.584 
L 109.341796 307.584 
L 109.341796 290.31763 
L 108.073589 290.31763 
z
" style="fill:#1f77b4;opacity:0.75;"/>
   </g>
   <g id="patch_31">
    <path clip-path="url(#p12abc189e8)" d="M 109.34183 307.584 
L 110.610002 307.584 
L 110.610002 290.011169 
L 109.34183 290.011169 
z
" style="fill:#1f77b4;opacity:0.75;"/>
   </g>
   <g id="patch_32">
    <path clip-path="url(#p12abc189e8)" d="M 110.609968 307.584 
L 111.878141 307.584 
L 111.878141 289.901885 
L 110.609968 289.901885 
z
" style="fill:#1f77b4;opacity:0.75;"/>
   </g>
   <g id="patch_33">
    <path clip-path="url(#p12abc189e8)" d="M 111.878141 307.584 
L 113.146347 307.584 
L 113.146347 290.044428 
L 111.878141 290.044428 
z
" style="fill:#1f77b4;opacity:0.75;"/>
   </g>
   <g id="patch_34">
    <path clip-path="url(#p12abc189e8)" d="M 113.146382 307.584 
L 114.414554 307.584 
L 114.414554 290.426448 
L 113.146382 290.426448 
z
" style="fill:#1f77b4;opacity:0.75;"/>
   </g>
   <g id="patch_35">
    <path clip-path="url(#p12abc189e8)" d="M 114.41452 307.584 
L 115.682692 307.584 
L 115.682692 290.175095 
L 114.41452 290.175095 
z
" style="fill:#1f77b4;opacity:0.75;"/>
   </g>
   <g id="patch_36">
    <path clip-path="url(#p12abc189e8)" d="M 115.682726 307.584 
L 116.950899 307.584 
L 116.950899 289.300825 
L 115.682726 289.300825 
z
" style="fill:#1f77b4;opacity:0.75;"/>
   </g>
   <g id="patch_37">
    <path clip-path="url(#p12abc189e8)" d="M 116.950865 307.584 
L 118.219071 307.584 
L 118.219071 288.678418 
L 116.950865 288.678418 
z
" style="fill:#1f77b4;opacity:0.75;"/>
   </g>
   <g id="patch_38">
    <path clip-path="url(#p12abc189e8)" d="M 118.219071 307.584 
L 119.487244 307.584 
L 119.487244 287.300932 
L 118.219071 287.300932 
z
" style="fill:#1f77b4;opacity:0.75;"/>
   </g>
   <g id="patch_39">
    <path clip-path="url(#p12abc189e8)" d="M 119.487278 307.584 
L 120.755451 307.584 
L 120.755451 288.284486 
L 119.487278 288.284486 
z
" style="fill:#1f77b4;opacity:0.75;"/>
   </g>
   <g id="patch_40">
    <path clip-path="url(#p12abc189e8)" d="M 120.755416 307.584 
L 122.023623 307.584 
L 122.023623 289.552664 
L 120.755416 289.552664 
z
" style="fill:#1f77b4;opacity:0.75;"/>
   </g>
   <g id="patch_41">
    <path clip-path="url(#p12abc189e8)" d="M 122.023623 307.584 
L 123.291795 307.584 
L 123.291795 289.836315 
L 122.023623 289.836315 
z
" style="fill:#1f77b4;opacity:0.75;"/>
   </g>
   <g id="patch_42">
    <path clip-path="url(#p12abc189e8)" d="M 123.29183 307.584 
L 124.560002 307.584 
L 124.560002 290.6778 
L 123.29183 290.6778 
z
" style="fill:#1f77b4;opacity:0.75;"/>
   </g>
   <g id="patch_43">
    <path clip-path="url(#p12abc189e8)" d="M 124.559968 307.584 
L 125.82814 307.584 
L 125.82814 290.666872 
L 124.559968 290.666872 
z
" style="fill:#1f77b4;opacity:0.75;"/>
   </g>
   <g id="patch_44">
    <path clip-path="url(#p12abc189e8)" d="M 125.82814 307.584 
L 127.096347 307.584 
L 127.096347 290.055356 
L 125.82814 290.055356 
z
" style="fill:#1f77b4;opacity:0.75;"/>
   </g>
   <g id="patch_45">
    <path clip-path="url(#p12abc189e8)" d="M 127.096381 307.584 
L 128.364554 307.584 
L 128.364554 288.732549 
L 127.096381 288.732549 
z
" style="fill:#1f77b4;opacity:0.75;"/>
   </g>
   <g id="patch_46">
    <path clip-path="url(#p12abc189e8)" d="M 128.36452 307.584 
L 129.632692 307.584 
L 129.632692 289.759816 
L 128.36452 289.759816 
z
" style="fill:#1f77b4;opacity:0.75;"/>
   </g>
   <g id="patch_47">
    <path clip-path="url(#p12abc189e8)" d="M 129.632726 307.584 
L 130.900899 307.584 
L 130.900899 289.584962 
L 129.632726 289.584962 
z
" style="fill:#1f77b4;opacity:0.75;"/>
   </g>
   <g id="patch_48">
    <path clip-path="url(#p12abc189e8)" d="M 130.900864 307.584 
L 132.169071 307.584 
L 132.169071 289.651017 
L 130.900864 289.651017 
z
" style="fill:#1f77b4;opacity:0.75;"/>
   </g>
   <g id="patch_49">
    <path clip-path="url(#p12abc189e8)" d="M 132.169071 307.584 
L 133.437244 307.584 
L 133.437244 287.475786 
L 132.169071 287.475786 
z
" style="fill:#1f77b4;opacity:0.75;"/>
   </g>
   <g id="patch_50">
    <path clip-path="url(#p12abc189e8)" d="M 133.437278 307.584 
L 134.70545 307.584 
L 134.70545 282.415947 
L 133.437278 282.415947 
z
" style="fill:#1f77b4;opacity:0.75;"/>
   </g>
   <g id="patch_51">
    <path clip-path="url(#p12abc189e8)" d="M 134.705416 307.584 
L 135.973623 307.584 
L 135.973623 265.139328 
L 134.705416 265.139328 
z
" style="fill:#1f77b4;opacity:0.75;"/>
   </g>
   <g id="patch_52">
    <path clip-path="url(#p12abc189e8)" d="M 135.973623 307.584 
L 137.241795 307.584 
L 137.241795 275.498284 
L 135.973623 275.498284 
z
" style="fill:#1f77b4;opacity:0.75;"/>
   </g>
   <g id="patch_53">
    <path clip-path="url(#p12abc189e8)" d="M 137.241829 307.584 
L 138.510002 307.584 
L 138.510002 275.421785 
L 137.241829 275.421785 
z
" style="fill:#1f77b4;opacity:0.75;"/>
   </g>
   <g id="patch_54">
    <path clip-path="url(#p12abc189e8)" d="M 138.509968 307.584 
L 139.77814 307.584 
L 139.77814 274.143165 
L 138.509968 274.143165 
z
" style="fill:#1f77b4;opacity:0.75;"/>
   </g>
   <g id="patch_55">
    <path clip-path="url(#p12abc189e8)" d="M 139.77814 307.584 
L 141.046347 307.584 
L 141.046347 274.406342 
L 139.77814 274.406342 
z
" style="fill:#1f77b4;opacity:0.75;"/>
   </g>
   <g id="patch_56">
    <path clip-path="url(#p12abc189e8)" d="M 141.046381 307.584 
L 142.314553 307.584 
L 142.314553 273.837171 
L 141.046381 273.837171 
z
" style="fill:#1f77b4;opacity:0.75;"/>
   </g>
   <g id="patch_57">
    <path clip-path="url(#p12abc189e8)" d="M 142.314519 307.584 
L 143.582692 307.584 
L 143.582692 274.875366 
L 142.314519 274.875366 
z
" style="fill:#1f77b4;opacity:0.75;"/>
   </g>
   <g id="patch_58">
    <path clip-path="url(#p12abc189e8)" d="M 143.582692 307.584 
L 144.850898 307.584 
L 144.850898 277.903328 
L 143.582692 277.903328 
z
" style="fill:#1f77b4;opacity:0.75;"/>
   </g>
   <g id="patch_59">
    <path clip-path="url(#p12abc189e8)" d="M 144.850933 307.584 
L 146.119105 307.584 
L 146.119105 278.416161 
L 144.850933 278.416161 
z
" style="fill:#1f77b4;opacity:0.75;"/>
   </g>
   <g id="patch_60">
    <path clip-path="url(#p12abc189e8)" d="M 146.119071 307.584 
L 147.387243 307.584 
L 147.387243 279.508998 
L 146.119071 279.508998 
z
" style="fill:#1f77b4;opacity:0.75;"/>
   </g>
   <g id="patch_61">
    <path clip-path="url(#p12abc189e8)" d="M 147.387278 307.584 
L 148.65545 307.584 
L 148.65545 277.836957 
L 147.387278 277.836957 
z
" style="fill:#1f77b4;opacity:0.75;"/>
   </g>
   <g id="patch_62">
    <path clip-path="url(#p12abc189e8)" d="M 148.655416 307.584 
L 149.923622 307.584 
L 149.923622 277.706623 
L 148.655416 277.706623 
z
" style="fill:#1f77b4;opacity:0.75;"/>
   </g>
   <g id="patch_63">
    <path clip-path="url(#p12abc189e8)" d="M 149.923622 307.584 
L 151.191795 307.584 
L 151.191795 277.618389 
L 149.923622 277.618389 
z
" style="fill:#1f77b4;opacity:0.75;"/>
   </g>
   <g id="patch_64">
    <path clip-path="url(#p12abc189e8)" d="M 151.191829 307.584 
L 152.460002 307.584 
L 152.460002 275.487356 
L 151.191829 275.487356 
z
" style="fill:#1f77b4;opacity:0.75;"/>
   </g>
   <g id="patch_65">
    <path clip-path="url(#p12abc189e8)" d="M 152.459967 307.584 
L 153.72814 307.584 
L 153.72814 275.563854 
L 152.459967 275.563854 
z
" style="fill:#1f77b4;opacity:0.75;"/>
   </g>
   <g id="patch_66">
    <path clip-path="url(#p12abc189e8)" d="M 153.72814 307.584 
L 154.996347 307.584 
L 154.996347 273.914578 
L 153.72814 273.914578 
z
" style="fill:#1f77b4;opacity:0.75;"/>
   </g>
   <g id="patch_67">
    <path clip-path="url(#p12abc189e8)" d="M 154.996381 307.584 
L 156.264553 307.584 
L 156.264553 270.624228 
L 154.996381 270.624228 
z
" style="fill:#1f77b4;opacity:0.75;"/>
   </g>
   <g id="patch_68">
    <path clip-path="url(#p12abc189e8)" d="M 156.264519 307.584 
L 157.532691 307.584 
L 157.532691 267.269216 
L 156.264519 267.269216 
z
" style="fill:#1f77b4;opacity:0.75;"/>
   </g>
   <g id="patch_69">
    <path clip-path="url(#p12abc189e8)" d="M 157.532691 307.584 
L 158.800898 307.584 
L 158.800898 261.434708 
L 157.532691 261.434708 
z
" style="fill:#1f77b4;opacity:0.75;"/>
   </g>
   <g id="patch_70">
    <path clip-path="url(#p12abc189e8)" d="M 158.800932 307.584 
L 160.069105 307.584 
L 160.069105 258.264233 
L 158.800932 258.264233 
z
" style="fill:#1f77b4;opacity:0.75;"/>
   </g>
   <g id="patch_71">
    <path clip-path="url(#p12abc189e8)" d="M 160.069071 307.584 
L 161.337243 307.584 
L 161.337243 255.45564 
L 160.069071 255.45564 
z
" style="fill:#1f77b4;opacity:0.75;"/>
   </g>
   <g id="patch_72">
    <path clip-path="url(#p12abc189e8)" d="M 161.337277 307.584 
L 162.60545 307.584 
L 162.60545 255.248001 
L 161.337277 255.248001 
z
" style="fill:#1f77b4;opacity:0.75;"/>
   </g>
   <g id="patch_73">
    <path clip-path="url(#p12abc189e8)" d="M 162.605415 307.584 
L 163.873622 307.584 
L 163.873622 259.194452 
L 162.605415 259.194452 
z
" style="fill:#1f77b4;opacity:0.75;"/>
   </g>
   <g id="patch_74">
    <path clip-path="url(#p12abc189e8)" d="M 163.873622 307.584 
L 165.141795 307.584 
L 165.141795 258.154949 
L 163.873622 258.154949 
z
" style="fill:#1f77b4;opacity:0.75;"/>
   </g>
   <g id="patch_75">
    <path clip-path="url(#p12abc189e8)" d="M 165.141829 307.584 
L 166.410001 307.584 
L 166.410001 259.040148 
L 165.141829 259.040148 
z
" style="fill:#1f77b4;opacity:0.75;"/>
   </g>
   <g id="patch_76">
    <path clip-path="url(#p12abc189e8)" d="M 166.409967 307.584 
L 167.678174 307.584 
L 167.678174 258.385773 
L 166.409967 258.385773 
z
" style="fill:#1f77b4;opacity:0.75;"/>
   </g>
   <g id="patch_77">
    <path clip-path="url(#p12abc189e8)" d="M 167.678174 307.584 
L 168.946346 307.584 
L 168.946346 254.406516 
L 167.678174 254.406516 
z
" style="fill:#1f77b4;opacity:0.75;"/>
   </g>
   <g id="patch_78">
    <path clip-path="url(#p12abc189e8)" d="M 168.94638 307.584 
L 170.214553 307.584 
L 170.214553 253.739885 
L 168.94638 253.739885 
z
" style="fill:#1f77b4;opacity:0.75;"/>
   </g>
   <g id="patch_79">
    <path clip-path="url(#p12abc189e8)" d="M 170.214519 307.584 
L 171.482691 307.584 
L 171.482691 254.024022 
L 170.214519 254.024022 
z
" style="fill:#1f77b4;opacity:0.75;"/>
   </g>
   <g id="patch_80">
    <path clip-path="url(#p12abc189e8)" d="M 171.482691 307.584 
L 172.750898 307.584 
L 172.750898 256.965123 
L 171.482691 256.965123 
z
" style="fill:#1f77b4;opacity:0.75;"/>
   </g>
   <g id="patch_81">
    <path clip-path="url(#p12abc189e8)" d="M 172.750932 307.584 
L 174.019105 307.584 
L 174.019105 256.308053 
L 172.750932 256.308053 
z
" style="fill:#1f77b4;opacity:0.75;"/>
   </g>
   <g id="patch_82">
    <path clip-path="url(#p12abc189e8)" d="M 174.01907 307.584 
L 175.287243 307.584 
L 175.287243 254.537656 
L 174.01907 254.537656 
z
" style="fill:#1f77b4;opacity:0.75;"/>
   </g>
   <g id="patch_83">
    <path clip-path="url(#p12abc189e8)" d="M 175.287277 307.584 
L 176.555449 307.584 
L 176.555449 249.608958 
L 175.287277 249.608958 
z
" style="fill:#1f77b4;opacity:0.75;"/>
   </g>
   <g id="patch_84">
    <path clip-path="url(#p12abc189e8)" d="M 176.555415 307.584 
L 177.823622 307.584 
L 177.823622 251.457369 
L 176.555415 251.457369 
z
" style="fill:#1f77b4;opacity:0.75;"/>
   </g>
   <g id="patch_85">
    <path clip-path="url(#p12abc189e8)" d="M 177.823622 307.584 
L 179.091794 307.584 
L 179.091794 252.789116 
L 177.823622 252.789116 
z
" style="fill:#1f77b4;opacity:0.75;"/>
   </g>
   <g id="patch_86">
    <path clip-path="url(#p12abc189e8)" d="M 179.091829 307.584 
L 180.360001 307.584 
L 180.360001 252.28641 
L 179.091829 252.28641 
z
" style="fill:#1f77b4;opacity:0.75;"/>
   </g>
   <g id="patch_87">
    <path clip-path="url(#p12abc189e8)" d="M 180.359967 307.584 
L 181.628174 307.584 
L 181.628174 249.413818 
L 180.359967 249.413818 
z
" style="fill:#1f77b4;opacity:0.75;"/>
   </g>
   <g id="patch_88">
    <path clip-path="url(#p12abc189e8)" d="M 181.628174 307.584 
L 182.896346 307.584 
L 182.896346 251.018719 
L 181.628174 251.018719 
z
" style="fill:#1f77b4;opacity:0.75;"/>
   </g>
   <g id="patch_89">
    <path clip-path="url(#p12abc189e8)" d="M 182.89638 307.584 
L 184.164553 307.584 
L 184.164553 249.893096 
L 182.89638 249.893096 
z
" style="fill:#1f77b4;opacity:0.75;"/>
   </g>
   <g id="patch_90">
    <path clip-path="url(#p12abc189e8)" d="M 184.164518 307.584 
L 185.432691 307.584 
L 185.432691 248.975112 
L 184.164518 248.975112 
z
" style="fill:#1f77b4;opacity:0.75;"/>
   </g>
   <g id="patch_91">
    <path clip-path="url(#p12abc189e8)" d="M 185.432691 307.584 
L 186.700898 307.584 
L 186.700898 244.135554 
L 185.432691 244.135554 
z
" style="fill:#1f77b4;opacity:0.75;"/>
   </g>
   <g id="patch_92">
    <path clip-path="url(#p12abc189e8)" d="M 186.700932 307.584 
L 187.969104 307.584 
L 187.969104 236.647902 
L 186.700932 236.647902 
z
" style="fill:#1f77b4;opacity:0.75;"/>
   </g>
   <g id="patch_93">
    <path clip-path="url(#p12abc189e8)" d="M 187.96907 307.584 
L 189.237242 307.584 
L 189.237242 236.221696 
L 187.96907 236.221696 
z
" style="fill:#1f77b4;opacity:0.75;"/>
   </g>
   <g id="patch_94">
    <path clip-path="url(#p12abc189e8)" d="M 189.237242 307.584 
L 190.505449 307.584 
L 190.505449 240.310725 
L 189.237242 240.310725 
z
" style="fill:#1f77b4;opacity:0.75;"/>
   </g>
   <g id="patch_95">
    <path clip-path="url(#p12abc189e8)" d="M 190.505483 307.584 
L 191.773656 307.584 
L 191.773656 239.390925 
L 190.505483 239.390925 
z
" style="fill:#1f77b4;opacity:0.75;"/>
   </g>
   <g id="patch_96">
    <path clip-path="url(#p12abc189e8)" d="M 191.773622 307.584 
L 193.041794 307.584 
L 193.041794 237.620528 
L 191.773622 237.620528 
z
" style="fill:#1f77b4;opacity:0.75;"/>
   </g>
   <g id="patch_97">
    <path clip-path="url(#p12abc189e8)" d="M 193.041828 307.584 
L 194.310001 307.584 
L 194.310001 229.839523 
L 193.041828 229.839523 
z
" style="fill:#1f77b4;opacity:0.75;"/>
   </g>
   <g id="patch_98">
    <path clip-path="url(#p12abc189e8)" d="M 194.309967 307.584 
L 195.578173 307.584 
L 195.578173 230.606588 
L 194.309967 230.606588 
z
" style="fill:#1f77b4;opacity:0.75;"/>
   </g>
   <g id="patch_99">
    <path clip-path="url(#p12abc189e8)" d="M 195.578173 307.584 
L 196.846346 307.584 
L 196.846346 226.746792 
L 195.578173 226.746792 
z
" style="fill:#1f77b4;opacity:0.75;"/>
   </g>
   <g id="patch_100">
    <path clip-path="url(#p12abc189e8)" d="M 196.84638 307.584 
L 198.114552 307.584 
L 198.114552 223.304354 
L 196.84638 223.304354 
z
" style="fill:#1f77b4;opacity:0.75;"/>
   </g>
   <g id="patch_101">
    <path clip-path="url(#p12abc189e8)" d="M 198.114518 307.584 
L 199.382691 307.584 
L 199.382691 228.659259 
L 198.114518 228.659259 
z
" style="fill:#1f77b4;opacity:0.75;"/>
   </g>
   <g id="patch_102">
    <path clip-path="url(#p12abc189e8)" d="M 199.382691 307.584 
L 200.650897 307.584 
L 200.650897 230.278746 
L 199.382691 230.278746 
z
" style="fill:#1f77b4;opacity:0.75;"/>
   </g>
   <g id="patch_103">
    <path clip-path="url(#p12abc189e8)" d="M 200.650932 307.584 
L 201.919104 307.584 
L 201.919104 228.145625 
L 200.650932 228.145625 
z
" style="fill:#1f77b4;opacity:0.75;"/>
   </g>
   <g id="patch_104">
    <path clip-path="url(#p12abc189e8)" d="M 201.91907 307.584 
L 203.187242 307.584 
L 203.187242 225.490029 
L 201.91907 225.490029 
z
" style="fill:#1f77b4;opacity:0.75;"/>
   </g>
   <g id="patch_105">
    <path clip-path="url(#p12abc189e8)" d="M 203.187242 307.584 
L 204.455449 307.584 
L 204.455449 221.853194 
L 203.187242 221.853194 
z
" style="fill:#1f77b4;opacity:0.75;"/>
   </g>
   <g id="patch_106">
    <path clip-path="url(#p12abc189e8)" d="M 204.455483 307.584 
L 205.723656 307.584 
L 205.723656 217.206319 
L 204.455483 217.206319 
z
" style="fill:#1f77b4;opacity:0.75;"/>
   </g>
   <g id="patch_107">
    <path clip-path="url(#p12abc189e8)" d="M 205.723621 307.584 
L 206.991794 307.584 
L 206.991794 214.900431 
L 205.723621 214.900431 
z
" style="fill:#1f77b4;opacity:0.75;"/>
   </g>
   <g id="patch_108">
    <path clip-path="url(#p12abc189e8)" d="M 206.991828 307.584 
L 208.260001 307.584 
L 208.260001 210.234014 
L 206.991828 210.234014 
z
" style="fill:#1f77b4;opacity:0.75;"/>
   </g>
   <g id="patch_109">
    <path clip-path="url(#p12abc189e8)" d="M 208.259966 307.584 
L 209.528173 307.584 
L 209.528173 199.516194 
L 208.259966 199.516194 
z
" style="fill:#1f77b4;opacity:0.75;"/>
   </g>
   <g id="patch_110">
    <path clip-path="url(#p12abc189e8)" d="M 209.528173 307.584 
L 210.796345 307.584 
L 210.796345 188.967392 
L 209.528173 188.967392 
z
" style="fill:#1f77b4;opacity:0.75;"/>
   </g>
   <g id="patch_111">
    <path clip-path="url(#p12abc189e8)" d="M 210.79638 307.584 
L 212.064552 307.584 
L 212.064552 188.049408 
L 210.79638 188.049408 
z
" style="fill:#1f77b4;opacity:0.75;"/>
   </g>
   <g id="patch_112">
    <path clip-path="url(#p12abc189e8)" d="M 212.064518 307.584 
L 213.332725 307.584 
L 213.332725 182.260752 
L 212.064518 182.260752 
z
" style="fill:#1f77b4;opacity:0.75;"/>
   </g>
   <g id="patch_113">
    <path clip-path="url(#p12abc189e8)" d="M 213.332725 307.584 
L 214.600897 307.584 
L 214.600897 193.743093 
L 213.332725 193.743093 
z
" style="fill:#1f77b4;opacity:0.75;"/>
   </g>
   <g id="patch_114">
    <path clip-path="url(#p12abc189e8)" d="M 214.600931 307.584 
L 215.869104 307.584 
L 215.869104 192.442616 
L 214.600931 192.442616 
z
" style="fill:#1f77b4;opacity:0.75;"/>
   </g>
   <g id="patch_115">
    <path clip-path="url(#p12abc189e8)" d="M 215.86907 307.584 
L 217.137242 307.584 
L 217.137242 182.891214 
L 215.86907 182.891214 
z
" style="fill:#1f77b4;opacity:0.75;"/>
   </g>
   <g id="patch_116">
    <path clip-path="url(#p12abc189e8)" d="M 217.137242 307.584 
L 218.405449 307.584 
L 218.405449 187.790362 
L 217.137242 187.790362 
z
" style="fill:#1f77b4;opacity:0.75;"/>
   </g>
   <g id="patch_117">
    <path clip-path="url(#p12abc189e8)" d="M 218.405483 307.584 
L 219.673655 307.584 
L 219.673655 183.973123 
L 218.405483 183.973123 
z
" style="fill:#1f77b4;opacity:0.75;"/>
   </g>
   <g id="patch_118">
    <path clip-path="url(#p12abc189e8)" d="M 219.673621 307.584 
L 220.941794 307.584 
L 220.941794 177.623736 
L 219.673621 177.623736 
z
" style="fill:#1f77b4;opacity:0.75;"/>
   </g>
   <g id="patch_119">
    <path clip-path="url(#p12abc189e8)" d="M 220.941828 307.584 
L 222.21 307.584 
L 222.21 169.121458 
L 220.941828 169.121458 
z
" style="fill:#1f77b4;opacity:0.75;"/>
   </g>
   <g id="patch_120">
    <path clip-path="url(#p12abc189e8)" d="M 222.209966 307.584 
L 223.478173 307.584 
L 223.478173 168.775499 
L 222.209966 168.775499 
z
" style="fill:#1f77b4;opacity:0.75;"/>
   </g>
   <g id="patch_121">
    <path clip-path="url(#p12abc189e8)" d="M 223.478173 307.584 
L 224.746345 307.584 
L 224.746345 153.253455 
L 223.478173 153.253455 
z
" style="fill:#1f77b4;opacity:0.75;"/>
   </g>
   <g id="patch_122">
    <path clip-path="url(#p12abc189e8)" d="M 224.746379 307.584 
L 226.014552 307.584 
L 226.014552 156.630323 
L 224.746379 156.630323 
z
" style="fill:#1f77b4;opacity:0.75;"/>
   </g>
   <g id="patch_123">
    <path clip-path="url(#p12abc189e8)" d="M 226.014518 307.584 
L 227.282724 307.584 
L 227.282724 150.798803 
L 226.014518 150.798803 
z
" style="fill:#1f77b4;opacity:0.75;"/>
   </g>
   <g id="patch_124">
    <path clip-path="url(#p12abc189e8)" d="M 227.282724 307.584 
L 228.550897 307.584 
L 228.550897 145.53802 
L 227.282724 145.53802 
z
" style="fill:#1f77b4;opacity:0.75;"/>
   </g>
   <g id="patch_125">
    <path clip-path="url(#p12abc189e8)" d="M 228.550931 307.584 
L 229.819103 307.584 
L 229.819103 137.99744 
L 228.550931 137.99744 
z
" style="fill:#1f77b4;opacity:0.75;"/>
   </g>
   <g id="patch_126">
    <path clip-path="url(#p12abc189e8)" d="M 229.819069 307.584 
L 231.087242 307.584 
L 231.087242 127.145561 
L 229.819069 127.145561 
z
" style="fill:#1f77b4;opacity:0.75;"/>
   </g>
   <g id="patch_127">
    <path clip-path="url(#p12abc189e8)" d="M 231.087242 307.584 
L 232.355448 307.584 
L 232.355448 123.052402 
L 231.087242 123.052402 
z
" style="fill:#1f77b4;opacity:0.75;"/>
   </g>
   <g id="patch_128">
    <path clip-path="url(#p12abc189e8)" d="M 232.355483 307.584 
L 233.623655 307.584 
L 233.623655 117.233523 
L 232.355483 117.233523 
z
" style="fill:#1f77b4;opacity:0.75;"/>
   </g>
   <g id="patch_129">
    <path clip-path="url(#p12abc189e8)" d="M 233.623621 307.584 
L 234.891793 307.584 
L 234.891793 106.556498 
L 233.623621 106.556498 
z
" style="fill:#1f77b4;opacity:0.75;"/>
   </g>
   <g id="patch_130">
    <path clip-path="url(#p12abc189e8)" d="M 234.891828 307.584 
L 236.16 307.584 
L 236.16 94.535283 
L 234.891828 94.535283 
z
" style="fill:#1f77b4;opacity:0.75;"/>
   </g>
   <g id="patch_131">
    <path clip-path="url(#p12abc189e8)" d="M 236.159966 307.584 
L 237.428172 307.584 
L 237.428172 107.720303 
L 236.159966 107.720303 
z
" style="fill:#1f77b4;opacity:0.75;"/>
   </g>
   <g id="patch_132">
    <path clip-path="url(#p12abc189e8)" d="M 237.428172 307.584 
L 238.696345 307.584 
L 238.696345 105.955437 
L 237.428172 105.955437 
z
" style="fill:#1f77b4;opacity:0.75;"/>
   </g>
   <g id="patch_133">
    <path clip-path="url(#p12abc189e8)" d="M 238.696379 307.584 
L 239.964552 307.584 
L 239.964552 106.184933 
L 238.696379 106.184933 
z
" style="fill:#1f77b4;opacity:0.75;"/>
   </g>
   <g id="patch_134">
    <path clip-path="url(#p12abc189e8)" d="M 239.964517 307.584 
L 241.232724 307.584 
L 241.232724 105.545614 
L 239.964517 105.545614 
z
" style="fill:#1f77b4;opacity:0.75;"/>
   </g>
   <g id="patch_135">
    <path clip-path="url(#p12abc189e8)" d="M 241.232724 307.584 
L 242.500897 307.584 
L 242.500897 101.004882 
L 241.232724 101.004882 
z
" style="fill:#1f77b4;opacity:0.75;"/>
   </g>
   <g id="patch_136">
    <path clip-path="url(#p12abc189e8)" d="M 242.500931 307.584 
L 243.769103 307.584 
L 243.769103 100.043185 
L 242.500931 100.043185 
z
" style="fill:#1f77b4;opacity:0.75;"/>
   </g>
   <g id="patch_137">
    <path clip-path="url(#p12abc189e8)" d="M 243.769069 307.584 
L 245.037241 307.584 
L 245.037241 113.244665 
L 243.769069 113.244665 
z
" style="fill:#1f77b4;opacity:0.75;"/>
   </g>
   <g id="patch_138">
    <path clip-path="url(#p12abc189e8)" d="M 245.037241 307.584 
L 246.305448 307.584 
L 246.305448 106.234084 
L 245.037241 106.234084 
z
" style="fill:#1f77b4;opacity:0.75;"/>
   </g>
   <g id="patch_139">
    <path clip-path="url(#p12abc189e8)" d="M 246.305482 307.584 
L 247.573655 307.584 
L 247.573655 105.256021 
L 246.305482 105.256021 
z
" style="fill:#1f77b4;opacity:0.75;"/>
   </g>
   <g id="patch_140">
    <path clip-path="url(#p12abc189e8)" d="M 247.573621 307.584 
L 248.841793 307.584 
L 248.841793 89.420802 
L 247.573621 89.420802 
z
" style="fill:#1f77b4;opacity:0.75;"/>
   </g>
   <g id="patch_141">
    <path clip-path="url(#p12abc189e8)" d="M 248.841793 307.584 
L 250.11 307.584 
L 250.11 71.930833 
L 248.841793 71.930833 
z
" style="fill:#1f77b4;opacity:0.75;"/>
   </g>
   <g id="patch_142">
    <path clip-path="url(#p12abc189e8)" d="M 250.110034 307.584 
L 251.378206 307.584 
L 251.378206 70.492853 
L 250.110034 70.492853 
z
" style="fill:#1f77b4;opacity:0.75;"/>
   </g>
   <g id="patch_143">
    <path clip-path="url(#p12abc189e8)" d="M 251.378172 307.584 
L 252.646345 307.584 
L 252.646345 74.940702 
L 251.378172 74.940702 
z
" style="fill:#1f77b4;opacity:0.75;"/>
   </g>
   <g id="patch_144">
    <path clip-path="url(#p12abc189e8)" d="M 252.646379 307.584 
L 253.914551 307.584 
L 253.914551 61.629939 
L 252.646379 61.629939 
z
" style="fill:#1f77b4;opacity:0.75;"/>
   </g>
   <g id="patch_145">
    <path clip-path="url(#p12abc189e8)" d="M 253.914517 307.584 
L 255.182724 307.584 
L 255.182724 63.505282 
L 253.914517 63.505282 
z
" style="fill:#1f77b4;opacity:0.75;"/>
   </g>
   <g id="patch_146">
    <path clip-path="url(#p12abc189e8)" d="M 255.182724 307.584 
L 256.450896 307.584 
L 256.450896 61.48787 
L 255.182724 61.48787 
z
" style="fill:#1f77b4;opacity:0.75;"/>
   </g>
   <g id="patch_147">
    <path clip-path="url(#p12abc189e8)" d="M 256.45093 307.584 
L 257.719103 307.584 
L 257.719103 61.750151 
L 256.45093 61.750151 
z
" style="fill:#1f77b4;opacity:0.75;"/>
   </g>
   <g id="patch_148">
    <path clip-path="url(#p12abc189e8)" d="M 257.719069 307.584 
L 258.987241 307.584 
L 258.987241 54.144 
L 257.719069 54.144 
z
" style="fill:#1f77b4;opacity:0.75;"/>
   </g>
   <g id="patch_149">
    <path clip-path="url(#p12abc189e8)" d="M 258.987241 307.584 
L 260.255448 307.584 
L 260.255448 63.712915 
L 258.987241 63.712915 
z
" style="fill:#1f77b4;opacity:0.75;"/>
   </g>
   <g id="patch_150">
    <path clip-path="url(#p12abc189e8)" d="M 260.255482 307.584 
L 261.523655 307.584 
L 261.523655 76.09911 
L 260.255482 76.09911 
z
" style="fill:#1f77b4;opacity:0.75;"/>
   </g>
   <g id="patch_151">
    <path clip-path="url(#p12abc189e8)" d="M 261.52362 307.584 
L 262.791793 307.584 
L 262.791793 90.076505 
L 261.52362 90.076505 
z
" style="fill:#1f77b4;opacity:0.75;"/>
   </g>
   <g id="patch_152">
    <path clip-path="url(#p12abc189e8)" d="M 262.791793 307.584 
L 264.059999 307.584 
L 264.059999 91.339107 
L 262.791793 91.339107 
z
" style="fill:#1f77b4;opacity:0.75;"/>
   </g>
   <g id="patch_153">
    <path clip-path="url(#p12abc189e8)" d="M 264.060034 307.584 
L 265.328206 307.584 
L 265.328206 86.393642 
L 264.060034 86.393642 
z
" style="fill:#1f77b4;opacity:0.75;"/>
   </g>
   <g id="patch_154">
    <path clip-path="url(#p12abc189e8)" d="M 265.328172 307.584 
L 266.596344 307.584 
L 266.596344 86.907275 
L 265.328172 86.907275 
z
" style="fill:#1f77b4;opacity:0.75;"/>
   </g>
   <g id="patch_155">
    <path clip-path="url(#p12abc189e8)" d="M 266.596379 307.584 
L 267.864551 307.584 
L 267.864551 95.420481 
L 266.596379 95.420481 
z
" style="fill:#1f77b4;opacity:0.75;"/>
   </g>
   <g id="patch_156">
    <path clip-path="url(#p12abc189e8)" d="M 267.864517 307.584 
L 269.132724 307.584 
L 269.132724 95.120224 
L 267.864517 95.120224 
z
" style="fill:#1f77b4;opacity:0.75;"/>
   </g>
   <g id="patch_157">
    <path clip-path="url(#p12abc189e8)" d="M 269.132724 307.584 
L 270.400896 307.584 
L 270.400896 95.529765 
L 269.132724 95.529765 
z
" style="fill:#1f77b4;opacity:0.75;"/>
   </g>
   <g id="patch_158">
    <path clip-path="url(#p12abc189e8)" d="M 270.40093 307.584 
L 271.669103 307.584 
L 271.669103 100.0104 
L 270.40093 100.0104 
z
" style="fill:#1f77b4;opacity:0.75;"/>
   </g>
   <g id="patch_159">
    <path clip-path="url(#p12abc189e8)" d="M 271.669068 307.584 
L 272.937275 307.584 
L 272.937275 104.387238 
L 271.669068 104.387238 
z
" style="fill:#1f77b4;opacity:0.75;"/>
   </g>
   <g id="patch_160">
    <path clip-path="url(#p12abc189e8)" d="M 272.937275 307.584 
L 274.205448 307.584 
L 274.205448 114.468643 
L 272.937275 114.468643 
z
" style="fill:#1f77b4;opacity:0.75;"/>
   </g>
   <g id="patch_161">
    <path clip-path="url(#p12abc189e8)" d="M 274.205482 307.584 
L 275.473654 307.584 
L 275.473654 116.151613 
L 274.205482 116.151613 
z
" style="fill:#1f77b4;opacity:0.75;"/>
   </g>
   <g id="patch_162">
    <path clip-path="url(#p12abc189e8)" d="M 275.47362 307.584 
L 276.741792 307.584 
L 276.741792 119.681479 
L 275.47362 119.681479 
z
" style="fill:#1f77b4;opacity:0.75;"/>
   </g>
   <g id="patch_163">
    <path clip-path="url(#p12abc189e8)" d="M 276.741792 307.584 
L 278.009999 307.584 
L 278.009999 125.194306 
L 276.741792 125.194306 
z
" style="fill:#1f77b4;opacity:0.75;"/>
   </g>
   <g id="patch_164">
    <path clip-path="url(#p12abc189e8)" d="M 278.010033 307.584 
L 279.278206 307.584 
L 279.278206 120.883601 
L 278.010033 120.883601 
z
" style="fill:#1f77b4;opacity:0.75;"/>
   </g>
   <g id="patch_165">
    <path clip-path="url(#p12abc189e8)" d="M 279.278172 307.584 
L 280.546344 307.584 
L 280.546344 117.397448 
L 279.278172 117.397448 
z
" style="fill:#1f77b4;opacity:0.75;"/>
   </g>
   <g id="patch_166">
    <path clip-path="url(#p12abc189e8)" d="M 280.546378 307.584 
L 281.814551 307.584 
L 281.814551 108.785887 
L 280.546378 108.785887 
z
" style="fill:#1f77b4;opacity:0.75;"/>
   </g>
   <g id="patch_167">
    <path clip-path="url(#p12abc189e8)" d="M 281.814517 307.584 
L 283.082723 307.584 
L 283.082723 101.163453 
L 281.814517 101.163453 
z
" style="fill:#1f77b4;opacity:0.75;"/>
   </g>
   <g id="patch_168">
    <path clip-path="url(#p12abc189e8)" d="M 283.082723 307.584 
L 284.350896 307.584 
L 284.350896 88.240537 
L 283.082723 88.240537 
z
" style="fill:#1f77b4;opacity:0.75;"/>
   </g>
   <g id="patch_169">
    <path clip-path="url(#p12abc189e8)" d="M 284.35093 307.584 
L 285.619102 307.584 
L 285.619102 84.896454 
L 284.35093 84.896454 
z
" style="fill:#1f77b4;opacity:0.75;"/>
   </g>
   <g id="patch_170">
    <path clip-path="url(#p12abc189e8)" d="M 285.619068 307.584 
L 286.887275 307.584 
L 286.887275 85.601864 
L 285.619068 85.601864 
z
" style="fill:#1f77b4;opacity:0.75;"/>
   </g>
   <g id="patch_171">
    <path clip-path="url(#p12abc189e8)" d="M 286.887275 307.584 
L 288.155447 307.584 
L 288.155447 80.503246 
L 286.887275 80.503246 
z
" style="fill:#1f77b4;opacity:0.75;"/>
   </g>
   <g id="patch_172">
    <path clip-path="url(#p12abc189e8)" d="M 288.155482 307.584 
L 289.423654 307.584 
L 289.423654 98.841064 
L 288.155482 98.841064 
z
" style="fill:#1f77b4;opacity:0.75;"/>
   </g>
   <g id="patch_173">
    <path clip-path="url(#p12abc189e8)" d="M 289.42362 307.584 
L 290.691792 307.584 
L 290.691792 97.442231 
L 289.42362 97.442231 
z
" style="fill:#1f77b4;opacity:0.75;"/>
   </g>
   <g id="patch_174">
    <path clip-path="url(#p12abc189e8)" d="M 290.691792 307.584 
L 291.959999 307.584 
L 291.959999 80.542162 
L 290.691792 80.542162 
z
" style="fill:#1f77b4;opacity:0.75;"/>
   </g>
   <g id="patch_175">
    <path clip-path="url(#p12abc189e8)" d="M 291.960033 307.584 
L 293.228206 307.584 
L 293.228206 89.923508 
L 291.960033 89.923508 
z
" style="fill:#1f77b4;opacity:0.75;"/>
   </g>
   <g id="patch_176">
    <path clip-path="url(#p12abc189e8)" d="M 293.228171 307.584 
L 294.496344 307.584 
L 294.496344 106.359787 
L 293.228171 106.359787 
z
" style="fill:#1f77b4;opacity:0.75;"/>
   </g>
   <g id="patch_177">
    <path clip-path="url(#p12abc189e8)" d="M 294.496344 307.584 
L 295.764551 307.584 
L 295.764551 114.670563 
L 294.496344 114.670563 
z
" style="fill:#1f77b4;opacity:0.75;"/>
   </g>
   <g id="patch_178">
    <path clip-path="url(#p12abc189e8)" d="M 295.764585 307.584 
L 297.032757 307.584 
L 297.032757 125.462591 
L 295.764585 125.462591 
z
" style="fill:#1f77b4;opacity:0.75;"/>
   </g>
   <g id="patch_179">
    <path clip-path="url(#p12abc189e8)" d="M 297.032723 307.584 
L 298.300895 307.584 
L 298.300895 127.407842 
L 297.032723 127.407842 
z
" style="fill:#1f77b4;opacity:0.75;"/>
   </g>
   <g id="patch_180">
    <path clip-path="url(#p12abc189e8)" d="M 298.30093 307.584 
L 299.569102 307.584 
L 299.569102 133.593304 
L 298.30093 133.593304 
z
" style="fill:#1f77b4;opacity:0.75;"/>
   </g>
   <g id="patch_181">
    <path clip-path="url(#p12abc189e8)" d="M 299.569068 307.584 
L 300.837275 307.584 
L 300.837275 141.761279 
L 299.569068 141.761279 
z
" style="fill:#1f77b4;opacity:0.75;"/>
   </g>
   <g id="patch_182">
    <path clip-path="url(#p12abc189e8)" d="M 300.837275 307.584 
L 302.105447 307.584 
L 302.105447 141.308738 
L 300.837275 141.308738 
z
" style="fill:#1f77b4;opacity:0.75;"/>
   </g>
   <g id="patch_183">
    <path clip-path="url(#p12abc189e8)" d="M 302.105481 307.584 
L 303.373654 307.584 
L 303.373654 140.707677 
L 302.105481 140.707677 
z
" style="fill:#1f77b4;opacity:0.75;"/>
   </g>
   <g id="patch_184">
    <path clip-path="url(#p12abc189e8)" d="M 303.37362 307.584 
L 304.641792 307.584 
L 304.641792 139.800622 
L 303.37362 139.800622 
z
" style="fill:#1f77b4;opacity:0.75;"/>
   </g>
   <g id="patch_185">
    <path clip-path="url(#p12abc189e8)" d="M 304.641792 307.584 
L 305.909999 307.584 
L 305.909999 137.127772 
L 304.641792 137.127772 
z
" style="fill:#1f77b4;opacity:0.75;"/>
   </g>
   <g id="patch_186">
    <path clip-path="url(#p12abc189e8)" d="M 305.910033 307.584 
L 307.178205 307.584 
L 307.178205 141.680303 
L 305.910033 141.680303 
z
" style="fill:#1f77b4;opacity:0.75;"/>
   </g>
   <g id="patch_187">
    <path clip-path="url(#p12abc189e8)" d="M 307.178171 307.584 
L 308.446344 307.584 
L 308.446344 135.145133 
L 307.178171 135.145133 
z
" style="fill:#1f77b4;opacity:0.75;"/>
   </g>
   <g id="patch_188">
    <path clip-path="url(#p12abc189e8)" d="M 308.446344 307.584 
L 309.71455 307.584 
L 309.71455 130.964334 
L 308.446344 130.964334 
z
" style="fill:#1f77b4;opacity:0.75;"/>
   </g>
   <g id="patch_189">
    <path clip-path="url(#p12abc189e8)" d="M 309.714585 307.584 
L 310.982757 307.584 
L 310.982757 124.577392 
L 309.714585 124.577392 
z
" style="fill:#1f77b4;opacity:0.75;"/>
   </g>
   <g id="patch_190">
    <path clip-path="url(#p12abc189e8)" d="M 310.982723 307.584 
L 312.250895 307.584 
L 312.250895 130.129008 
L 310.982723 130.129008 
z
" style="fill:#1f77b4;opacity:0.75;"/>
   </g>
   <g id="patch_191">
    <path clip-path="url(#p12abc189e8)" d="M 312.250929 307.584 
L 313.519102 307.584 
L 313.519102 115.845619 
L 312.250929 115.845619 
z
" style="fill:#1f77b4;opacity:0.75;"/>
   </g>
   <g id="patch_192">
    <path clip-path="url(#p12abc189e8)" d="M 313.519068 307.584 
L 314.787274 307.584 
L 314.787274 120.451519 
L 313.519068 120.451519 
z
" style="fill:#1f77b4;opacity:0.75;"/>
   </g>
   <g id="patch_193">
    <path clip-path="url(#p12abc189e8)" d="M 314.787274 307.584 
L 316.055447 307.584 
L 316.055447 133.95394 
L 314.787274 133.95394 
z
" style="fill:#1f77b4;opacity:0.75;"/>
   </g>
   <g id="patch_194">
    <path clip-path="url(#p12abc189e8)" d="M 316.055481 307.584 
L 317.323653 307.584 
L 317.323653 139.265131 
L 316.055481 139.265131 
z
" style="fill:#1f77b4;opacity:0.75;"/>
   </g>
   <g id="patch_195">
    <path clip-path="url(#p12abc189e8)" d="M 317.323619 307.584 
L 318.591826 307.584 
L 318.591826 147.072327 
L 317.323619 147.072327 
z
" style="fill:#1f77b4;opacity:0.75;"/>
   </g>
   <g id="patch_196">
    <path clip-path="url(#p12abc189e8)" d="M 318.591826 307.584 
L 319.859998 307.584 
L 319.859998 157.286026 
L 318.591826 157.286026 
z
" style="fill:#1f77b4;opacity:0.75;"/>
   </g>
   <g id="patch_197">
    <path clip-path="url(#p12abc189e8)" d="M 319.860033 307.584 
L 321.128205 307.584 
L 321.128205 169.154244 
L 319.860033 169.154244 
z
" style="fill:#1f77b4;opacity:0.75;"/>
   </g>
   <g id="patch_198">
    <path clip-path="url(#p12abc189e8)" d="M 321.128171 307.584 
L 322.396343 307.584 
L 322.396343 149.832872 
L 321.128171 149.832872 
z
" style="fill:#1f77b4;opacity:0.75;"/>
   </g>
   <g id="patch_199">
    <path clip-path="url(#p12abc189e8)" d="M 322.396343 307.584 
L 323.66455 307.584 
L 323.66455 146.525923 
L 322.396343 146.525923 
z
" style="fill:#1f77b4;opacity:0.75;"/>
   </g>
   <g id="patch_200">
    <path clip-path="url(#p12abc189e8)" d="M 323.664584 307.584 
L 324.932757 307.584 
L 324.932757 165.132601 
L 323.664584 165.132601 
z
" style="fill:#1f77b4;opacity:0.75;"/>
   </g>
   <g id="patch_201">
    <path clip-path="url(#p12abc189e8)" d="M 324.932722 307.584 
L 326.200895 307.584 
L 326.200895 180.749252 
L 324.932722 180.749252 
z
" style="fill:#1f77b4;opacity:0.75;"/>
   </g>
   <g id="patch_202">
    <path clip-path="url(#p12abc189e8)" d="M 326.200929 307.584 
L 327.469102 307.584 
L 327.469102 185.229887 
L 326.200929 185.229887 
z
" style="fill:#1f77b4;opacity:0.75;"/>
   </g>
   <g id="patch_203">
    <path clip-path="url(#p12abc189e8)" d="M 327.469067 307.584 
L 328.737274 307.584 
L 328.737274 170.81905 
L 327.469067 170.81905 
z
" style="fill:#1f77b4;opacity:0.75;"/>
   </g>
   <g id="patch_204">
    <path clip-path="url(#p12abc189e8)" d="M 328.737274 307.584 
L 330.005447 307.584 
L 330.005447 181.361241 
L 328.737274 181.361241 
z
" style="fill:#1f77b4;opacity:0.75;"/>
   </g>
   <g id="patch_205">
    <path clip-path="url(#p12abc189e8)" d="M 330.005481 307.584 
L 331.273653 307.584 
L 331.273653 184.027765 
L 330.005481 184.027765 
z
" style="fill:#1f77b4;opacity:0.75;"/>
   </g>
   <g id="patch_206">
    <path clip-path="url(#p12abc189e8)" d="M 331.273619 307.584 
L 332.541826 307.584 
L 332.541826 206.455526 
L 331.273619 206.455526 
z
" style="fill:#1f77b4;opacity:0.75;"/>
   </g>
   <g id="patch_207">
    <path clip-path="url(#p12abc189e8)" d="M 332.541826 307.584 
L 333.809998 307.584 
L 333.809998 234.757293 
L 332.541826 234.757293 
z
" style="fill:#1f77b4;opacity:0.75;"/>
   </g>
   <g id="patch_208">
    <path clip-path="url(#p12abc189e8)" d="M 333.810032 307.584 
L 335.078205 307.584 
L 335.078205 243.893417 
L 333.810032 243.893417 
z
" style="fill:#1f77b4;opacity:0.75;"/>
   </g>
   <g id="patch_209">
    <path clip-path="url(#p12abc189e8)" d="M 335.078171 307.584 
L 336.346343 307.584 
L 336.346343 248.0462 
L 335.078171 248.0462 
z
" style="fill:#1f77b4;opacity:0.75;"/>
   </g>
   <g id="patch_210">
    <path clip-path="url(#p12abc189e8)" d="M 336.346343 307.584 
L 337.61455 307.584 
L 337.61455 253.10751 
L 336.346343 253.10751 
z
" style="fill:#1f77b4;opacity:0.75;"/>
   </g>
   <g id="patch_211">
    <path clip-path="url(#p12abc189e8)" d="M 337.614584 307.584 
L 338.882756 307.584 
L 338.882756 261.936168 
L 337.614584 261.936168 
z
" style="fill:#1f77b4;opacity:0.75;"/>
   </g>
   <g id="patch_212">
    <path clip-path="url(#p12abc189e8)" d="M 338.882722 307.584 
L 340.150895 307.584 
L 340.150895 261.837812 
L 338.882722 261.837812 
z
" style="fill:#1f77b4;opacity:0.75;"/>
   </g>
   <g id="patch_213">
    <path clip-path="url(#p12abc189e8)" d="M 340.150895 307.584 
L 341.419101 307.584 
L 341.419101 262.986496 
L 340.150895 262.986496 
z
" style="fill:#1f77b4;opacity:0.75;"/>
   </g>
   <g id="patch_214">
    <path clip-path="url(#p12abc189e8)" d="M 341.419136 307.584 
L 342.687308 307.584 
L 342.687308 273.345394 
L 341.419136 273.345394 
z
" style="fill:#1f77b4;opacity:0.75;"/>
   </g>
   <g id="patch_215">
    <path clip-path="url(#p12abc189e8)" d="M 342.687308 307.584 
L 343.95548 307.584 
L 343.95548 272.99662 
L 342.687308 272.99662 
z
" style="fill:#1f77b4;opacity:0.75;"/>
   </g>
   <g id="patch_216">
    <path clip-path="url(#p12abc189e8)" d="M 343.95548 307.584 
L 345.223619 307.584 
L 345.223619 274.218763 
L 343.95548 274.218763 
z
" style="fill:#1f77b4;opacity:0.75;"/>
   </g>
   <g id="patch_217">
    <path clip-path="url(#p12abc189e8)" d="M 345.223619 307.584 
L 346.491825 307.584 
L 346.491825 277.662911 
L 345.223619 277.662911 
z
" style="fill:#1f77b4;opacity:0.75;"/>
   </g>
   <g id="patch_218">
    <path clip-path="url(#p12abc189e8)" d="M 346.491825 307.584 
L 347.759964 307.584 
L 347.759964 277.683152 
L 346.491825 277.683152 
z
" style="fill:#1f77b4;opacity:0.75;"/>
   </g>
   <g id="patch_219">
    <path clip-path="url(#p12abc189e8)" d="M 347.760032 307.584 
L 349.028239 307.584 
L 349.028239 279.520685 
L 347.760032 279.520685 
z
" style="fill:#1f77b4;opacity:0.75;"/>
   </g>
   <g id="patch_220">
    <path clip-path="url(#p12abc189e8)" d="M 349.02817 307.584 
L 350.296377 307.584 
L 350.296377 285.454633 
L 349.02817 285.454633 
z
" style="fill:#1f77b4;opacity:0.75;"/>
   </g>
   <g id="patch_221">
    <path clip-path="url(#p12abc189e8)" d="M 350.296377 307.584 
L 351.564515 307.584 
L 351.564515 284.469858 
L 350.296377 284.469858 
z
" style="fill:#1f77b4;opacity:0.75;"/>
   </g>
   <g id="patch_222">
    <path clip-path="url(#p12abc189e8)" d="M 351.564584 307.584 
L 352.83279 307.584 
L 352.83279 282.984887 
L 351.564584 282.984887 
z
" style="fill:#1f77b4;opacity:0.75;"/>
   </g>
   <g id="patch_223">
    <path clip-path="url(#p12abc189e8)" d="M 352.832722 307.584 
L 354.100929 307.584 
L 354.100929 285.498346 
L 352.832722 285.498346 
z
" style="fill:#1f77b4;opacity:0.75;"/>
   </g>
   <g id="patch_224">
    <path clip-path="url(#p12abc189e8)" d="M 354.100929 307.584 
L 355.369067 307.584 
L 355.369067 287.4971 
L 354.100929 287.4971 
z
" style="fill:#1f77b4;opacity:0.75;"/>
   </g>
   <g id="patch_225">
    <path clip-path="url(#p12abc189e8)" d="M 355.369135 307.584 
L 356.637342 307.584 
L 356.637342 288.066445 
L 355.369135 288.066445 
z
" style="fill:#1f77b4;opacity:0.75;"/>
   </g>
   <g id="patch_226">
    <path clip-path="url(#p12abc189e8)" d="M 356.637274 307.584 
L 357.90548 307.584 
L 357.90548 288.372431 
L 356.637274 288.372431 
z
" style="fill:#1f77b4;opacity:0.75;"/>
   </g>
   <g id="patch_227">
    <path clip-path="url(#p12abc189e8)" d="M 357.90548 307.584 
L 359.173618 307.584 
L 359.173618 289.453332 
L 357.90548 289.453332 
z
" style="fill:#1f77b4;opacity:0.75;"/>
   </g>
   <g id="patch_228">
    <path clip-path="url(#p12abc189e8)" d="M 359.173687 307.584 
L 360.441894 307.584 
L 360.441894 290.08814 
L 359.173687 290.08814 
z
" style="fill:#1f77b4;opacity:0.75;"/>
   </g>
   <g id="patch_229">
    <path clip-path="url(#p12abc189e8)" d="M 360.441825 307.584 
L 361.709963 307.584 
L 361.709963 289.96698 
L 360.441825 289.96698 
z
" style="fill:#1f77b4;opacity:0.75;"/>
   </g>
   <g id="patch_230">
    <path clip-path="url(#p12abc189e8)" d="M 361.709963 307.584 
L 362.97817 307.584 
L 362.97817 290.219277 
L 361.709963 290.219277 
z
" style="fill:#1f77b4;opacity:0.75;"/>
   </g>
   <g id="patch_231">
    <path clip-path="url(#p12abc189e8)" d="M 362.978239 307.584 
L 364.246445 307.584 
L 364.246445 290.492479 
L 362.978239 290.492479 
z
" style="fill:#1f77b4;opacity:0.75;"/>
   </g>
   <g id="patch_232">
    <path clip-path="url(#p12abc189e8)" d="M 364.246377 307.584 
L 365.514515 307.584 
L 365.514515 290.589914 
L 364.246377 290.589914 
z
" style="fill:#1f77b4;opacity:0.75;"/>
   </g>
   <g id="patch_233">
    <path clip-path="url(#p12abc189e8)" d="M 365.514515 307.584 
L 366.782722 307.584 
L 366.782722 290.929603 
L 365.514515 290.929603 
z
" style="fill:#1f77b4;opacity:0.75;"/>
   </g>
   <g id="patch_234">
    <path clip-path="url(#p12abc189e8)" d="M 366.78279 307.584 
L 368.050997 307.584 
L 368.050997 287.69489 
L 366.78279 287.69489 
z
" style="fill:#1f77b4;opacity:0.75;"/>
   </g>
   <g id="patch_235">
    <path clip-path="url(#p12abc189e8)" d="M 368.050928 307.584 
L 369.319067 307.584 
L 369.319067 282.437125 
L 368.050928 282.437125 
z
" style="fill:#1f77b4;opacity:0.75;"/>
   </g>
   <g id="patch_236">
    <path clip-path="url(#p12abc189e8)" d="M 369.319067 307.584 
L 370.587273 307.584 
L 370.587273 284.755236 
L 369.319067 284.755236 
z
" style="fill:#1f77b4;opacity:0.75;"/>
   </g>
   <g id="patch_237">
    <path clip-path="url(#p12abc189e8)" d="M 370.587342 307.584 
L 371.855548 307.584 
L 371.855548 284.973798 
L 370.587342 284.973798 
z
" style="fill:#1f77b4;opacity:0.75;"/>
   </g>
   <g id="patch_238">
    <path clip-path="url(#p12abc189e8)" d="M 371.85548 307.584 
L 373.123618 307.584 
L 373.123618 284.20757 
L 371.85548 284.20757 
z
" style="fill:#1f77b4;opacity:0.75;"/>
   </g>
   <g id="patch_239">
    <path clip-path="url(#p12abc189e8)" d="M 373.123618 307.584 
L 374.391825 307.584 
L 374.391825 284.154192 
L 373.123618 284.154192 
z
" style="fill:#1f77b4;opacity:0.75;"/>
   </g>
   <g id="patch_240">
    <path clip-path="url(#p12abc189e8)" d="M 374.391893 307.584 
L 375.6601 307.584 
L 375.6601 287.563753 
L 374.391893 287.563753 
z
" style="fill:#1f77b4;opacity:0.75;"/>
   </g>
   <g id="patch_241">
    <path clip-path="url(#p12abc189e8)" d="M 375.660032 307.584 
L 376.92817 307.584 
L 376.92817 288.589967 
L 375.660032 288.589967 
z
" style="fill:#1f77b4;opacity:0.75;"/>
   </g>
   <g id="patch_242">
    <path clip-path="url(#p12abc189e8)" d="M 376.92817 307.584 
L 378.196376 307.584 
L 378.196376 293.759976 
L 376.92817 293.759976 
z
" style="fill:#1f77b4;opacity:0.75;"/>
   </g>
   <g id="patch_243">
    <path clip-path="url(#p12abc189e8)" d="M 378.196376 307.584 
L 379.464515 307.584 
L 379.464515 298.644346 
L 378.196376 298.644346 
z
" style="fill:#1f77b4;opacity:0.75;"/>
   </g>
   <g id="patch_244">
    <path clip-path="url(#p12abc189e8)" d="M 379.464583 307.584 
L 380.73279 307.584 
L 380.73279 300.010839 
L 379.464583 300.010839 
z
" style="fill:#1f77b4;opacity:0.75;"/>
   </g>
   <g id="patch_245">
    <path clip-path="url(#p12abc189e8)" d="M 380.732721 307.584 
L 382.000928 307.584 
L 382.000928 300.305897 
L 380.732721 300.305897 
z
" style="fill:#1f77b4;opacity:0.75;"/>
   </g>
   <g id="patch_246">
    <path clip-path="url(#p12abc189e8)" d="M 382.000928 307.584 
L 383.269066 307.584 
L 383.269066 300.906581 
L 382.000928 300.906581 
z
" style="fill:#1f77b4;opacity:0.75;"/>
   </g>
   <g id="patch_247">
    <path clip-path="url(#p12abc189e8)" d="M 383.269135 307.584 
L 384.537341 307.584 
L 384.537341 300.841373 
L 383.269135 300.841373 
z
" style="fill:#1f77b4;opacity:0.75;"/>
   </g>
   <g id="patch_248">
    <path clip-path="url(#p12abc189e8)" d="M 384.537273 307.584 
L 385.80548 307.584 
L 385.80548 301.387777 
L 384.537273 301.387777 
z
" style="fill:#1f77b4;opacity:0.75;"/>
   </g>
   <g id="patch_249">
    <path clip-path="url(#p12abc189e8)" d="M 385.80548 307.584 
L 387.073618 307.584 
L 387.073618 302.786313 
L 385.80548 302.786313 
z
" style="fill:#1f77b4;opacity:0.75;"/>
   </g>
   <g id="patch_250">
    <path clip-path="url(#p12abc189e8)" d="M 387.073686 307.584 
L 388.341893 307.584 
L 388.341893 303.573394 
L 387.073686 303.573394 
z
" style="fill:#1f77b4;opacity:0.75;"/>
   </g>
   <g id="patch_251">
    <path clip-path="url(#p12abc189e8)" d="M 388.341825 307.584 
L 389.610031 307.584 
L 389.610031 303.420401 
L 388.341825 303.420401 
z
" style="fill:#1f77b4;opacity:0.75;"/>
   </g>
   <g id="patch_252">
    <path clip-path="url(#p12abc189e8)" d="M 389.610031 307.584 
L 390.87817 307.584 
L 390.87817 303.332746 
L 389.610031 303.332746 
z
" style="fill:#1f77b4;opacity:0.75;"/>
   </g>
   <g id="patch_253">
    <path clip-path="url(#p12abc189e8)" d="M 390.878238 307.584 
L 392.146445 307.584 
L 392.146445 302.327592 
L 390.878238 302.327592 
z
" style="fill:#1f77b4;opacity:0.75;"/>
   </g>
   <g id="patch_254">
    <path clip-path="url(#p12abc189e8)" d="M 392.146376 307.584 
L 393.414514 307.584 
L 393.414514 300.327361 
L 392.146376 300.327361 
z
" style="fill:#1f77b4;opacity:0.75;"/>
   </g>
   <g id="patch_255">
    <path clip-path="url(#p12abc189e8)" d="M 393.414514 307.584 
L 394.682721 307.584 
L 394.682721 299.999911 
L 393.414514 299.999911 
z
" style="fill:#1f77b4;opacity:0.75;"/>
   </g>
   <g id="patch_256">
    <path clip-path="url(#p12abc189e8)" d="M 394.68279 307.584 
L 395.950996 307.584 
L 395.950996 301.966966 
L 394.68279 301.966966 
z
" style="fill:#1f77b4;opacity:0.75;"/>
   </g>
   <g id="patch_257">
    <path clip-path="url(#p12abc189e8)" d="M 395.950928 307.584 
L 397.219066 307.584 
L 397.219066 302.338237 
L 395.950928 302.338237 
z
" style="fill:#1f77b4;opacity:0.75;"/>
   </g>
   <g id="patch_258">
    <path clip-path="url(#p12abc189e8)" d="M 397.219066 307.584 
L 398.487273 307.584 
L 398.487273 301.464274 
L 397.219066 301.464274 
z
" style="fill:#1f77b4;opacity:0.75;"/>
   </g>
   <g id="matplotlib.axis_1">
    <g id="xtick_1">
     <g id="line2d_1">
      <path clip-path="url(#p12abc189e8)" d="M 82.613263 307.584 
L 82.613263 41.472 
" style="fill:none;stroke:#b0b0b0;stroke-linecap:square;stroke-width:0.8;"/>
     </g>
     <g id="line2d_2">
      <defs>
       <path d="M 0 0 
L 0 3.5 
" id="mbd44db8638" style="stroke:#000000;stroke-width:0.8;"/>
      </defs>
      <g>
       <use style="stroke:#000000;stroke-width:0.8;" x="82.613263" xlink:href="#mbd44db8638" y="307.584"/>
      </g>
     </g>
     <g id="text_1">
      <!-- 70 -->
      <g transform="translate(76.250763 322.182437)scale(0.1 -0.1)">
       <defs>
        <path d="M 8.203125 72.90625 
L 55.078125 72.90625 
L 55.078125 68.703125 
L 28.609375 0 
L 18.3125 0 
L 43.21875 64.59375 
L 8.203125 64.59375 
z
" id="DejaVuSans-55"/>
        <path d="M 31.78125 66.40625 
Q 24.171875 66.40625 20.328125 58.90625 
Q 16.5 51.421875 16.5 36.375 
Q 16.5 21.390625 20.328125 13.890625 
Q 24.171875 6.390625 31.78125 6.390625 
Q 39.453125 6.390625 43.28125 13.890625 
Q 47.125 21.390625 47.125 36.375 
Q 47.125 51.421875 43.28125 58.90625 
Q 39.453125 66.40625 31.78125 66.40625 
z
M 31.78125 74.21875 
Q 44.046875 74.21875 50.515625 64.515625 
Q 56.984375 54.828125 56.984375 36.375 
Q 56.984375 17.96875 50.515625 8.265625 
Q 44.046875 -1.421875 31.78125 -1.421875 
Q 19.53125 -1.421875 13.0625 8.265625 
Q 6.59375 17.96875 6.59375 36.375 
Q 6.59375 54.828125 13.0625 64.515625 
Q 19.53125 74.21875 31.78125 74.21875 
z
" id="DejaVuSans-48"/>
       </defs>
       <use xlink:href="#DejaVuSans-55"/>
       <use x="63.623047" xlink:href="#DejaVuSans-48"/>
      </g>
     </g>
    </g>
    <g id="xtick_2">
     <g id="line2d_3">
      <path clip-path="url(#p12abc189e8)" d="M 127.498068 307.584 
L 127.498068 41.472 
" style="fill:none;stroke:#b0b0b0;stroke-linecap:square;stroke-width:0.8;"/>
     </g>
     <g id="line2d_4">
      <g>
       <use style="stroke:#000000;stroke-width:0.8;" x="127.498068" xlink:href="#mbd44db8638" y="307.584"/>
      </g>
     </g>
     <g id="text_2">
      <!-- 80 -->
      <g transform="translate(121.135568 322.182437)scale(0.1 -0.1)">
       <defs>
        <path d="M 31.78125 34.625 
Q 24.75 34.625 20.71875 30.859375 
Q 16.703125 27.09375 16.703125 20.515625 
Q 16.703125 13.921875 20.71875 10.15625 
Q 24.75 6.390625 31.78125 6.390625 
Q 38.8125 6.390625 42.859375 10.171875 
Q 46.921875 13.96875 46.921875 20.515625 
Q 46.921875 27.09375 42.890625 30.859375 
Q 38.875 34.625 31.78125 34.625 
z
M 21.921875 38.8125 
Q 15.578125 40.375 12.03125 44.71875 
Q 8.5 49.078125 8.5 55.328125 
Q 8.5 64.0625 14.71875 69.140625 
Q 20.953125 74.21875 31.78125 74.21875 
Q 42.671875 74.21875 48.875 69.140625 
Q 55.078125 64.0625 55.078125 55.328125 
Q 55.078125 49.078125 51.53125 44.71875 
Q 48 40.375 41.703125 38.8125 
Q 48.828125 37.15625 52.796875 32.3125 
Q 56.78125 27.484375 56.78125 20.515625 
Q 56.78125 9.90625 50.3125 4.234375 
Q 43.84375 -1.421875 31.78125 -1.421875 
Q 19.734375 -1.421875 13.25 4.234375 
Q 6.78125 9.90625 6.78125 20.515625 
Q 6.78125 27.484375 10.78125 32.3125 
Q 14.796875 37.15625 21.921875 38.8125 
z
M 18.3125 54.390625 
Q 18.3125 48.734375 21.84375 45.5625 
Q 25.390625 42.390625 31.78125 42.390625 
Q 38.140625 42.390625 41.71875 45.5625 
Q 45.3125 48.734375 45.3125 54.390625 
Q 45.3125 60.0625 41.71875 63.234375 
Q 38.140625 66.40625 31.78125 66.40625 
Q 25.390625 66.40625 21.84375 63.234375 
Q 18.3125 60.0625 18.3125 54.390625 
z
" id="DejaVuSans-56"/>
       </defs>
       <use xlink:href="#DejaVuSans-56"/>
       <use x="63.623047" xlink:href="#DejaVuSans-48"/>
      </g>
     </g>
    </g>
    <g id="xtick_3">
     <g id="line2d_5">
      <path clip-path="url(#p12abc189e8)" d="M 172.382873 307.584 
L 172.382873 41.472 
" style="fill:none;stroke:#b0b0b0;stroke-linecap:square;stroke-width:0.8;"/>
     </g>
     <g id="line2d_6">
      <g>
       <use style="stroke:#000000;stroke-width:0.8;" x="172.382873" xlink:href="#mbd44db8638" y="307.584"/>
      </g>
     </g>
     <g id="text_3">
      <!-- 90 -->
      <g transform="translate(166.020373 322.182437)scale(0.1 -0.1)">
       <defs>
        <path d="M 10.984375 1.515625 
L 10.984375 10.5 
Q 14.703125 8.734375 18.5 7.8125 
Q 22.3125 6.890625 25.984375 6.890625 
Q 35.75 6.890625 40.890625 13.453125 
Q 46.046875 20.015625 46.78125 33.40625 
Q 43.953125 29.203125 39.59375 26.953125 
Q 35.25 24.703125 29.984375 24.703125 
Q 19.046875 24.703125 12.671875 31.3125 
Q 6.296875 37.9375 6.296875 49.421875 
Q 6.296875 60.640625 12.9375 67.421875 
Q 19.578125 74.21875 30.609375 74.21875 
Q 43.265625 74.21875 49.921875 64.515625 
Q 56.59375 54.828125 56.59375 36.375 
Q 56.59375 19.140625 48.40625 8.859375 
Q 40.234375 -1.421875 26.421875 -1.421875 
Q 22.703125 -1.421875 18.890625 -0.6875 
Q 15.09375 0.046875 10.984375 1.515625 
z
M 30.609375 32.421875 
Q 37.25 32.421875 41.125 36.953125 
Q 45.015625 41.5 45.015625 49.421875 
Q 45.015625 57.28125 41.125 61.84375 
Q 37.25 66.40625 30.609375 66.40625 
Q 23.96875 66.40625 20.09375 61.84375 
Q 16.21875 57.28125 16.21875 49.421875 
Q 16.21875 41.5 20.09375 36.953125 
Q 23.96875 32.421875 30.609375 32.421875 
z
" id="DejaVuSans-57"/>
       </defs>
       <use xlink:href="#DejaVuSans-57"/>
       <use x="63.623047" xlink:href="#DejaVuSans-48"/>
      </g>
     </g>
    </g>
    <g id="xtick_4">
     <g id="line2d_7">
      <path clip-path="url(#p12abc189e8)" d="M 217.267679 307.584 
L 217.267679 41.472 
" style="fill:none;stroke:#b0b0b0;stroke-linecap:square;stroke-width:0.8;"/>
     </g>
     <g id="line2d_8">
      <g>
       <use style="stroke:#000000;stroke-width:0.8;" x="217.267679" xlink:href="#mbd44db8638" y="307.584"/>
      </g>
     </g>
     <g id="text_4">
      <!-- 100 -->
      <g transform="translate(207.723929 322.182437)scale(0.1 -0.1)">
       <defs>
        <path d="M 12.40625 8.296875 
L 28.515625 8.296875 
L 28.515625 63.921875 
L 10.984375 60.40625 
L 10.984375 69.390625 
L 28.421875 72.90625 
L 38.28125 72.90625 
L 38.28125 8.296875 
L 54.390625 8.296875 
L 54.390625 0 
L 12.40625 0 
z
" id="DejaVuSans-49"/>
       </defs>
       <use xlink:href="#DejaVuSans-49"/>
       <use x="63.623047" xlink:href="#DejaVuSans-48"/>
       <use x="127.246094" xlink:href="#DejaVuSans-48"/>
      </g>
     </g>
    </g>
    <g id="xtick_5">
     <g id="line2d_9">
      <path clip-path="url(#p12abc189e8)" d="M 262.152484 307.584 
L 262.152484 41.472 
" style="fill:none;stroke:#b0b0b0;stroke-linecap:square;stroke-width:0.8;"/>
     </g>
     <g id="line2d_10">
      <g>
       <use style="stroke:#000000;stroke-width:0.8;" x="262.152484" xlink:href="#mbd44db8638" y="307.584"/>
      </g>
     </g>
     <g id="text_5">
      <!-- 110 -->
      <g transform="translate(252.608734 322.182437)scale(0.1 -0.1)">
       <use xlink:href="#DejaVuSans-49"/>
       <use x="63.623047" xlink:href="#DejaVuSans-49"/>
       <use x="127.246094" xlink:href="#DejaVuSans-48"/>
      </g>
     </g>
    </g>
    <g id="xtick_6">
     <g id="line2d_11">
      <path clip-path="url(#p12abc189e8)" d="M 307.03729 307.584 
L 307.03729 41.472 
" style="fill:none;stroke:#b0b0b0;stroke-linecap:square;stroke-width:0.8;"/>
     </g>
     <g id="line2d_12">
      <g>
       <use style="stroke:#000000;stroke-width:0.8;" x="307.03729" xlink:href="#mbd44db8638" y="307.584"/>
      </g>
     </g>
     <g id="text_6">
      <!-- 120 -->
      <g transform="translate(297.49354 322.182437)scale(0.1 -0.1)">
       <defs>
        <path d="M 19.1875 8.296875 
L 53.609375 8.296875 
L 53.609375 0 
L 7.328125 0 
L 7.328125 8.296875 
Q 12.9375 14.109375 22.625 23.890625 
Q 32.328125 33.6875 34.8125 36.53125 
Q 39.546875 41.84375 41.421875 45.53125 
Q 43.3125 49.21875 43.3125 52.78125 
Q 43.3125 58.59375 39.234375 62.25 
Q 35.15625 65.921875 28.609375 65.921875 
Q 23.96875 65.921875 18.8125 64.3125 
Q 13.671875 62.703125 7.8125 59.421875 
L 7.8125 69.390625 
Q 13.765625 71.78125 18.9375 73 
Q 24.125 74.21875 28.421875 74.21875 
Q 39.75 74.21875 46.484375 68.546875 
Q 53.21875 62.890625 53.21875 53.421875 
Q 53.21875 48.921875 51.53125 44.890625 
Q 49.859375 40.875 45.40625 35.40625 
Q 44.1875 33.984375 37.640625 27.21875 
Q 31.109375 20.453125 19.1875 8.296875 
z
" id="DejaVuSans-50"/>
       </defs>
       <use xlink:href="#DejaVuSans-49"/>
       <use x="63.623047" xlink:href="#DejaVuSans-50"/>
       <use x="127.246094" xlink:href="#DejaVuSans-48"/>
      </g>
     </g>
    </g>
    <g id="xtick_7">
     <g id="line2d_13">
      <path clip-path="url(#p12abc189e8)" d="M 351.922095 307.584 
L 351.922095 41.472 
" style="fill:none;stroke:#b0b0b0;stroke-linecap:square;stroke-width:0.8;"/>
     </g>
     <g id="line2d_14">
      <g>
       <use style="stroke:#000000;stroke-width:0.8;" x="351.922095" xlink:href="#mbd44db8638" y="307.584"/>
      </g>
     </g>
     <g id="text_7">
      <!-- 130 -->
      <g transform="translate(342.378345 322.182437)scale(0.1 -0.1)">
       <defs>
        <path d="M 40.578125 39.3125 
Q 47.65625 37.796875 51.625 33 
Q 55.609375 28.21875 55.609375 21.1875 
Q 55.609375 10.40625 48.1875 4.484375 
Q 40.765625 -1.421875 27.09375 -1.421875 
Q 22.515625 -1.421875 17.65625 -0.515625 
Q 12.796875 0.390625 7.625 2.203125 
L 7.625 11.71875 
Q 11.71875 9.328125 16.59375 8.109375 
Q 21.484375 6.890625 26.8125 6.890625 
Q 36.078125 6.890625 40.9375 10.546875 
Q 45.796875 14.203125 45.796875 21.1875 
Q 45.796875 27.640625 41.28125 31.265625 
Q 36.765625 34.90625 28.71875 34.90625 
L 20.21875 34.90625 
L 20.21875 43.015625 
L 29.109375 43.015625 
Q 36.375 43.015625 40.234375 45.921875 
Q 44.09375 48.828125 44.09375 54.296875 
Q 44.09375 59.90625 40.109375 62.90625 
Q 36.140625 65.921875 28.71875 65.921875 
Q 24.65625 65.921875 20.015625 65.03125 
Q 15.375 64.15625 9.8125 62.3125 
L 9.8125 71.09375 
Q 15.4375 72.65625 20.34375 73.4375 
Q 25.25 74.21875 29.59375 74.21875 
Q 40.828125 74.21875 47.359375 69.109375 
Q 53.90625 64.015625 53.90625 55.328125 
Q 53.90625 49.265625 50.4375 45.09375 
Q 46.96875 40.921875 40.578125 39.3125 
z
" id="DejaVuSans-51"/>
       </defs>
       <use xlink:href="#DejaVuSans-49"/>
       <use x="63.623047" xlink:href="#DejaVuSans-51"/>
       <use x="127.246094" xlink:href="#DejaVuSans-48"/>
      </g>
     </g>
    </g>
    <g id="xtick_8">
     <g id="line2d_15">
      <path clip-path="url(#p12abc189e8)" d="M 396.806901 307.584 
L 396.806901 41.472 
" style="fill:none;stroke:#b0b0b0;stroke-linecap:square;stroke-width:0.8;"/>
     </g>
     <g id="line2d_16">
      <g>
       <use style="stroke:#000000;stroke-width:0.8;" x="396.806901" xlink:href="#mbd44db8638" y="307.584"/>
      </g>
     </g>
     <g id="text_8">
      <!-- 140 -->
      <g transform="translate(387.263151 322.182437)scale(0.1 -0.1)">
       <defs>
        <path d="M 37.796875 64.3125 
L 12.890625 25.390625 
L 37.796875 25.390625 
z
M 35.203125 72.90625 
L 47.609375 72.90625 
L 47.609375 25.390625 
L 58.015625 25.390625 
L 58.015625 17.1875 
L 47.609375 17.1875 
L 47.609375 0 
L 37.796875 0 
L 37.796875 17.1875 
L 4.890625 17.1875 
L 4.890625 26.703125 
z
" id="DejaVuSans-52"/>
       </defs>
       <use xlink:href="#DejaVuSans-49"/>
       <use x="63.623047" xlink:href="#DejaVuSans-52"/>
       <use x="127.246094" xlink:href="#DejaVuSans-48"/>
      </g>
     </g>
    </g>
    <g id="text_9">
     <!-- weights -->
     <g transform="translate(216.6975 335.860562)scale(0.1 -0.1)">
      <defs>
       <path d="M 4.203125 54.6875 
L 13.1875 54.6875 
L 24.421875 12.015625 
L 35.59375 54.6875 
L 46.1875 54.6875 
L 57.421875 12.015625 
L 68.609375 54.6875 
L 77.59375 54.6875 
L 63.28125 0 
L 52.6875 0 
L 40.921875 44.828125 
L 29.109375 0 
L 18.5 0 
z
" id="DejaVuSans-119"/>
       <path d="M 56.203125 29.59375 
L 56.203125 25.203125 
L 14.890625 25.203125 
Q 15.484375 15.921875 20.484375 11.0625 
Q 25.484375 6.203125 34.421875 6.203125 
Q 39.59375 6.203125 44.453125 7.46875 
Q 49.3125 8.734375 54.109375 11.28125 
L 54.109375 2.78125 
Q 49.265625 0.734375 44.1875 -0.34375 
Q 39.109375 -1.421875 33.890625 -1.421875 
Q 20.796875 -1.421875 13.15625 6.1875 
Q 5.515625 13.8125 5.515625 26.8125 
Q 5.515625 40.234375 12.765625 48.109375 
Q 20.015625 56 32.328125 56 
Q 43.359375 56 49.78125 48.890625 
Q 56.203125 41.796875 56.203125 29.59375 
z
M 47.21875 32.234375 
Q 47.125 39.59375 43.09375 43.984375 
Q 39.0625 48.390625 32.421875 48.390625 
Q 24.90625 48.390625 20.390625 44.140625 
Q 15.875 39.890625 15.1875 32.171875 
z
" id="DejaVuSans-101"/>
       <path d="M 9.421875 54.6875 
L 18.40625 54.6875 
L 18.40625 0 
L 9.421875 0 
z
M 9.421875 75.984375 
L 18.40625 75.984375 
L 18.40625 64.59375 
L 9.421875 64.59375 
z
" id="DejaVuSans-105"/>
       <path d="M 45.40625 27.984375 
Q 45.40625 37.75 41.375 43.109375 
Q 37.359375 48.484375 30.078125 48.484375 
Q 22.859375 48.484375 18.828125 43.109375 
Q 14.796875 37.75 14.796875 27.984375 
Q 14.796875 18.265625 18.828125 12.890625 
Q 22.859375 7.515625 30.078125 7.515625 
Q 37.359375 7.515625 41.375 12.890625 
Q 45.40625 18.265625 45.40625 27.984375 
z
M 54.390625 6.78125 
Q 54.390625 -7.171875 48.1875 -13.984375 
Q 42 -20.796875 29.203125 -20.796875 
Q 24.46875 -20.796875 20.265625 -20.09375 
Q 16.0625 -19.390625 12.109375 -17.921875 
L 12.109375 -9.1875 
Q 16.0625 -11.328125 19.921875 -12.34375 
Q 23.78125 -13.375 27.78125 -13.375 
Q 36.625 -13.375 41.015625 -8.765625 
Q 45.40625 -4.15625 45.40625 5.171875 
L 45.40625 9.625 
Q 42.625 4.78125 38.28125 2.390625 
Q 33.9375 0 27.875 0 
Q 17.828125 0 11.671875 7.65625 
Q 5.515625 15.328125 5.515625 27.984375 
Q 5.515625 40.671875 11.671875 48.328125 
Q 17.828125 56 27.875 56 
Q 33.9375 56 38.28125 53.609375 
Q 42.625 51.21875 45.40625 46.390625 
L 45.40625 54.6875 
L 54.390625 54.6875 
z
" id="DejaVuSans-103"/>
       <path d="M 54.890625 33.015625 
L 54.890625 0 
L 45.90625 0 
L 45.90625 32.71875 
Q 45.90625 40.484375 42.875 44.328125 
Q 39.84375 48.1875 33.796875 48.1875 
Q 26.515625 48.1875 22.3125 43.546875 
Q 18.109375 38.921875 18.109375 30.90625 
L 18.109375 0 
L 9.078125 0 
L 9.078125 75.984375 
L 18.109375 75.984375 
L 18.109375 46.1875 
Q 21.34375 51.125 25.703125 53.5625 
Q 30.078125 56 35.796875 56 
Q 45.21875 56 50.046875 50.171875 
Q 54.890625 44.34375 54.890625 33.015625 
z
" id="DejaVuSans-104"/>
       <path d="M 18.3125 70.21875 
L 18.3125 54.6875 
L 36.8125 54.6875 
L 36.8125 47.703125 
L 18.3125 47.703125 
L 18.3125 18.015625 
Q 18.3125 11.328125 20.140625 9.421875 
Q 21.96875 7.515625 27.59375 7.515625 
L 36.8125 7.515625 
L 36.8125 0 
L 27.59375 0 
Q 17.1875 0 13.234375 3.875 
Q 9.28125 7.765625 9.28125 18.015625 
L 9.28125 47.703125 
L 2.6875 47.703125 
L 2.6875 54.6875 
L 9.28125 54.6875 
L 9.28125 70.21875 
z
" id="DejaVuSans-116"/>
       <path d="M 44.28125 53.078125 
L 44.28125 44.578125 
Q 40.484375 46.53125 36.375 47.5 
Q 32.28125 48.484375 27.875 48.484375 
Q 21.1875 48.484375 17.84375 46.4375 
Q 14.5 44.390625 14.5 40.28125 
Q 14.5 37.15625 16.890625 35.375 
Q 19.28125 33.59375 26.515625 31.984375 
L 29.59375 31.296875 
Q 39.15625 29.25 43.1875 25.515625 
Q 47.21875 21.78125 47.21875 15.09375 
Q 47.21875 7.46875 41.1875 3.015625 
Q 35.15625 -1.421875 24.609375 -1.421875 
Q 20.21875 -1.421875 15.453125 -0.5625 
Q 10.6875 0.296875 5.421875 2 
L 5.421875 11.28125 
Q 10.40625 8.6875 15.234375 7.390625 
Q 20.0625 6.109375 24.8125 6.109375 
Q 31.15625 6.109375 34.5625 8.28125 
Q 37.984375 10.453125 37.984375 14.40625 
Q 37.984375 18.0625 35.515625 20.015625 
Q 33.0625 21.96875 24.703125 23.78125 
L 21.578125 24.515625 
Q 13.234375 26.265625 9.515625 29.90625 
Q 5.8125 33.546875 5.8125 39.890625 
Q 5.8125 47.609375 11.28125 51.796875 
Q 16.75 56 26.8125 56 
Q 31.78125 56 36.171875 55.265625 
Q 40.578125 54.546875 44.28125 53.078125 
z
" id="DejaVuSans-115"/>
      </defs>
      <use xlink:href="#DejaVuSans-119"/>
      <use x="81.787109" xlink:href="#DejaVuSans-101"/>
      <use x="143.310547" xlink:href="#DejaVuSans-105"/>
      <use x="171.09375" xlink:href="#DejaVuSans-103"/>
      <use x="234.570312" xlink:href="#DejaVuSans-104"/>
      <use x="297.949219" xlink:href="#DejaVuSans-116"/>
      <use x="337.158203" xlink:href="#DejaVuSans-115"/>
     </g>
    </g>
   </g>
   <g id="matplotlib.axis_2">
    <g id="ytick_1">
     <g id="line2d_17">
      <path clip-path="url(#p12abc189e8)" d="M 57.6 307.584 
L 414.72 307.584 
" style="fill:none;stroke:#b0b0b0;stroke-linecap:square;stroke-width:0.8;"/>
     </g>
     <g id="line2d_18">
      <defs>
       <path d="M 0 0 
L -3.5 0 
" id="m23079686d3" style="stroke:#000000;stroke-width:0.8;"/>
      </defs>
      <g>
       <use style="stroke:#000000;stroke-width:0.8;" x="57.6" xlink:href="#m23079686d3" y="307.584"/>
      </g>
     </g>
     <g id="text_10">
      <!-- 0.000 -->
      <g transform="translate(21.971875 311.383219)scale(0.1 -0.1)">
       <defs>
        <path d="M 10.6875 12.40625 
L 21 12.40625 
L 21 0 
L 10.6875 0 
z
" id="DejaVuSans-46"/>
       </defs>
       <use xlink:href="#DejaVuSans-48"/>
       <use x="63.623047" xlink:href="#DejaVuSans-46"/>
       <use x="95.410156" xlink:href="#DejaVuSans-48"/>
       <use x="159.033203" xlink:href="#DejaVuSans-48"/>
       <use x="222.65625" xlink:href="#DejaVuSans-48"/>
      </g>
     </g>
    </g>
    <g id="ytick_2">
     <g id="line2d_19">
      <path clip-path="url(#p12abc189e8)" d="M 57.6 275.012056 
L 414.72 275.012056 
" style="fill:none;stroke:#b0b0b0;stroke-linecap:square;stroke-width:0.8;"/>
     </g>
     <g id="line2d_20">
      <g>
       <use style="stroke:#000000;stroke-width:0.8;" x="57.6" xlink:href="#m23079686d3" y="275.012056"/>
      </g>
     </g>
     <g id="text_11">
      <!-- 0.005 -->
      <g transform="translate(21.971875 278.811275)scale(0.1 -0.1)">
       <defs>
        <path d="M 10.796875 72.90625 
L 49.515625 72.90625 
L 49.515625 64.59375 
L 19.828125 64.59375 
L 19.828125 46.734375 
Q 21.96875 47.46875 24.109375 47.828125 
Q 26.265625 48.1875 28.421875 48.1875 
Q 40.625 48.1875 47.75 41.5 
Q 54.890625 34.8125 54.890625 23.390625 
Q 54.890625 11.625 47.5625 5.09375 
Q 40.234375 -1.421875 26.90625 -1.421875 
Q 22.3125 -1.421875 17.546875 -0.640625 
Q 12.796875 0.140625 7.71875 1.703125 
L 7.71875 11.625 
Q 12.109375 9.234375 16.796875 8.0625 
Q 21.484375 6.890625 26.703125 6.890625 
Q 35.15625 6.890625 40.078125 11.328125 
Q 45.015625 15.765625 45.015625 23.390625 
Q 45.015625 31 40.078125 35.4375 
Q 35.15625 39.890625 26.703125 39.890625 
Q 22.75 39.890625 18.8125 39.015625 
Q 14.890625 38.140625 10.796875 36.28125 
z
" id="DejaVuSans-53"/>
       </defs>
       <use xlink:href="#DejaVuSans-48"/>
       <use x="63.623047" xlink:href="#DejaVuSans-46"/>
       <use x="95.410156" xlink:href="#DejaVuSans-48"/>
       <use x="159.033203" xlink:href="#DejaVuSans-48"/>
       <use x="222.65625" xlink:href="#DejaVuSans-53"/>
      </g>
     </g>
    </g>
    <g id="ytick_3">
     <g id="line2d_21">
      <path clip-path="url(#p12abc189e8)" d="M 57.6 242.440112 
L 414.72 242.440112 
" style="fill:none;stroke:#b0b0b0;stroke-linecap:square;stroke-width:0.8;"/>
     </g>
     <g id="line2d_22">
      <g>
       <use style="stroke:#000000;stroke-width:0.8;" x="57.6" xlink:href="#m23079686d3" y="242.440112"/>
      </g>
     </g>
     <g id="text_12">
      <!-- 0.010 -->
      <g transform="translate(21.971875 246.239331)scale(0.1 -0.1)">
       <use xlink:href="#DejaVuSans-48"/>
       <use x="63.623047" xlink:href="#DejaVuSans-46"/>
       <use x="95.410156" xlink:href="#DejaVuSans-48"/>
       <use x="159.033203" xlink:href="#DejaVuSans-49"/>
       <use x="222.65625" xlink:href="#DejaVuSans-48"/>
      </g>
     </g>
    </g>
    <g id="ytick_4">
     <g id="line2d_23">
      <path clip-path="url(#p12abc189e8)" d="M 57.6 209.868168 
L 414.72 209.868168 
" style="fill:none;stroke:#b0b0b0;stroke-linecap:square;stroke-width:0.8;"/>
     </g>
     <g id="line2d_24">
      <g>
       <use style="stroke:#000000;stroke-width:0.8;" x="57.6" xlink:href="#m23079686d3" y="209.868168"/>
      </g>
     </g>
     <g id="text_13">
      <!-- 0.015 -->
      <g transform="translate(21.971875 213.667386)scale(0.1 -0.1)">
       <use xlink:href="#DejaVuSans-48"/>
       <use x="63.623047" xlink:href="#DejaVuSans-46"/>
       <use x="95.410156" xlink:href="#DejaVuSans-48"/>
       <use x="159.033203" xlink:href="#DejaVuSans-49"/>
       <use x="222.65625" xlink:href="#DejaVuSans-53"/>
      </g>
     </g>
    </g>
    <g id="ytick_5">
     <g id="line2d_25">
      <path clip-path="url(#p12abc189e8)" d="M 57.6 177.296224 
L 414.72 177.296224 
" style="fill:none;stroke:#b0b0b0;stroke-linecap:square;stroke-width:0.8;"/>
     </g>
     <g id="line2d_26">
      <g>
       <use style="stroke:#000000;stroke-width:0.8;" x="57.6" xlink:href="#m23079686d3" y="177.296224"/>
      </g>
     </g>
     <g id="text_14">
      <!-- 0.020 -->
      <g transform="translate(21.971875 181.095442)scale(0.1 -0.1)">
       <use xlink:href="#DejaVuSans-48"/>
       <use x="63.623047" xlink:href="#DejaVuSans-46"/>
       <use x="95.410156" xlink:href="#DejaVuSans-48"/>
       <use x="159.033203" xlink:href="#DejaVuSans-50"/>
       <use x="222.65625" xlink:href="#DejaVuSans-48"/>
      </g>
     </g>
    </g>
    <g id="ytick_6">
     <g id="line2d_27">
      <path clip-path="url(#p12abc189e8)" d="M 57.6 144.724279 
L 414.72 144.724279 
" style="fill:none;stroke:#b0b0b0;stroke-linecap:square;stroke-width:0.8;"/>
     </g>
     <g id="line2d_28">
      <g>
       <use style="stroke:#000000;stroke-width:0.8;" x="57.6" xlink:href="#m23079686d3" y="144.724279"/>
      </g>
     </g>
     <g id="text_15">
      <!-- 0.025 -->
      <g transform="translate(21.971875 148.523498)scale(0.1 -0.1)">
       <use xlink:href="#DejaVuSans-48"/>
       <use x="63.623047" xlink:href="#DejaVuSans-46"/>
       <use x="95.410156" xlink:href="#DejaVuSans-48"/>
       <use x="159.033203" xlink:href="#DejaVuSans-50"/>
       <use x="222.65625" xlink:href="#DejaVuSans-53"/>
      </g>
     </g>
    </g>
    <g id="ytick_7">
     <g id="line2d_29">
      <path clip-path="url(#p12abc189e8)" d="M 57.6 112.152335 
L 414.72 112.152335 
" style="fill:none;stroke:#b0b0b0;stroke-linecap:square;stroke-width:0.8;"/>
     </g>
     <g id="line2d_30">
      <g>
       <use style="stroke:#000000;stroke-width:0.8;" x="57.6" xlink:href="#m23079686d3" y="112.152335"/>
      </g>
     </g>
     <g id="text_16">
      <!-- 0.030 -->
      <g transform="translate(21.971875 115.951554)scale(0.1 -0.1)">
       <use xlink:href="#DejaVuSans-48"/>
       <use x="63.623047" xlink:href="#DejaVuSans-46"/>
       <use x="95.410156" xlink:href="#DejaVuSans-48"/>
       <use x="159.033203" xlink:href="#DejaVuSans-51"/>
       <use x="222.65625" xlink:href="#DejaVuSans-48"/>
      </g>
     </g>
    </g>
    <g id="ytick_8">
     <g id="line2d_31">
      <path clip-path="url(#p12abc189e8)" d="M 57.6 79.580391 
L 414.72 79.580391 
" style="fill:none;stroke:#b0b0b0;stroke-linecap:square;stroke-width:0.8;"/>
     </g>
     <g id="line2d_32">
      <g>
       <use style="stroke:#000000;stroke-width:0.8;" x="57.6" xlink:href="#m23079686d3" y="79.580391"/>
      </g>
     </g>
     <g id="text_17">
      <!-- 0.035 -->
      <g transform="translate(21.971875 83.37961)scale(0.1 -0.1)">
       <use xlink:href="#DejaVuSans-48"/>
       <use x="63.623047" xlink:href="#DejaVuSans-46"/>
       <use x="95.410156" xlink:href="#DejaVuSans-48"/>
       <use x="159.033203" xlink:href="#DejaVuSans-51"/>
       <use x="222.65625" xlink:href="#DejaVuSans-53"/>
      </g>
     </g>
    </g>
    <g id="ytick_9">
     <g id="line2d_33">
      <path clip-path="url(#p12abc189e8)" d="M 57.6 47.008447 
L 414.72 47.008447 
" style="fill:none;stroke:#b0b0b0;stroke-linecap:square;stroke-width:0.8;"/>
     </g>
     <g id="line2d_34">
      <g>
       <use style="stroke:#000000;stroke-width:0.8;" x="57.6" xlink:href="#m23079686d3" y="47.008447"/>
      </g>
     </g>
     <g id="text_18">
      <!-- 0.040 -->
      <g transform="translate(21.971875 50.807666)scale(0.1 -0.1)">
       <use xlink:href="#DejaVuSans-48"/>
       <use x="63.623047" xlink:href="#DejaVuSans-46"/>
       <use x="95.410156" xlink:href="#DejaVuSans-48"/>
       <use x="159.033203" xlink:href="#DejaVuSans-52"/>
       <use x="222.65625" xlink:href="#DejaVuSans-48"/>
      </g>
     </g>
    </g>
    <g id="text_19">
     <!-- Probability -->
     <g transform="translate(15.892187 200.956906)rotate(-90)scale(0.1 -0.1)">
      <defs>
       <path d="M 19.671875 64.796875 
L 19.671875 37.40625 
L 32.078125 37.40625 
Q 38.96875 37.40625 42.71875 40.96875 
Q 46.484375 44.53125 46.484375 51.125 
Q 46.484375 57.671875 42.71875 61.234375 
Q 38.96875 64.796875 32.078125 64.796875 
z
M 9.8125 72.90625 
L 32.078125 72.90625 
Q 44.34375 72.90625 50.609375 67.359375 
Q 56.890625 61.8125 56.890625 51.125 
Q 56.890625 40.328125 50.609375 34.8125 
Q 44.34375 29.296875 32.078125 29.296875 
L 19.671875 29.296875 
L 19.671875 0 
L 9.8125 0 
z
" id="DejaVuSans-80"/>
       <path d="M 41.109375 46.296875 
Q 39.59375 47.171875 37.8125 47.578125 
Q 36.03125 48 33.890625 48 
Q 26.265625 48 22.1875 43.046875 
Q 18.109375 38.09375 18.109375 28.8125 
L 18.109375 0 
L 9.078125 0 
L 9.078125 54.6875 
L 18.109375 54.6875 
L 18.109375 46.1875 
Q 20.953125 51.171875 25.484375 53.578125 
Q 30.03125 56 36.53125 56 
Q 37.453125 56 38.578125 55.875 
Q 39.703125 55.765625 41.0625 55.515625 
z
" id="DejaVuSans-114"/>
       <path d="M 30.609375 48.390625 
Q 23.390625 48.390625 19.1875 42.75 
Q 14.984375 37.109375 14.984375 27.296875 
Q 14.984375 17.484375 19.15625 11.84375 
Q 23.34375 6.203125 30.609375 6.203125 
Q 37.796875 6.203125 41.984375 11.859375 
Q 46.1875 17.53125 46.1875 27.296875 
Q 46.1875 37.015625 41.984375 42.703125 
Q 37.796875 48.390625 30.609375 48.390625 
z
M 30.609375 56 
Q 42.328125 56 49.015625 48.375 
Q 55.71875 40.765625 55.71875 27.296875 
Q 55.71875 13.875 49.015625 6.21875 
Q 42.328125 -1.421875 30.609375 -1.421875 
Q 18.84375 -1.421875 12.171875 6.21875 
Q 5.515625 13.875 5.515625 27.296875 
Q 5.515625 40.765625 12.171875 48.375 
Q 18.84375 56 30.609375 56 
z
" id="DejaVuSans-111"/>
       <path d="M 48.6875 27.296875 
Q 48.6875 37.203125 44.609375 42.84375 
Q 40.53125 48.484375 33.40625 48.484375 
Q 26.265625 48.484375 22.1875 42.84375 
Q 18.109375 37.203125 18.109375 27.296875 
Q 18.109375 17.390625 22.1875 11.75 
Q 26.265625 6.109375 33.40625 6.109375 
Q 40.53125 6.109375 44.609375 11.75 
Q 48.6875 17.390625 48.6875 27.296875 
z
M 18.109375 46.390625 
Q 20.953125 51.265625 25.265625 53.625 
Q 29.59375 56 35.59375 56 
Q 45.5625 56 51.78125 48.09375 
Q 58.015625 40.1875 58.015625 27.296875 
Q 58.015625 14.40625 51.78125 6.484375 
Q 45.5625 -1.421875 35.59375 -1.421875 
Q 29.59375 -1.421875 25.265625 0.953125 
Q 20.953125 3.328125 18.109375 8.203125 
L 18.109375 0 
L 9.078125 0 
L 9.078125 75.984375 
L 18.109375 75.984375 
z
" id="DejaVuSans-98"/>
       <path d="M 34.28125 27.484375 
Q 23.390625 27.484375 19.1875 25 
Q 14.984375 22.515625 14.984375 16.5 
Q 14.984375 11.71875 18.140625 8.90625 
Q 21.296875 6.109375 26.703125 6.109375 
Q 34.1875 6.109375 38.703125 11.40625 
Q 43.21875 16.703125 43.21875 25.484375 
L 43.21875 27.484375 
z
M 52.203125 31.203125 
L 52.203125 0 
L 43.21875 0 
L 43.21875 8.296875 
Q 40.140625 3.328125 35.546875 0.953125 
Q 30.953125 -1.421875 24.3125 -1.421875 
Q 15.921875 -1.421875 10.953125 3.296875 
Q 6 8.015625 6 15.921875 
Q 6 25.140625 12.171875 29.828125 
Q 18.359375 34.515625 30.609375 34.515625 
L 43.21875 34.515625 
L 43.21875 35.40625 
Q 43.21875 41.609375 39.140625 45 
Q 35.0625 48.390625 27.6875 48.390625 
Q 23 48.390625 18.546875 47.265625 
Q 14.109375 46.140625 10.015625 43.890625 
L 10.015625 52.203125 
Q 14.9375 54.109375 19.578125 55.046875 
Q 24.21875 56 28.609375 56 
Q 40.484375 56 46.34375 49.84375 
Q 52.203125 43.703125 52.203125 31.203125 
z
" id="DejaVuSans-97"/>
       <path d="M 9.421875 75.984375 
L 18.40625 75.984375 
L 18.40625 0 
L 9.421875 0 
z
" id="DejaVuSans-108"/>
       <path d="M 32.171875 -5.078125 
Q 28.375 -14.84375 24.75 -17.8125 
Q 21.140625 -20.796875 15.09375 -20.796875 
L 7.90625 -20.796875 
L 7.90625 -13.28125 
L 13.1875 -13.28125 
Q 16.890625 -13.28125 18.9375 -11.515625 
Q 21 -9.765625 23.484375 -3.21875 
L 25.09375 0.875 
L 2.984375 54.6875 
L 12.5 54.6875 
L 29.59375 11.921875 
L 46.6875 54.6875 
L 56.203125 54.6875 
z
" id="DejaVuSans-121"/>
      </defs>
      <use xlink:href="#DejaVuSans-80"/>
      <use x="58.552734" xlink:href="#DejaVuSans-114"/>
      <use x="97.416016" xlink:href="#DejaVuSans-111"/>
      <use x="158.597656" xlink:href="#DejaVuSans-98"/>
      <use x="222.074219" xlink:href="#DejaVuSans-97"/>
      <use x="283.353516" xlink:href="#DejaVuSans-98"/>
      <use x="346.830078" xlink:href="#DejaVuSans-105"/>
      <use x="374.613281" xlink:href="#DejaVuSans-108"/>
      <use x="402.396484" xlink:href="#DejaVuSans-105"/>
      <use x="430.179688" xlink:href="#DejaVuSans-116"/>
      <use x="469.388672" xlink:href="#DejaVuSans-121"/>
     </g>
    </g>
   </g>
   <g id="LineCollection_1">
    <path clip-path="url(#p12abc189e8)" d="M 94.123604 307.584 
L 94.123604 287.159414 
" style="fill:none;stroke:#ff0000;stroke-width:1.5;"/>
   </g>
   <g id="LineCollection_2">
    <path clip-path="url(#p12abc189e8)" d="M 114.414515 307.584 
L 114.414515 290.175095 
" style="fill:none;stroke:#ff0000;stroke-width:1.5;"/>
   </g>
   <g id="LineCollection_3">
    <path clip-path="url(#p12abc189e8)" d="M 154.996338 307.584 
L 154.996338 270.624228 
" style="fill:none;stroke:#ff0000;stroke-width:1.5;"/>
   </g>
   <g id="LineCollection_4">
    <path clip-path="url(#p12abc189e8)" d="M 195.57816 307.584 
L 195.57816 226.746792 
" style="fill:none;stroke:#ff0000;stroke-width:1.5;"/>
   </g>
   <g id="LineCollection_5">
    <path clip-path="url(#p12abc189e8)" d="M 236.159983 307.584 
L 236.159983 107.720303 
" style="fill:none;stroke:#ff0000;stroke-width:1.5;"/>
   </g>
   <g id="LineCollection_6">
    <path clip-path="url(#p12abc189e8)" d="M 276.741805 307.584 
L 276.741805 125.194306 
" style="fill:none;stroke:#ff0000;stroke-width:1.5;"/>
   </g>
   <g id="LineCollection_7">
    <path clip-path="url(#p12abc189e8)" d="M 317.323628 307.584 
L 317.323628 147.072327 
" style="fill:none;stroke:#ff0000;stroke-width:1.5;"/>
   </g>
   <g id="LineCollection_8">
    <path clip-path="url(#p12abc189e8)" d="M 357.90545 307.584 
L 357.90545 289.453332 
" style="fill:none;stroke:#ff0000;stroke-width:1.5;"/>
   </g>
   <g id="LineCollection_9">
    <path clip-path="url(#p12abc189e8)" d="M 378.196361 307.584 
L 378.196361 289.453332 
" style="fill:none;stroke:#ff0000;stroke-width:1.5;"/>
   </g>
   <g id="patch_259">
    <path d="M 57.6 307.584 
L 57.6 41.472 
" style="fill:none;stroke:#000000;stroke-linecap:square;stroke-linejoin:miter;stroke-width:0.8;"/>
   </g>
   <g id="patch_260">
    <path d="M 414.72 307.584 
L 414.72 41.472 
" style="fill:none;stroke:#000000;stroke-linecap:square;stroke-linejoin:miter;stroke-width:0.8;"/>
   </g>
   <g id="patch_261">
    <path d="M 57.6 307.584 
L 414.72 307.584 
" style="fill:none;stroke:#000000;stroke-linecap:square;stroke-linejoin:miter;stroke-width:0.8;"/>
   </g>
   <g id="patch_262">
    <path d="M 57.6 41.472 
L 414.72 41.472 
" style="fill:none;stroke:#000000;stroke-linecap:square;stroke-linejoin:miter;stroke-width:0.8;"/>
   </g>
   <g id="text_20">
    <!-- Interval Limit = 8 -->
    <g transform="translate(183.7425 35.472)scale(0.12 -0.12)">
     <defs>
      <path d="M 9.8125 72.90625 
L 19.671875 72.90625 
L 19.671875 0 
L 9.8125 0 
z
" id="DejaVuSans-73"/>
      <path d="M 54.890625 33.015625 
L 54.890625 0 
L 45.90625 0 
L 45.90625 32.71875 
Q 45.90625 40.484375 42.875 44.328125 
Q 39.84375 48.1875 33.796875 48.1875 
Q 26.515625 48.1875 22.3125 43.546875 
Q 18.109375 38.921875 18.109375 30.90625 
L 18.109375 0 
L 9.078125 0 
L 9.078125 54.6875 
L 18.109375 54.6875 
L 18.109375 46.1875 
Q 21.34375 51.125 25.703125 53.5625 
Q 30.078125 56 35.796875 56 
Q 45.21875 56 50.046875 50.171875 
Q 54.890625 44.34375 54.890625 33.015625 
z
" id="DejaVuSans-110"/>
      <path d="M 2.984375 54.6875 
L 12.5 54.6875 
L 29.59375 8.796875 
L 46.6875 54.6875 
L 56.203125 54.6875 
L 35.6875 0 
L 23.484375 0 
z
" id="DejaVuSans-118"/>
      <path id="DejaVuSans-32"/>
      <path d="M 9.8125 72.90625 
L 19.671875 72.90625 
L 19.671875 8.296875 
L 55.171875 8.296875 
L 55.171875 0 
L 9.8125 0 
z
" id="DejaVuSans-76"/>
      <path d="M 52 44.1875 
Q 55.375 50.25 60.0625 53.125 
Q 64.75 56 71.09375 56 
Q 79.640625 56 84.28125 50.015625 
Q 88.921875 44.046875 88.921875 33.015625 
L 88.921875 0 
L 79.890625 0 
L 79.890625 32.71875 
Q 79.890625 40.578125 77.09375 44.375 
Q 74.3125 48.1875 68.609375 48.1875 
Q 61.625 48.1875 57.5625 43.546875 
Q 53.515625 38.921875 53.515625 30.90625 
L 53.515625 0 
L 44.484375 0 
L 44.484375 32.71875 
Q 44.484375 40.625 41.703125 44.40625 
Q 38.921875 48.1875 33.109375 48.1875 
Q 26.21875 48.1875 22.15625 43.53125 
Q 18.109375 38.875 18.109375 30.90625 
L 18.109375 0 
L 9.078125 0 
L 9.078125 54.6875 
L 18.109375 54.6875 
L 18.109375 46.1875 
Q 21.1875 51.21875 25.484375 53.609375 
Q 29.78125 56 35.6875 56 
Q 41.65625 56 45.828125 52.96875 
Q 50 49.953125 52 44.1875 
z
" id="DejaVuSans-109"/>
      <path d="M 10.59375 45.40625 
L 73.1875 45.40625 
L 73.1875 37.203125 
L 10.59375 37.203125 
z
M 10.59375 25.484375 
L 73.1875 25.484375 
L 73.1875 17.1875 
L 10.59375 17.1875 
z
" id="DejaVuSans-61"/>
     </defs>
     <use xlink:href="#DejaVuSans-73"/>
     <use x="29.492188" xlink:href="#DejaVuSans-110"/>
     <use x="92.871094" xlink:href="#DejaVuSans-116"/>
     <use x="132.080078" xlink:href="#DejaVuSans-101"/>
     <use x="193.603516" xlink:href="#DejaVuSans-114"/>
     <use x="234.716797" xlink:href="#DejaVuSans-118"/>
     <use x="293.896484" xlink:href="#DejaVuSans-97"/>
     <use x="355.175781" xlink:href="#DejaVuSans-108"/>
     <use x="382.958984" xlink:href="#DejaVuSans-32"/>
     <use x="414.746094" xlink:href="#DejaVuSans-76"/>
     <use x="470.458984" xlink:href="#DejaVuSans-105"/>
     <use x="498.242188" xlink:href="#DejaVuSans-109"/>
     <use x="595.654297" xlink:href="#DejaVuSans-105"/>
     <use x="623.4375" xlink:href="#DejaVuSans-116"/>
     <use x="662.646484" xlink:href="#DejaVuSans-32"/>
     <use x="694.433594" xlink:href="#DejaVuSans-61"/>
     <use x="778.222656" xlink:href="#DejaVuSans-32"/>
     <use x="810.009766" xlink:href="#DejaVuSans-56"/>
    </g>
   </g>
  </g>
 </g>
 <defs>
  <clipPath id="p12abc189e8">
   <rect height="266.112" width="357.12" x="57.6" y="41.472"/>
  </clipPath>
 </defs>
</svg>
