<?xml version="1.0" encoding="utf-8" standalone="no"?>
<!DOCTYPE svg PUBLIC "-//W3C//DTD SVG 1.1//EN"
  "http://www.w3.org/Graphics/SVG/1.1/DTD/svg11.dtd">
<!-- Created with matplotlib (https://matplotlib.org/) -->
<svg height="345.6pt" version="1.1" viewBox="0 0 460.8 345.6" width="460.8pt" xmlns="http://www.w3.org/2000/svg" xmlns:xlink="http://www.w3.org/1999/xlink">
 <metadata>
  <rdf:RDF xmlns:cc="http://creativecommons.org/ns#" xmlns:dc="http://purl.org/dc/elements/1.1/" xmlns:rdf="http://www.w3.org/1999/02/22-rdf-syntax-ns#">
   <cc:Work>
    <dc:type rdf:resource="http://purl.org/dc/dcmitype/StillImage"/>
    <dc:date>2022-06-16T20:13:57.267776</dc:date>
    <dc:format>image/svg+xml</dc:format>
    <dc:creator>
     <cc:Agent>
      <dc:title>Matplotlib v3.3.3, https://matplotlib.org/</dc:title>
     </cc:Agent>
    </dc:creator>
   </cc:Work>
  </rdf:RDF>
 </metadata>
 <defs>
  <style type="text/css">*{stroke-linecap:butt;stroke-linejoin:round;}</style>
 </defs>
 <g id="figure_1">
  <g id="patch_1">
   <path d="M 0 345.6 
L 460.8 345.6 
L 460.8 0 
L 0 0 
z
" style="fill:#ffffff;"/>
  </g>
  <g id="axes_1">
   <g id="patch_2">
    <path d="M 57.6 307.584 
L 414.72 307.584 
L 414.72 41.472 
L 57.6 41.472 
z
" style="fill:#ffffff;"/>
   </g>
   <g id="patch_3">
    <path clip-path="url(#p50a46927cf)" d="M 73.832727 307.584 
L 75.100921 307.584 
L 75.100921 306.80223 
L 73.832727 306.80223 
z
" style="fill:#1f77b4;opacity:0.75;"/>
   </g>
   <g id="patch_4">
    <path clip-path="url(#p50a46927cf)" d="M 75.100921 307.584 
L 76.369069 307.584 
L 76.369069 306.772885 
L 75.100921 306.772885 
z
" style="fill:#1f77b4;opacity:0.75;"/>
   </g>
   <g id="patch_5">
    <path clip-path="url(#p50a46927cf)" d="M 76.369069 307.584 
L 77.637263 307.584 
L 77.637263 306.577471 
L 76.369069 306.577471 
z
" style="fill:#1f77b4;opacity:0.75;"/>
   </g>
   <g id="patch_6">
    <path clip-path="url(#p50a46927cf)" d="M 77.637263 307.584 
L 78.905456 307.584 
L 78.905456 305.893423 
L 77.637263 305.893423 
z
" style="fill:#1f77b4;opacity:0.75;"/>
   </g>
   <g id="patch_7">
    <path clip-path="url(#p50a46927cf)" d="M 78.905456 307.584 
L 80.173649 307.584 
L 80.173649 305.864106 
L 78.905456 305.864106 
z
" style="fill:#1f77b4;opacity:0.75;"/>
   </g>
   <g id="patch_8">
    <path clip-path="url(#p50a46927cf)" d="M 80.173605 307.584 
L 81.441754 307.584 
L 81.441754 305.570872 
L 80.173605 305.570872 
z
" style="fill:#1f77b4;opacity:0.75;"/>
   </g>
   <g id="patch_9">
    <path clip-path="url(#p50a46927cf)" d="M 81.441798 307.584 
L 82.709991 307.584 
L 82.709991 305.160514 
L 81.441798 305.160514 
z
" style="fill:#1f77b4;opacity:0.75;"/>
   </g>
   <g id="patch_10">
    <path clip-path="url(#p50a46927cf)" d="M 82.709991 307.584 
L 83.978185 307.584 
L 83.978185 305.101881 
L 82.709991 305.101881 
z
" style="fill:#1f77b4;opacity:0.75;"/>
   </g>
   <g id="patch_11">
    <path clip-path="url(#p50a46927cf)" d="M 83.978185 307.584 
L 85.246378 307.584 
L 85.246378 304.994388 
L 83.978185 304.994388 
z
" style="fill:#1f77b4;opacity:0.75;"/>
   </g>
   <g id="patch_12">
    <path clip-path="url(#p50a46927cf)" d="M 85.246378 307.584 
L 86.514527 307.584 
L 86.514527 304.534991 
L 85.246378 304.534991 
z
" style="fill:#1f77b4;opacity:0.75;"/>
   </g>
   <g id="patch_13">
    <path clip-path="url(#p50a46927cf)" d="M 86.514527 307.584 
L 87.78272 307.584 
L 87.78272 304.095352 
L 86.514527 304.095352 
z
" style="fill:#1f77b4;opacity:0.75;"/>
   </g>
   <g id="patch_14">
    <path clip-path="url(#p50a46927cf)" d="M 87.78272 307.584 
L 89.050913 307.584 
L 89.050913 303.772872 
L 87.78272 303.772872 
z
" style="fill:#1f77b4;opacity:0.75;"/>
   </g>
   <g id="patch_15">
    <path clip-path="url(#p50a46927cf)" d="M 89.050913 307.584 
L 90.319107 307.584 
L 90.319107 304.251706 
L 89.050913 304.251706 
z
" style="fill:#1f77b4;opacity:0.75;"/>
   </g>
   <g id="patch_16">
    <path clip-path="url(#p50a46927cf)" d="M 90.319062 307.584 
L 91.587211 307.584 
L 91.587211 304.09523 
L 90.319062 304.09523 
z
" style="fill:#1f77b4;opacity:0.75;"/>
   </g>
   <g id="patch_17">
    <path clip-path="url(#p50a46927cf)" d="M 91.587255 307.584 
L 92.855449 307.584 
L 92.855449 304.202846 
L 91.587255 304.202846 
z
" style="fill:#1f77b4;opacity:0.75;"/>
   </g>
   <g id="patch_18">
    <path clip-path="url(#p50a46927cf)" d="M 92.855449 307.584 
L 94.123642 307.584 
L 94.123642 304.163757 
L 92.855449 304.163757 
z
" style="fill:#1f77b4;opacity:0.75;"/>
   </g>
   <g id="patch_19">
    <path clip-path="url(#p50a46927cf)" d="M 94.123642 307.584 
L 95.391835 307.584 
L 95.391835 304.378744 
L 94.123642 304.378744 
z
" style="fill:#1f77b4;opacity:0.75;"/>
   </g>
   <g id="patch_20">
    <path clip-path="url(#p50a46927cf)" d="M 95.391835 307.584 
L 96.659984 307.584 
L 96.659984 304.17341 
L 95.391835 304.17341 
z
" style="fill:#1f77b4;opacity:0.75;"/>
   </g>
   <g id="patch_21">
    <path clip-path="url(#p50a46927cf)" d="M 96.659984 307.584 
L 97.928177 307.584 
L 97.928177 304.134441 
L 96.659984 304.134441 
z
" style="fill:#1f77b4;opacity:0.75;"/>
   </g>
   <g id="patch_22">
    <path clip-path="url(#p50a46927cf)" d="M 97.928177 307.584 
L 99.196371 307.584 
L 99.196371 304.075808 
L 97.928177 304.075808 
z
" style="fill:#1f77b4;opacity:0.75;"/>
   </g>
   <g id="patch_23">
    <path clip-path="url(#p50a46927cf)" d="M 99.196371 307.584 
L 100.464564 307.584 
L 100.464564 304.007403 
L 99.196371 304.007403 
z
" style="fill:#1f77b4;opacity:0.75;"/>
   </g>
   <g id="patch_24">
    <path clip-path="url(#p50a46927cf)" d="M 100.464519 307.584 
L 101.732668 307.584 
L 101.732668 303.958415 
L 100.464519 303.958415 
z
" style="fill:#1f77b4;opacity:0.75;"/>
   </g>
   <g id="patch_25">
    <path clip-path="url(#p50a46927cf)" d="M 101.732713 307.584 
L 103.000906 307.584 
L 103.000906 303.841277 
L 101.732713 303.841277 
z
" style="fill:#1f77b4;opacity:0.75;"/>
   </g>
   <g id="patch_26">
    <path clip-path="url(#p50a46927cf)" d="M 103.000906 307.584 
L 104.269099 307.584 
L 104.269099 303.57743 
L 103.000906 303.57743 
z
" style="fill:#1f77b4;opacity:0.75;"/>
   </g>
   <g id="patch_27">
    <path clip-path="url(#p50a46927cf)" d="M 104.269099 307.584 
L 105.537293 307.584 
L 105.537293 303.724012 
L 104.269099 303.724012 
z
" style="fill:#1f77b4;opacity:0.75;"/>
   </g>
   <g id="patch_28">
    <path clip-path="url(#p50a46927cf)" d="M 105.537293 307.584 
L 106.805441 307.584 
L 106.805441 303.557744 
L 105.537293 303.557744 
z
" style="fill:#1f77b4;opacity:0.75;"/>
   </g>
   <g id="patch_29">
    <path clip-path="url(#p50a46927cf)" d="M 106.805441 307.584 
L 108.073635 307.584 
L 108.073635 303.587202 
L 106.805441 303.587202 
z
" style="fill:#1f77b4;opacity:0.75;"/>
   </g>
   <g id="patch_30">
    <path clip-path="url(#p50a46927cf)" d="M 108.073635 307.584 
L 109.341828 307.584 
L 109.341828 303.460164 
L 108.073635 303.460164 
z
" style="fill:#1f77b4;opacity:0.75;"/>
   </g>
   <g id="patch_31">
    <path clip-path="url(#p50a46927cf)" d="M 109.341828 307.584 
L 110.610021 307.584 
L 110.610021 303.333127 
L 109.341828 303.333127 
z
" style="fill:#1f77b4;opacity:0.75;"/>
   </g>
   <g id="patch_32">
    <path clip-path="url(#p50a46927cf)" d="M 110.609977 307.584 
L 111.878126 307.584 
L 111.878126 303.049576 
L 110.609977 303.049576 
z
" style="fill:#1f77b4;opacity:0.75;"/>
   </g>
   <g id="patch_33">
    <path clip-path="url(#p50a46927cf)" d="M 111.87817 307.584 
L 113.146363 307.584 
L 113.146363 302.717483 
L 111.87817 302.717483 
z
" style="fill:#1f77b4;opacity:0.75;"/>
   </g>
   <g id="patch_34">
    <path clip-path="url(#p50a46927cf)" d="M 113.146363 307.584 
L 114.414557 307.584 
L 114.414557 302.551357 
L 113.146363 302.551357 
z
" style="fill:#1f77b4;opacity:0.75;"/>
   </g>
   <g id="patch_35">
    <path clip-path="url(#p50a46927cf)" d="M 114.414557 307.584 
L 115.682705 307.584 
L 115.682705 302.375276 
L 114.414557 302.375276 
z
" style="fill:#1f77b4;opacity:0.75;"/>
   </g>
   <g id="patch_36">
    <path clip-path="url(#p50a46927cf)" d="M 115.682705 307.584 
L 116.950899 307.584 
L 116.950899 301.613233 
L 115.682705 301.613233 
z
" style="fill:#1f77b4;opacity:0.75;"/>
   </g>
   <g id="patch_37">
    <path clip-path="url(#p50a46927cf)" d="M 116.950899 307.584 
L 118.219092 307.584 
L 118.219092 300.049693 
L 116.950899 300.049693 
z
" style="fill:#1f77b4;opacity:0.75;"/>
   </g>
   <g id="patch_38">
    <path clip-path="url(#p50a46927cf)" d="M 118.219092 307.584 
L 119.487285 307.584 
L 119.487285 299.75653 
L 118.219092 299.75653 
z
" style="fill:#1f77b4;opacity:0.75;"/>
   </g>
   <g id="patch_39">
    <path clip-path="url(#p50a46927cf)" d="M 119.487241 307.584 
L 120.75539 307.584 
L 120.75539 299.316495 
L 119.487241 299.316495 
z
" style="fill:#1f77b4;opacity:0.75;"/>
   </g>
   <g id="patch_40">
    <path clip-path="url(#p50a46927cf)" d="M 120.755434 307.584 
L 122.023627 307.584 
L 122.023627 297.782561 
L 120.755434 297.782561 
z
" style="fill:#1f77b4;opacity:0.75;"/>
   </g>
   <g id="patch_41">
    <path clip-path="url(#p50a46927cf)" d="M 122.023627 307.584 
L 123.291821 307.584 
L 123.291821 296.179933 
L 122.023627 296.179933 
z
" style="fill:#1f77b4;opacity:0.75;"/>
   </g>
   <g id="patch_42">
    <path clip-path="url(#p50a46927cf)" d="M 123.291821 307.584 
L 124.560014 307.584 
L 124.560014 295.212493 
L 123.291821 295.212493 
z
" style="fill:#1f77b4;opacity:0.75;"/>
   </g>
   <g id="patch_43">
    <path clip-path="url(#p50a46927cf)" d="M 124.560014 307.584 
L 125.828163 307.584 
L 125.828163 292.456224 
L 124.560014 292.456224 
z
" style="fill:#1f77b4;opacity:0.75;"/>
   </g>
   <g id="patch_44">
    <path clip-path="url(#p50a46927cf)" d="M 125.828163 307.584 
L 127.096356 307.584 
L 127.096356 286.417582 
L 125.828163 286.417582 
z
" style="fill:#1f77b4;opacity:0.75;"/>
   </g>
   <g id="patch_45">
    <path clip-path="url(#p50a46927cf)" d="M 127.096356 307.584 
L 128.364549 307.584 
L 128.364549 282.205798 
L 127.096356 282.205798 
z
" style="fill:#1f77b4;opacity:0.75;"/>
   </g>
   <g id="patch_46">
    <path clip-path="url(#p50a46927cf)" d="M 128.364549 307.584 
L 129.632743 307.584 
L 129.632743 285.127662 
L 128.364549 285.127662 
z
" style="fill:#1f77b4;opacity:0.75;"/>
   </g>
   <g id="patch_47">
    <path clip-path="url(#p50a46927cf)" d="M 129.632698 307.584 
L 130.900847 307.584 
L 130.900847 285.439594 
L 129.632698 285.439594 
z
" style="fill:#1f77b4;opacity:0.75;"/>
   </g>
   <g id="patch_48">
    <path clip-path="url(#p50a46927cf)" d="M 130.900891 307.584 
L 132.169085 307.584 
L 132.169085 284.619512 
L 130.900891 284.619512 
z
" style="fill:#1f77b4;opacity:0.75;"/>
   </g>
   <g id="patch_49">
    <path clip-path="url(#p50a46927cf)" d="M 132.169085 307.584 
L 133.437278 307.584 
L 133.437278 280.632486 
L 132.169085 280.632486 
z
" style="fill:#1f77b4;opacity:0.75;"/>
   </g>
   <g id="patch_50">
    <path clip-path="url(#p50a46927cf)" d="M 133.437278 307.584 
L 134.705471 307.584 
L 134.705471 282.020127 
L 133.437278 282.020127 
z
" style="fill:#1f77b4;opacity:0.75;"/>
   </g>
   <g id="patch_51">
    <path clip-path="url(#p50a46927cf)" d="M 134.705471 307.584 
L 135.97362 307.584 
L 135.97362 280.690176 
L 134.705471 280.690176 
z
" style="fill:#1f77b4;opacity:0.75;"/>
   </g>
   <g id="patch_52">
    <path clip-path="url(#p50a46927cf)" d="M 135.97362 307.584 
L 137.241813 307.584 
L 137.241813 276.772497 
L 135.97362 276.772497 
z
" style="fill:#1f77b4;opacity:0.75;"/>
   </g>
   <g id="patch_53">
    <path clip-path="url(#p50a46927cf)" d="M 137.241813 307.584 
L 138.510007 307.584 
L 138.510007 275.335995 
L 137.241813 275.335995 
z
" style="fill:#1f77b4;opacity:0.75;"/>
   </g>
   <g id="patch_54">
    <path clip-path="url(#p50a46927cf)" d="M 138.510007 307.584 
L 139.7782 307.584 
L 139.7782 271.495551 
L 138.510007 271.495551 
z
" style="fill:#1f77b4;opacity:0.75;"/>
   </g>
   <g id="patch_55">
    <path clip-path="url(#p50a46927cf)" d="M 139.778155 307.584 
L 141.046304 307.584 
L 141.046304 262.796793 
L 139.778155 262.796793 
z
" style="fill:#1f77b4;opacity:0.75;"/>
   </g>
   <g id="patch_56">
    <path clip-path="url(#p50a46927cf)" d="M 141.046349 307.584 
L 142.314542 307.584 
L 142.314542 258.527944 
L 141.046349 258.527944 
z
" style="fill:#1f77b4;opacity:0.75;"/>
   </g>
   <g id="patch_57">
    <path clip-path="url(#p50a46927cf)" d="M 142.314542 307.584 
L 143.582735 307.584 
L 143.582735 259.202221 
L 142.314542 259.202221 
z
" style="fill:#1f77b4;opacity:0.75;"/>
   </g>
   <g id="patch_58">
    <path clip-path="url(#p50a46927cf)" d="M 143.582735 307.584 
L 144.850929 307.584 
L 144.850929 260.892798 
L 143.582735 260.892798 
z
" style="fill:#1f77b4;opacity:0.75;"/>
   </g>
   <g id="patch_59">
    <path clip-path="url(#p50a46927cf)" d="M 144.850929 307.584 
L 146.119077 307.584 
L 146.119077 259.640286 
L 144.850929 259.640286 
z
" style="fill:#1f77b4;opacity:0.75;"/>
   </g>
   <g id="patch_60">
    <path clip-path="url(#p50a46927cf)" d="M 146.119077 307.584 
L 147.387271 307.584 
L 147.387271 262.241351 
L 146.119077 262.241351 
z
" style="fill:#1f77b4;opacity:0.75;"/>
   </g>
   <g id="patch_61">
    <path clip-path="url(#p50a46927cf)" d="M 147.387271 307.584 
L 148.655464 307.584 
L 148.655464 261.879783 
L 147.387271 261.879783 
z
" style="fill:#1f77b4;opacity:0.75;"/>
   </g>
   <g id="patch_62">
    <path clip-path="url(#p50a46927cf)" d="M 148.655464 307.584 
L 149.923657 307.584 
L 149.923657 257.110987 
L 148.655464 257.110987 
z
" style="fill:#1f77b4;opacity:0.75;"/>
   </g>
   <g id="patch_63">
    <path clip-path="url(#p50a46927cf)" d="M 149.923613 307.584 
L 151.191762 307.584 
L 151.191762 252.408662 
L 149.923613 252.408662 
z
" style="fill:#1f77b4;opacity:0.75;"/>
   </g>
   <g id="patch_64">
    <path clip-path="url(#p50a46927cf)" d="M 151.191806 307.584 
L 152.459999 307.584 
L 152.459999 255.840611 
L 151.191806 255.840611 
z
" style="fill:#1f77b4;opacity:0.75;"/>
   </g>
   <g id="patch_65">
    <path clip-path="url(#p50a46927cf)" d="M 152.459999 307.584 
L 153.728193 307.584 
L 153.728193 254.843854 
L 152.459999 254.843854 
z
" style="fill:#1f77b4;opacity:0.75;"/>
   </g>
   <g id="patch_66">
    <path clip-path="url(#p50a46927cf)" d="M 153.728193 307.584 
L 154.996386 307.584 
L 154.996386 261.146873 
L 153.728193 261.146873 
z
" style="fill:#1f77b4;opacity:0.75;"/>
   </g>
   <g id="patch_67">
    <path clip-path="url(#p50a46927cf)" d="M 154.996386 307.584 
L 156.264535 307.584 
L 156.264535 263.568817 
L 154.996386 263.568817 
z
" style="fill:#1f77b4;opacity:0.75;"/>
   </g>
   <g id="patch_68">
    <path clip-path="url(#p50a46927cf)" d="M 156.264535 307.584 
L 157.532728 307.584 
L 157.532728 263.609448 
L 156.264535 263.609448 
z
" style="fill:#1f77b4;opacity:0.75;"/>
   </g>
   <g id="patch_69">
    <path clip-path="url(#p50a46927cf)" d="M 157.532728 307.584 
L 158.800921 307.584 
L 158.800921 263.189247 
L 157.532728 263.189247 
z
" style="fill:#1f77b4;opacity:0.75;"/>
   </g>
   <g id="patch_70">
    <path clip-path="url(#p50a46927cf)" d="M 158.800877 307.584 
L 160.069026 307.584 
L 160.069026 260.510036 
L 158.800877 260.510036 
z
" style="fill:#1f77b4;opacity:0.75;"/>
   </g>
   <g id="patch_71">
    <path clip-path="url(#p50a46927cf)" d="M 160.06907 307.584 
L 161.337263 307.584 
L 161.337263 258.596349 
L 160.06907 258.596349 
z
" style="fill:#1f77b4;opacity:0.75;"/>
   </g>
   <g id="patch_72">
    <path clip-path="url(#p50a46927cf)" d="M 161.337263 307.584 
L 162.605457 307.584 
L 162.605457 258.273869 
L 161.337263 258.273869 
z
" style="fill:#1f77b4;opacity:0.75;"/>
   </g>
   <g id="patch_73">
    <path clip-path="url(#p50a46927cf)" d="M 162.605457 307.584 
L 163.87365 307.584 
L 163.87365 256.71033 
L 162.605457 256.71033 
z
" style="fill:#1f77b4;opacity:0.75;"/>
   </g>
   <g id="patch_74">
    <path clip-path="url(#p50a46927cf)" d="M 163.87365 307.584 
L 165.141799 307.584 
L 165.141799 252.056853 
L 163.87365 252.056853 
z
" style="fill:#1f77b4;opacity:0.75;"/>
   </g>
   <g id="patch_75">
    <path clip-path="url(#p50a46927cf)" d="M 165.141799 307.584 
L 166.409992 307.584 
L 166.409992 245.814413 
L 165.141799 245.814413 
z
" style="fill:#1f77b4;opacity:0.75;"/>
   </g>
   <g id="patch_76">
    <path clip-path="url(#p50a46927cf)" d="M 166.409992 307.584 
L 167.678185 307.584 
L 167.678185 240.703593 
L 166.409992 240.703593 
z
" style="fill:#1f77b4;opacity:0.75;"/>
   </g>
   <g id="patch_77">
    <path clip-path="url(#p50a46927cf)" d="M 167.678185 307.584 
L 168.946379 307.584 
L 168.946379 235.758899 
L 167.678185 235.758899 
z
" style="fill:#1f77b4;opacity:0.75;"/>
   </g>
   <g id="patch_78">
    <path clip-path="url(#p50a46927cf)" d="M 168.946334 307.584 
L 170.214483 307.584 
L 170.214483 233.479397 
L 168.946334 233.479397 
z
" style="fill:#1f77b4;opacity:0.75;"/>
   </g>
   <g id="patch_79">
    <path clip-path="url(#p50a46927cf)" d="M 170.214527 307.584 
L 171.482721 307.584 
L 171.482721 234.410346 
L 170.214527 234.410346 
z
" style="fill:#1f77b4;opacity:0.75;"/>
   </g>
   <g id="patch_80">
    <path clip-path="url(#p50a46927cf)" d="M 171.482721 307.584 
L 172.750914 307.584 
L 172.750914 232.446149 
L 171.482721 232.446149 
z
" style="fill:#1f77b4;opacity:0.75;"/>
   </g>
   <g id="patch_81">
    <path clip-path="url(#p50a46927cf)" d="M 172.750914 307.584 
L 174.019107 307.584 
L 174.019107 232.016176 
L 172.750914 232.016176 
z
" style="fill:#1f77b4;opacity:0.75;"/>
   </g>
   <g id="patch_82">
    <path clip-path="url(#p50a46927cf)" d="M 174.019107 307.584 
L 175.287256 307.584 
L 175.287256 235.287303 
L 174.019107 235.287303 
z
" style="fill:#1f77b4;opacity:0.75;"/>
   </g>
   <g id="patch_83">
    <path clip-path="url(#p50a46927cf)" d="M 175.287256 307.584 
L 176.555449 307.584 
L 176.555449 239.501622 
L 175.287256 239.501622 
z
" style="fill:#1f77b4;opacity:0.75;"/>
   </g>
   <g id="patch_84">
    <path clip-path="url(#p50a46927cf)" d="M 176.555449 307.584 
L 177.823643 307.584 
L 177.823643 235.34847 
L 176.555449 235.34847 
z
" style="fill:#1f77b4;opacity:0.75;"/>
   </g>
   <g id="patch_85">
    <path clip-path="url(#p50a46927cf)" d="M 177.823643 307.584 
L 179.091836 307.584 
L 179.091836 231.498253 
L 177.823643 231.498253 
z
" style="fill:#1f77b4;opacity:0.75;"/>
   </g>
   <g id="patch_86">
    <path clip-path="url(#p50a46927cf)" d="M 179.091791 307.584 
L 180.35994 307.584 
L 180.35994 229.629046 
L 179.091791 229.629046 
z
" style="fill:#1f77b4;opacity:0.75;"/>
   </g>
   <g id="patch_87">
    <path clip-path="url(#p50a46927cf)" d="M 180.359985 307.584 
L 181.628178 307.584 
L 181.628178 225.732701 
L 180.359985 225.732701 
z
" style="fill:#1f77b4;opacity:0.75;"/>
   </g>
   <g id="patch_88">
    <path clip-path="url(#p50a46927cf)" d="M 181.628178 307.584 
L 182.896371 307.584 
L 182.896371 222.840153 
L 181.628178 222.840153 
z
" style="fill:#1f77b4;opacity:0.75;"/>
   </g>
   <g id="patch_89">
    <path clip-path="url(#p50a46927cf)" d="M 182.896371 307.584 
L 184.164565 307.584 
L 184.164565 213.761851 
L 182.896371 213.761851 
z
" style="fill:#1f77b4;opacity:0.75;"/>
   </g>
   <g id="patch_90">
    <path clip-path="url(#p50a46927cf)" d="M 184.164565 307.584 
L 185.432713 307.584 
L 185.432713 209.869122 
L 184.164565 209.869122 
z
" style="fill:#1f77b4;opacity:0.75;"/>
   </g>
   <g id="patch_91">
    <path clip-path="url(#p50a46927cf)" d="M 185.432713 307.584 
L 186.700907 307.584 
L 186.700907 207.664046 
L 185.432713 207.664046 
z
" style="fill:#1f77b4;opacity:0.75;"/>
   </g>
   <g id="patch_92">
    <path clip-path="url(#p50a46927cf)" d="M 186.700907 307.584 
L 187.9691 307.584 
L 187.9691 200.872421 
L 186.700907 200.872421 
z
" style="fill:#1f77b4;opacity:0.75;"/>
   </g>
   <g id="patch_93">
    <path clip-path="url(#p50a46927cf)" d="M 187.9691 307.584 
L 189.237293 307.584 
L 189.237293 195.996132 
L 187.9691 195.996132 
z
" style="fill:#1f77b4;opacity:0.75;"/>
   </g>
   <g id="patch_94">
    <path clip-path="url(#p50a46927cf)" d="M 189.237249 307.584 
L 190.505398 307.584 
L 190.505398 192.112553 
L 189.237249 192.112553 
z
" style="fill:#1f77b4;opacity:0.75;"/>
   </g>
   <g id="patch_95">
    <path clip-path="url(#p50a46927cf)" d="M 190.505442 307.584 
L 191.773635 307.584 
L 191.773635 192.243637 
L 190.505442 192.243637 
z
" style="fill:#1f77b4;opacity:0.75;"/>
   </g>
   <g id="patch_96">
    <path clip-path="url(#p50a46927cf)" d="M 191.773635 307.584 
L 193.041829 307.584 
L 193.041829 187.191449 
L 191.773635 187.191449 
z
" style="fill:#1f77b4;opacity:0.75;"/>
   </g>
   <g id="patch_97">
    <path clip-path="url(#p50a46927cf)" d="M 193.041829 307.584 
L 194.310022 307.584 
L 194.310022 189.136102 
L 193.041829 189.136102 
z
" style="fill:#1f77b4;opacity:0.75;"/>
   </g>
   <g id="patch_98">
    <path clip-path="url(#p50a46927cf)" d="M 194.310022 307.584 
L 195.578171 307.584 
L 195.578171 180.727631 
L 194.310022 180.727631 
z
" style="fill:#1f77b4;opacity:0.75;"/>
   </g>
   <g id="patch_99">
    <path clip-path="url(#p50a46927cf)" d="M 195.578171 307.584 
L 196.846364 307.584 
L 196.846364 172.845973 
L 195.578171 172.845973 
z
" style="fill:#1f77b4;opacity:0.75;"/>
   </g>
   <g id="patch_100">
    <path clip-path="url(#p50a46927cf)" d="M 196.846364 307.584 
L 198.114557 307.584 
L 198.114557 164.402859 
L 196.846364 164.402859 
z
" style="fill:#1f77b4;opacity:0.75;"/>
   </g>
   <g id="patch_101">
    <path clip-path="url(#p50a46927cf)" d="M 198.114513 307.584 
L 199.382662 307.584 
L 199.382662 164.173075 
L 198.114513 164.173075 
z
" style="fill:#1f77b4;opacity:0.75;"/>
   </g>
   <g id="patch_102">
    <path clip-path="url(#p50a46927cf)" d="M 199.382706 307.584 
L 200.650899 307.584 
L 200.650899 165.956627 
L 199.382706 165.956627 
z
" style="fill:#1f77b4;opacity:0.75;"/>
   </g>
   <g id="patch_103">
    <path clip-path="url(#p50a46927cf)" d="M 200.650899 307.584 
L 201.919093 307.584 
L 201.919093 163.044534 
L 200.650899 163.044534 
z
" style="fill:#1f77b4;opacity:0.75;"/>
   </g>
   <g id="patch_104">
    <path clip-path="url(#p50a46927cf)" d="M 201.919093 307.584 
L 203.187286 307.584 
L 203.187286 161.129198 
L 201.919093 161.129198 
z
" style="fill:#1f77b4;opacity:0.75;"/>
   </g>
   <g id="patch_105">
    <path clip-path="url(#p50a46927cf)" d="M 203.187286 307.584 
L 204.455435 307.584 
L 204.455435 155.661258 
L 203.187286 155.661258 
z
" style="fill:#1f77b4;opacity:0.75;"/>
   </g>
   <g id="patch_106">
    <path clip-path="url(#p50a46927cf)" d="M 204.455435 307.584 
L 205.723628 307.584 
L 205.723628 146.060585 
L 204.455435 146.060585 
z
" style="fill:#1f77b4;opacity:0.75;"/>
   </g>
   <g id="patch_107">
    <path clip-path="url(#p50a46927cf)" d="M 205.723628 307.584 
L 206.991821 307.584 
L 206.991821 150.27237 
L 205.723628 150.27237 
z
" style="fill:#1f77b4;opacity:0.75;"/>
   </g>
   <g id="patch_108">
    <path clip-path="url(#p50a46927cf)" d="M 206.991821 307.584 
L 208.260015 307.584 
L 208.260015 146.686001 
L 206.991821 146.686001 
z
" style="fill:#1f77b4;opacity:0.75;"/>
   </g>
   <g id="patch_109">
    <path clip-path="url(#p50a46927cf)" d="M 208.25997 307.584 
L 209.528119 307.584 
L 209.528119 129.324465 
L 208.25997 129.324465 
z
" style="fill:#1f77b4;opacity:0.75;"/>
   </g>
   <g id="patch_110">
    <path clip-path="url(#p50a46927cf)" d="M 209.528163 307.584 
L 210.796357 307.584 
L 210.796357 107.880902 
L 209.528163 107.880902 
z
" style="fill:#1f77b4;opacity:0.75;"/>
   </g>
   <g id="patch_111">
    <path clip-path="url(#p50a46927cf)" d="M 210.796357 307.584 
L 212.06455 307.584 
L 212.06455 108.154522 
L 210.796357 108.154522 
z
" style="fill:#1f77b4;opacity:0.75;"/>
   </g>
   <g id="patch_112">
    <path clip-path="url(#p50a46927cf)" d="M 212.06455 307.584 
L 213.332743 307.584 
L 213.332743 112.219725 
L 212.06455 112.219725 
z
" style="fill:#1f77b4;opacity:0.75;"/>
   </g>
   <g id="patch_113">
    <path clip-path="url(#p50a46927cf)" d="M 213.332743 307.584 
L 214.600892 307.584 
L 214.600892 111.049955 
L 213.332743 111.049955 
z
" style="fill:#1f77b4;opacity:0.75;"/>
   </g>
   <g id="patch_114">
    <path clip-path="url(#p50a46927cf)" d="M 214.600892 307.584 
L 215.869085 307.584 
L 215.869085 107.626827 
L 214.600892 107.626827 
z
" style="fill:#1f77b4;opacity:0.75;"/>
   </g>
   <g id="patch_115">
    <path clip-path="url(#p50a46927cf)" d="M 215.869085 307.584 
L 217.137279 307.584 
L 217.137279 106.375995 
L 215.869085 106.375995 
z
" style="fill:#1f77b4;opacity:0.75;"/>
   </g>
   <g id="patch_116">
    <path clip-path="url(#p50a46927cf)" d="M 217.137279 307.584 
L 218.405472 307.584 
L 218.405472 100.620215 
L 217.137279 100.620215 
z
" style="fill:#1f77b4;opacity:0.75;"/>
   </g>
   <g id="patch_117">
    <path clip-path="url(#p50a46927cf)" d="M 218.405427 307.584 
L 219.673576 307.584 
L 219.673576 99.391404 
L 218.405427 99.391404 
z
" style="fill:#1f77b4;opacity:0.75;"/>
   </g>
   <g id="patch_118">
    <path clip-path="url(#p50a46927cf)" d="M 219.673621 307.584 
L 220.941814 307.584 
L 220.941814 100.737481 
L 219.673621 100.737481 
z
" style="fill:#1f77b4;opacity:0.75;"/>
   </g>
   <g id="patch_119">
    <path clip-path="url(#p50a46927cf)" d="M 220.941814 307.584 
L 222.210007 307.584 
L 222.210007 91.639634 
L 220.941814 91.639634 
z
" style="fill:#1f77b4;opacity:0.75;"/>
   </g>
   <g id="patch_120">
    <path clip-path="url(#p50a46927cf)" d="M 222.210007 307.584 
L 223.478201 307.584 
L 223.478201 84.320315 
L 222.210007 84.320315 
z
" style="fill:#1f77b4;opacity:0.75;"/>
   </g>
   <g id="patch_121">
    <path clip-path="url(#p50a46927cf)" d="M 223.478201 307.584 
L 224.746349 307.584 
L 224.746349 68.070653 
L 223.478201 68.070653 
z
" style="fill:#1f77b4;opacity:0.75;"/>
   </g>
   <g id="patch_122">
    <path clip-path="url(#p50a46927cf)" d="M 224.746349 307.584 
L 226.014543 307.584 
L 226.014543 67.473175 
L 224.746349 67.473175 
z
" style="fill:#1f77b4;opacity:0.75;"/>
   </g>
   <g id="patch_123">
    <path clip-path="url(#p50a46927cf)" d="M 226.014543 307.584 
L 227.282736 307.584 
L 227.282736 63.222302 
L 226.014543 63.222302 
z
" style="fill:#1f77b4;opacity:0.75;"/>
   </g>
   <g id="patch_124">
    <path clip-path="url(#p50a46927cf)" d="M 227.282736 307.584 
L 228.550929 307.584 
L 228.550929 59.264592 
L 227.282736 59.264592 
z
" style="fill:#1f77b4;opacity:0.75;"/>
   </g>
   <g id="patch_125">
    <path clip-path="url(#p50a46927cf)" d="M 228.550885 307.584 
L 229.819034 307.584 
L 229.819034 63.37987 
L 228.550885 63.37987 
z
" style="fill:#1f77b4;opacity:0.75;"/>
   </g>
   <g id="patch_126">
    <path clip-path="url(#p50a46927cf)" d="M 229.819078 307.584 
L 231.087271 307.584 
L 231.087271 81.984777 
L 229.819078 81.984777 
z
" style="fill:#1f77b4;opacity:0.75;"/>
   </g>
   <g id="patch_127">
    <path clip-path="url(#p50a46927cf)" d="M 231.087271 307.584 
L 232.355465 307.584 
L 232.355465 84.906642 
L 231.087271 84.906642 
z
" style="fill:#1f77b4;opacity:0.75;"/>
   </g>
   <g id="patch_128">
    <path clip-path="url(#p50a46927cf)" d="M 232.355465 307.584 
L 233.623658 307.584 
L 233.623658 78.17365 
L 232.355465 78.17365 
z
" style="fill:#1f77b4;opacity:0.75;"/>
   </g>
   <g id="patch_129">
    <path clip-path="url(#p50a46927cf)" d="M 233.623658 307.584 
L 234.891807 307.584 
L 234.891807 78.703095 
L 233.623658 78.703095 
z
" style="fill:#1f77b4;opacity:0.75;"/>
   </g>
   <g id="patch_130">
    <path clip-path="url(#p50a46927cf)" d="M 234.891807 307.584 
L 236.16 307.584 
L 236.16 77.645955 
L 234.891807 77.645955 
z
" style="fill:#1f77b4;opacity:0.75;"/>
   </g>
   <g id="patch_131">
    <path clip-path="url(#p50a46927cf)" d="M 236.16 307.584 
L 237.428193 307.584 
L 237.428193 82.424523 
L 236.16 82.424523 
z
" style="fill:#1f77b4;opacity:0.75;"/>
   </g>
   <g id="patch_132">
    <path clip-path="url(#p50a46927cf)" d="M 237.428149 307.584 
L 238.696342 307.584 
L 238.696342 87.596039 
L 237.428149 87.596039 
z
" style="fill:#1f77b4;opacity:0.75;"/>
   </g>
   <g id="patch_133">
    <path clip-path="url(#p50a46927cf)" d="M 238.696342 307.584 
L 239.964535 307.584 
L 239.964535 93.623375 
L 238.696342 93.623375 
z
" style="fill:#1f77b4;opacity:0.75;"/>
   </g>
   <g id="patch_134">
    <path clip-path="url(#p50a46927cf)" d="M 239.964535 307.584 
L 241.232729 307.584 
L 241.232729 96.975213 
L 239.964535 96.975213 
z
" style="fill:#1f77b4;opacity:0.75;"/>
   </g>
   <g id="patch_135">
    <path clip-path="url(#p50a46927cf)" d="M 241.232729 307.584 
L 242.500922 307.584 
L 242.500922 92.392088 
L 241.232729 92.392088 
z
" style="fill:#1f77b4;opacity:0.75;"/>
   </g>
   <g id="patch_136">
    <path clip-path="url(#p50a46927cf)" d="M 242.500922 307.584 
L 243.769115 307.584 
L 243.769115 87.828507 
L 242.500922 87.828507 
z
" style="fill:#1f77b4;opacity:0.75;"/>
   </g>
   <g id="patch_137">
    <path clip-path="url(#p50a46927cf)" d="M 243.769115 307.584 
L 245.037308 307.584 
L 245.037308 74.35275 
L 243.769115 74.35275 
z
" style="fill:#1f77b4;opacity:0.75;"/>
   </g>
   <g id="patch_138">
    <path clip-path="url(#p50a46927cf)" d="M 245.037308 307.584 
L 246.305413 307.584 
L 246.305413 74.395039 
L 245.037308 74.395039 
z
" style="fill:#1f77b4;opacity:0.75;"/>
   </g>
   <g id="patch_139">
    <path clip-path="url(#p50a46927cf)" d="M 246.305413 307.584 
L 247.573606 307.584 
L 247.573606 72.564451 
L 246.305413 72.564451 
z
" style="fill:#1f77b4;opacity:0.75;"/>
   </g>
   <g id="patch_140">
    <path clip-path="url(#p50a46927cf)" d="M 247.573606 307.584 
L 248.841799 307.584 
L 248.841799 67.952009 
L 247.573606 67.952009 
z
" style="fill:#1f77b4;opacity:0.75;"/>
   </g>
   <g id="patch_141">
    <path clip-path="url(#p50a46927cf)" d="M 248.841799 307.584 
L 250.109993 307.584 
L 250.109993 57.202674 
L 248.841799 57.202674 
z
" style="fill:#1f77b4;opacity:0.75;"/>
   </g>
   <g id="patch_142">
    <path clip-path="url(#p50a46927cf)" d="M 250.109993 307.584 
L 251.378186 307.584 
L 251.378186 54.446936 
L 250.109993 54.446936 
z
" style="fill:#1f77b4;opacity:0.75;"/>
   </g>
   <g id="patch_143">
    <path clip-path="url(#p50a46927cf)" d="M 251.378186 307.584 
L 252.646379 307.584 
L 252.646379 54.144 
L 251.378186 54.144 
z
" style="fill:#1f77b4;opacity:0.75;"/>
   </g>
   <g id="patch_144">
    <path clip-path="url(#p50a46927cf)" d="M 252.646379 307.584 
L 253.914573 307.584 
L 253.914573 60.134311 
L 252.646379 60.134311 
z
" style="fill:#1f77b4;opacity:0.75;"/>
   </g>
   <g id="patch_145">
    <path clip-path="url(#p50a46927cf)" d="M 253.914573 307.584 
L 255.182766 307.584 
L 255.182766 65.6067 
L 253.914573 65.6067 
z
" style="fill:#1f77b4;opacity:0.75;"/>
   </g>
   <g id="patch_146">
    <path clip-path="url(#p50a46927cf)" d="M 255.182677 307.584 
L 256.450781 307.584 
L 256.450781 69.410907 
L 255.182677 69.410907 
z
" style="fill:#1f77b4;opacity:0.75;"/>
   </g>
   <g id="patch_147">
    <path clip-path="url(#p50a46927cf)" d="M 256.45087 307.584 
L 257.719063 307.584 
L 257.719063 74.430927 
L 256.45087 74.430927 
z
" style="fill:#1f77b4;opacity:0.75;"/>
   </g>
   <g id="patch_148">
    <path clip-path="url(#p50a46927cf)" d="M 257.719063 307.584 
L 258.987257 307.584 
L 258.987257 77.098716 
L 257.719063 77.098716 
z
" style="fill:#1f77b4;opacity:0.75;"/>
   </g>
   <g id="patch_149">
    <path clip-path="url(#p50a46927cf)" d="M 258.987257 307.584 
L 260.25545 307.584 
L 260.25545 78.515674 
L 258.987257 78.515674 
z
" style="fill:#1f77b4;opacity:0.75;"/>
   </g>
   <g id="patch_150">
    <path clip-path="url(#p50a46927cf)" d="M 260.25545 307.584 
L 261.523643 307.584 
L 261.523643 78.310459 
L 260.25545 78.310459 
z
" style="fill:#1f77b4;opacity:0.75;"/>
   </g>
   <g id="patch_151">
    <path clip-path="url(#p50a46927cf)" d="M 261.523643 307.584 
L 262.791837 307.584 
L 262.791837 80.714401 
L 261.523643 80.714401 
z
" style="fill:#1f77b4;opacity:0.75;"/>
   </g>
   <g id="patch_152">
    <path clip-path="url(#p50a46927cf)" d="M 262.791837 307.584 
L 264.06003 307.584 
L 264.06003 86.431093 
L 262.791837 86.431093 
z
" style="fill:#1f77b4;opacity:0.75;"/>
   </g>
   <g id="patch_153">
    <path clip-path="url(#p50a46927cf)" d="M 264.06003 307.584 
L 265.328223 307.584 
L 265.328223 93.515882 
L 264.06003 93.515882 
z
" style="fill:#1f77b4;opacity:0.75;"/>
   </g>
   <g id="patch_154">
    <path clip-path="url(#p50a46927cf)" d="M 265.328223 307.584 
L 266.596328 307.584 
L 266.596328 102.218222 
L 265.328223 102.218222 
z
" style="fill:#1f77b4;opacity:0.75;"/>
   </g>
   <g id="patch_155">
    <path clip-path="url(#p50a46927cf)" d="M 266.596328 307.584 
L 267.864521 307.584 
L 267.864521 112.542205 
L 266.596328 112.542205 
z
" style="fill:#1f77b4;opacity:0.75;"/>
   </g>
   <g id="patch_156">
    <path clip-path="url(#p50a46927cf)" d="M 267.864521 307.584 
L 269.132714 307.584 
L 269.132714 112.229497 
L 267.864521 112.229497 
z
" style="fill:#1f77b4;opacity:0.75;"/>
   </g>
   <g id="patch_157">
    <path clip-path="url(#p50a46927cf)" d="M 269.132714 307.584 
L 270.400907 307.584 
L 270.400907 124.131942 
L 269.132714 124.131942 
z
" style="fill:#1f77b4;opacity:0.75;"/>
   </g>
   <g id="patch_158">
    <path clip-path="url(#p50a46927cf)" d="M 270.400907 307.584 
L 271.669101 307.584 
L 271.669101 140.089818 
L 270.400907 140.089818 
z
" style="fill:#1f77b4;opacity:0.75;"/>
   </g>
   <g id="patch_159">
    <path clip-path="url(#p50a46927cf)" d="M 271.669101 307.584 
L 272.937294 307.584 
L 272.937294 149.226753 
L 271.669101 149.226753 
z
" style="fill:#1f77b4;opacity:0.75;"/>
   </g>
   <g id="patch_160">
    <path clip-path="url(#p50a46927cf)" d="M 272.937294 307.584 
L 274.205487 307.584 
L 274.205487 152.686084 
L 272.937294 152.686084 
z
" style="fill:#1f77b4;opacity:0.75;"/>
   </g>
   <g id="patch_161">
    <path clip-path="url(#p50a46927cf)" d="M 274.205487 307.584 
L 275.47368 307.584 
L 275.47368 152.852211 
L 274.205487 152.852211 
z
" style="fill:#1f77b4;opacity:0.75;"/>
   </g>
   <g id="patch_162">
    <path clip-path="url(#p50a46927cf)" d="M 275.473592 307.584 
L 276.741696 307.584 
L 276.741696 155.440932 
L 275.473592 155.440932 
z
" style="fill:#1f77b4;opacity:0.75;"/>
   </g>
   <g id="patch_163">
    <path clip-path="url(#p50a46927cf)" d="M 276.741785 307.584 
L 278.009978 307.584 
L 278.009978 160.972844 
L 276.741785 160.972844 
z
" style="fill:#1f77b4;opacity:0.75;"/>
   </g>
   <g id="patch_164">
    <path clip-path="url(#p50a46927cf)" d="M 278.009978 307.584 
L 279.278171 307.584 
L 279.278171 167.285636 
L 278.009978 167.285636 
z
" style="fill:#1f77b4;opacity:0.75;"/>
   </g>
   <g id="patch_165">
    <path clip-path="url(#p50a46927cf)" d="M 279.278171 307.584 
L 280.546365 307.584 
L 280.546365 172.845973 
L 279.278171 172.845973 
z
" style="fill:#1f77b4;opacity:0.75;"/>
   </g>
   <g id="patch_166">
    <path clip-path="url(#p50a46927cf)" d="M 280.546365 307.584 
L 281.814558 307.584 
L 281.814558 171.712407 
L 280.546365 171.712407 
z
" style="fill:#1f77b4;opacity:0.75;"/>
   </g>
   <g id="patch_167">
    <path clip-path="url(#p50a46927cf)" d="M 281.814558 307.584 
L 283.082751 307.584 
L 283.082751 170.686334 
L 281.814558 170.686334 
z
" style="fill:#1f77b4;opacity:0.75;"/>
   </g>
   <g id="patch_168">
    <path clip-path="url(#p50a46927cf)" d="M 283.082751 307.584 
L 284.350945 307.584 
L 284.350945 167.969684 
L 283.082751 167.969684 
z
" style="fill:#1f77b4;opacity:0.75;"/>
   </g>
   <g id="patch_169">
    <path clip-path="url(#p50a46927cf)" d="M 284.350945 307.584 
L 285.619049 307.584 
L 285.619049 158.959143 
L 284.350945 158.959143 
z
" style="fill:#1f77b4;opacity:0.75;"/>
   </g>
   <g id="patch_170">
    <path clip-path="url(#p50a46927cf)" d="M 285.619049 307.584 
L 286.887242 307.584 
L 286.887242 150.243054 
L 285.619049 150.243054 
z
" style="fill:#1f77b4;opacity:0.75;"/>
   </g>
   <g id="patch_171">
    <path clip-path="url(#p50a46927cf)" d="M 286.887242 307.584 
L 288.155435 307.584 
L 288.155435 141.34065 
L 286.887242 141.34065 
z
" style="fill:#1f77b4;opacity:0.75;"/>
   </g>
   <g id="patch_172">
    <path clip-path="url(#p50a46927cf)" d="M 288.155435 307.584 
L 289.423629 307.584 
L 289.423629 142.083331 
L 288.155435 142.083331 
z
" style="fill:#1f77b4;opacity:0.75;"/>
   </g>
   <g id="patch_173">
    <path clip-path="url(#p50a46927cf)" d="M 289.423629 307.584 
L 290.691822 307.584 
L 290.691822 147.243012 
L 289.423629 147.243012 
z
" style="fill:#1f77b4;opacity:0.75;"/>
   </g>
   <g id="patch_174">
    <path clip-path="url(#p50a46927cf)" d="M 290.691822 307.584 
L 291.960015 307.584 
L 291.960015 155.803392 
L 290.691822 155.803392 
z
" style="fill:#1f77b4;opacity:0.75;"/>
   </g>
   <g id="patch_175">
    <path clip-path="url(#p50a46927cf)" d="M 291.960015 307.584 
L 293.228209 307.584 
L 293.228209 154.542788 
L 291.960015 154.542788 
z
" style="fill:#1f77b4;opacity:0.75;"/>
   </g>
   <g id="patch_176">
    <path clip-path="url(#p50a46927cf)" d="M 293.228209 307.584 
L 294.496402 307.584 
L 294.496402 145.171322 
L 293.228209 145.171322 
z
" style="fill:#1f77b4;opacity:0.75;"/>
   </g>
   <g id="patch_177">
    <path clip-path="url(#p50a46927cf)" d="M 294.496313 307.584 
L 295.764417 307.584 
L 295.764417 155.861163 
L 294.496313 155.861163 
z
" style="fill:#1f77b4;opacity:0.75;"/>
   </g>
   <g id="patch_178">
    <path clip-path="url(#p50a46927cf)" d="M 295.764506 307.584 
L 297.032699 307.584 
L 297.032699 163.308382 
L 295.764506 163.308382 
z
" style="fill:#1f77b4;opacity:0.75;"/>
   </g>
   <g id="patch_179">
    <path clip-path="url(#p50a46927cf)" d="M 297.032699 307.584 
L 298.300893 307.584 
L 298.300893 168.634189 
L 297.032699 168.634189 
z
" style="fill:#1f77b4;opacity:0.75;"/>
   </g>
   <g id="patch_180">
    <path clip-path="url(#p50a46927cf)" d="M 298.300893 307.584 
L 299.569086 307.584 
L 299.569086 182.295616 
L 298.300893 182.295616 
z
" style="fill:#1f77b4;opacity:0.75;"/>
   </g>
   <g id="patch_181">
    <path clip-path="url(#p50a46927cf)" d="M 299.569086 307.584 
L 300.837279 307.584 
L 300.837279 194.393504 
L 299.569086 194.393504 
z
" style="fill:#1f77b4;opacity:0.75;"/>
   </g>
   <g id="patch_182">
    <path clip-path="url(#p50a46927cf)" d="M 300.837279 307.584 
L 302.105473 307.584 
L 302.105473 205.133067 
L 300.837279 205.133067 
z
" style="fill:#1f77b4;opacity:0.75;"/>
   </g>
   <g id="patch_183">
    <path clip-path="url(#p50a46927cf)" d="M 302.105473 307.584 
L 303.373666 307.584 
L 303.373666 209.4328 
L 302.105473 209.4328 
z
" style="fill:#1f77b4;opacity:0.75;"/>
   </g>
   <g id="patch_184">
    <path clip-path="url(#p50a46927cf)" d="M 303.373666 307.584 
L 304.641859 307.584 
L 304.641859 213.224384 
L 303.373666 213.224384 
z
" style="fill:#1f77b4;opacity:0.75;"/>
   </g>
   <g id="patch_185">
    <path clip-path="url(#p50a46927cf)" d="M 304.641859 307.584 
L 305.909964 307.584 
L 305.909964 217.723034 
L 304.641859 217.723034 
z
" style="fill:#1f77b4;opacity:0.75;"/>
   </g>
   <g id="patch_186">
    <path clip-path="url(#p50a46927cf)" d="M 305.909964 307.584 
L 307.178157 307.584 
L 307.178157 218.100673 
L 305.909964 218.100673 
z
" style="fill:#1f77b4;opacity:0.75;"/>
   </g>
   <g id="patch_187">
    <path clip-path="url(#p50a46927cf)" d="M 307.178157 307.584 
L 308.44635 307.584 
L 308.44635 225.087741 
L 307.178157 225.087741 
z
" style="fill:#1f77b4;opacity:0.75;"/>
   </g>
   <g id="patch_188">
    <path clip-path="url(#p50a46927cf)" d="M 308.44635 307.584 
L 309.714543 307.584 
L 309.714543 227.511227 
L 308.44635 227.511227 
z
" style="fill:#1f77b4;opacity:0.75;"/>
   </g>
   <g id="patch_189">
    <path clip-path="url(#p50a46927cf)" d="M 309.714543 307.584 
L 310.982737 307.584 
L 310.982737 234.498295 
L 309.714543 234.498295 
z
" style="fill:#1f77b4;opacity:0.75;"/>
   </g>
   <g id="patch_190">
    <path clip-path="url(#p50a46927cf)" d="M 310.982737 307.584 
L 312.25093 307.584 
L 312.25093 239.384356 
L 310.982737 239.384356 
z
" style="fill:#1f77b4;opacity:0.75;"/>
   </g>
   <g id="patch_191">
    <path clip-path="url(#p50a46927cf)" d="M 312.25093 307.584 
L 313.519123 307.584 
L 313.519123 242.501663 
L 312.25093 242.501663 
z
" style="fill:#1f77b4;opacity:0.75;"/>
   </g>
   <g id="patch_192">
    <path clip-path="url(#p50a46927cf)" d="M 313.519123 307.584 
L 314.787316 307.584 
L 314.787316 249.89916 
L 313.519123 249.89916 
z
" style="fill:#1f77b4;opacity:0.75;"/>
   </g>
   <g id="patch_193">
    <path clip-path="url(#p50a46927cf)" d="M 314.787228 307.584 
L 316.055332 307.584 
L 316.055332 258.866554 
L 314.787228 258.866554 
z
" style="fill:#1f77b4;opacity:0.75;"/>
   </g>
   <g id="patch_194">
    <path clip-path="url(#p50a46927cf)" d="M 316.055421 307.584 
L 317.323614 307.584 
L 317.323614 257.374834 
L 316.055421 257.374834 
z
" style="fill:#1f77b4;opacity:0.75;"/>
   </g>
   <g id="patch_195">
    <path clip-path="url(#p50a46927cf)" d="M 317.323614 307.584 
L 318.591807 307.584 
L 318.591807 263.189247 
L 317.323614 263.189247 
z
" style="fill:#1f77b4;opacity:0.75;"/>
   </g>
   <g id="patch_196">
    <path clip-path="url(#p50a46927cf)" d="M 318.591807 307.584 
L 319.860001 307.584 
L 319.860001 266.853793 
L 318.591807 266.853793 
z
" style="fill:#1f77b4;opacity:0.75;"/>
   </g>
   <g id="patch_197">
    <path clip-path="url(#p50a46927cf)" d="M 319.860001 307.584 
L 321.128194 307.584 
L 321.128194 272.726839 
L 319.860001 272.726839 
z
" style="fill:#1f77b4;opacity:0.75;"/>
   </g>
   <g id="patch_198">
    <path clip-path="url(#p50a46927cf)" d="M 321.128194 307.584 
L 322.396387 307.584 
L 322.396387 276.64546 
L 321.128194 276.64546 
z
" style="fill:#1f77b4;opacity:0.75;"/>
   </g>
   <g id="patch_199">
    <path clip-path="url(#p50a46927cf)" d="M 322.396387 307.584 
L 323.664581 307.584 
L 323.664581 281.130864 
L 322.396387 281.130864 
z
" style="fill:#1f77b4;opacity:0.75;"/>
   </g>
   <g id="patch_200">
    <path clip-path="url(#p50a46927cf)" d="M 323.664581 307.584 
L 324.932685 307.584 
L 324.932685 284.207444 
L 323.664581 284.207444 
z
" style="fill:#1f77b4;opacity:0.75;"/>
   </g>
   <g id="patch_201">
    <path clip-path="url(#p50a46927cf)" d="M 324.932685 307.584 
L 326.200878 307.584 
L 326.200878 288.821525 
L 324.932685 288.821525 
z
" style="fill:#1f77b4;opacity:0.75;"/>
   </g>
   <g id="patch_202">
    <path clip-path="url(#p50a46927cf)" d="M 326.200878 307.584 
L 327.469071 307.584 
L 327.469071 289.837825 
L 326.200878 289.837825 
z
" style="fill:#1f77b4;opacity:0.75;"/>
   </g>
   <g id="patch_203">
    <path clip-path="url(#p50a46927cf)" d="M 327.469071 307.584 
L 328.737265 307.584 
L 328.737265 290.394836 
L 327.469071 290.394836 
z
" style="fill:#1f77b4;opacity:0.75;"/>
   </g>
   <g id="patch_204">
    <path clip-path="url(#p50a46927cf)" d="M 328.737265 307.584 
L 330.005458 307.584 
L 330.005458 293.756447 
L 328.737265 293.756447 
z
" style="fill:#1f77b4;opacity:0.75;"/>
   </g>
   <g id="patch_205">
    <path clip-path="url(#p50a46927cf)" d="M 330.005458 307.584 
L 331.273651 307.584 
L 331.273651 294.479584 
L 330.005458 294.479584 
z
" style="fill:#1f77b4;opacity:0.75;"/>
   </g>
   <g id="patch_206">
    <path clip-path="url(#p50a46927cf)" d="M 331.273651 307.584 
L 332.541845 307.584 
L 332.541845 294.919329 
L 331.273651 294.919329 
z
" style="fill:#1f77b4;opacity:0.75;"/>
   </g>
   <g id="patch_207">
    <path clip-path="url(#p50a46927cf)" d="M 332.541845 307.584 
L 333.810038 307.584 
L 333.810038 295.720643 
L 332.541845 295.720643 
z
" style="fill:#1f77b4;opacity:0.75;"/>
   </g>
   <g id="patch_208">
    <path clip-path="url(#p50a46927cf)" d="M 333.809949 307.584 
L 335.078053 307.584 
L 335.078053 295.719812 
L 333.809949 295.719812 
z
" style="fill:#1f77b4;opacity:0.75;"/>
   </g>
   <g id="patch_209">
    <path clip-path="url(#p50a46927cf)" d="M 335.078142 307.584 
L 336.346336 307.584 
L 336.346336 295.202721 
L 335.078142 295.202721 
z
" style="fill:#1f77b4;opacity:0.75;"/>
   </g>
   <g id="patch_210">
    <path clip-path="url(#p50a46927cf)" d="M 336.346336 307.584 
L 337.614529 307.584 
L 337.614529 296.043123 
L 336.346336 296.043123 
z
" style="fill:#1f77b4;opacity:0.75;"/>
   </g>
   <g id="patch_211">
    <path clip-path="url(#p50a46927cf)" d="M 337.614529 307.584 
L 338.882722 307.584 
L 338.882722 295.66201 
L 337.614529 295.66201 
z
" style="fill:#1f77b4;opacity:0.75;"/>
   </g>
   <g id="patch_212">
    <path clip-path="url(#p50a46927cf)" d="M 338.882722 307.584 
L 340.150915 307.584 
L 340.150915 293.697814 
L 338.882722 293.697814 
z
" style="fill:#1f77b4;opacity:0.75;"/>
   </g>
   <g id="patch_213">
    <path clip-path="url(#p50a46927cf)" d="M 340.150915 307.584 
L 341.419109 307.584 
L 341.419109 296.609906 
L 340.150915 296.609906 
z
" style="fill:#1f77b4;opacity:0.75;"/>
   </g>
   <g id="patch_214">
    <path clip-path="url(#p50a46927cf)" d="M 341.419109 307.584 
L 342.687302 307.584 
L 342.687302 297.030108 
L 341.419109 297.030108 
z
" style="fill:#1f77b4;opacity:0.75;"/>
   </g>
   <g id="patch_215">
    <path clip-path="url(#p50a46927cf)" d="M 342.687302 307.584 
L 343.955495 307.584 
L 343.955495 297.176689 
L 342.687302 297.176689 
z
" style="fill:#1f77b4;opacity:0.75;"/>
   </g>
   <g id="patch_216">
    <path clip-path="url(#p50a46927cf)" d="M 343.955495 307.584 
L 345.2236 307.584 
L 345.2236 296.814366 
L 343.955495 296.814366 
z
" style="fill:#1f77b4;opacity:0.75;"/>
   </g>
   <g id="patch_217">
    <path clip-path="url(#p50a46927cf)" d="M 345.2236 307.584 
L 346.491793 307.584 
L 346.491793 296.082212 
L 345.2236 296.082212 
z
" style="fill:#1f77b4;opacity:0.75;"/>
   </g>
   <g id="patch_218">
    <path clip-path="url(#p50a46927cf)" d="M 346.491793 307.584 
L 347.759986 307.584 
L 347.759986 295.407935 
L 346.491793 295.407935 
z
" style="fill:#1f77b4;opacity:0.75;"/>
   </g>
   <g id="patch_219">
    <path clip-path="url(#p50a46927cf)" d="M 347.759986 307.584 
L 349.028179 307.584 
L 349.028179 296.052895 
L 347.759986 296.052895 
z
" style="fill:#1f77b4;opacity:0.75;"/>
   </g>
   <g id="patch_220">
    <path clip-path="url(#p50a46927cf)" d="M 349.028179 307.584 
L 350.296373 307.584 
L 350.296373 295.261353 
L 349.028179 295.261353 
z
" style="fill:#1f77b4;opacity:0.75;"/>
   </g>
   <g id="patch_221">
    <path clip-path="url(#p50a46927cf)" d="M 350.296373 307.584 
L 351.564566 307.584 
L 351.564566 295.114772 
L 350.296373 295.114772 
z
" style="fill:#1f77b4;opacity:0.75;"/>
   </g>
   <g id="patch_222">
    <path clip-path="url(#p50a46927cf)" d="M 351.564566 307.584 
L 352.832759 307.584 
L 352.832759 296.062667 
L 351.564566 296.062667 
z
" style="fill:#1f77b4;opacity:0.75;"/>
   </g>
   <g id="patch_223">
    <path clip-path="url(#p50a46927cf)" d="M 352.832759 307.584 
L 354.100952 307.584 
L 354.100952 297.938915 
L 352.832759 297.938915 
z
" style="fill:#1f77b4;opacity:0.75;"/>
   </g>
   <g id="patch_224">
    <path clip-path="url(#p50a46927cf)" d="M 354.100864 307.584 
L 355.368968 307.584 
L 355.368968 297.869829 
L 354.100864 297.869829 
z
" style="fill:#1f77b4;opacity:0.75;"/>
   </g>
   <g id="patch_225">
    <path clip-path="url(#p50a46927cf)" d="M 355.369057 307.584 
L 356.63725 307.584 
L 356.63725 297.010563 
L 355.369057 297.010563 
z
" style="fill:#1f77b4;opacity:0.75;"/>
   </g>
   <g id="patch_226">
    <path clip-path="url(#p50a46927cf)" d="M 356.63725 307.584 
L 357.905443 307.584 
L 357.905443 296.1213 
L 356.63725 296.1213 
z
" style="fill:#1f77b4;opacity:0.75;"/>
   </g>
   <g id="patch_227">
    <path clip-path="url(#p50a46927cf)" d="M 357.905443 307.584 
L 359.173637 307.584 
L 359.173637 295.447024 
L 357.905443 295.447024 
z
" style="fill:#1f77b4;opacity:0.75;"/>
   </g>
   <g id="patch_228">
    <path clip-path="url(#p50a46927cf)" d="M 359.173637 307.584 
L 360.44183 307.584 
L 360.44183 295.916086 
L 359.173637 295.916086 
z
" style="fill:#1f77b4;opacity:0.75;"/>
   </g>
   <g id="patch_229">
    <path clip-path="url(#p50a46927cf)" d="M 360.44183 307.584 
L 361.710023 307.584 
L 361.710023 296.795577 
L 360.44183 296.795577 
z
" style="fill:#1f77b4;opacity:0.75;"/>
   </g>
   <g id="patch_230">
    <path clip-path="url(#p50a46927cf)" d="M 361.710023 307.584 
L 362.978217 307.584 
L 362.978217 295.964946 
L 361.710023 295.964946 
z
" style="fill:#1f77b4;opacity:0.75;"/>
   </g>
   <g id="patch_231">
    <path clip-path="url(#p50a46927cf)" d="M 362.978217 307.584 
L 364.246321 307.584 
L 364.246321 296.325726 
L 362.978217 296.325726 
z
" style="fill:#1f77b4;opacity:0.75;"/>
   </g>
   <g id="patch_232">
    <path clip-path="url(#p50a46927cf)" d="M 364.246321 307.584 
L 365.514514 307.584 
L 365.514514 298.486154 
L 364.246321 298.486154 
z
" style="fill:#1f77b4;opacity:0.75;"/>
   </g>
   <g id="patch_233">
    <path clip-path="url(#p50a46927cf)" d="M 365.514514 307.584 
L 366.782707 307.584 
L 366.782707 301.251665 
L 365.514514 301.251665 
z
" style="fill:#1f77b4;opacity:0.75;"/>
   </g>
   <g id="patch_234">
    <path clip-path="url(#p50a46927cf)" d="M 366.782707 307.584 
L 368.050901 307.584 
L 368.050901 301.388474 
L 366.782707 301.388474 
z
" style="fill:#1f77b4;opacity:0.75;"/>
   </g>
   <g id="patch_235">
    <path clip-path="url(#p50a46927cf)" d="M 368.050901 307.584 
L 369.319094 307.584 
L 369.319094 301.114855 
L 368.050901 301.114855 
z
" style="fill:#1f77b4;opacity:0.75;"/>
   </g>
   <g id="patch_236">
    <path clip-path="url(#p50a46927cf)" d="M 369.319094 307.584 
L 370.587287 307.584 
L 370.587287 301.818448 
L 369.319094 301.818448 
z
" style="fill:#1f77b4;opacity:0.75;"/>
   </g>
   <g id="patch_237">
    <path clip-path="url(#p50a46927cf)" d="M 370.587287 307.584 
L 371.855481 307.584 
L 371.855481 301.867308 
L 370.587287 301.867308 
z
" style="fill:#1f77b4;opacity:0.75;"/>
   </g>
   <g id="patch_238">
    <path clip-path="url(#p50a46927cf)" d="M 371.855481 307.584 
L 373.123674 307.584 
L 373.123674 303.587202 
L 371.855481 303.587202 
z
" style="fill:#1f77b4;opacity:0.75;"/>
   </g>
   <g id="patch_239">
    <path clip-path="url(#p50a46927cf)" d="M 373.123585 307.584 
L 374.391689 307.584 
L 374.391689 303.626013 
L 373.123585 303.626013 
z
" style="fill:#1f77b4;opacity:0.75;"/>
   </g>
   <g id="patch_240">
    <path clip-path="url(#p50a46927cf)" d="M 374.391778 307.584 
L 375.659972 307.584 
L 375.659972 303.655607 
L 374.391778 303.655607 
z
" style="fill:#1f77b4;opacity:0.75;"/>
   </g>
   <g id="patch_241">
    <path clip-path="url(#p50a46927cf)" d="M 375.659972 307.584 
L 376.928165 307.584 
L 376.928165 303.479709 
L 375.659972 303.479709 
z
" style="fill:#1f77b4;opacity:0.75;"/>
   </g>
   <g id="patch_242">
    <path clip-path="url(#p50a46927cf)" d="M 376.928165 307.584 
L 378.196358 307.584 
L 378.196358 303.479709 
L 376.928165 303.479709 
z
" style="fill:#1f77b4;opacity:0.75;"/>
   </g>
   <g id="patch_243">
    <path clip-path="url(#p50a46927cf)" d="M 378.196358 307.584 
L 379.464551 307.584 
L 379.464551 303.284266 
L 378.196358 303.284266 
z
" style="fill:#1f77b4;opacity:0.75;"/>
   </g>
   <g id="patch_244">
    <path clip-path="url(#p50a46927cf)" d="M 379.464551 307.584 
L 380.732745 307.584 
L 380.732745 303.108368 
L 379.464551 303.108368 
z
" style="fill:#1f77b4;opacity:0.75;"/>
   </g>
   <g id="patch_245">
    <path clip-path="url(#p50a46927cf)" d="M 380.732745 307.584 
L 382.000938 307.584 
L 382.000938 301.955257 
L 380.732745 301.955257 
z
" style="fill:#1f77b4;opacity:0.75;"/>
   </g>
   <g id="patch_246">
    <path clip-path="url(#p50a46927cf)" d="M 382.000938 307.584 
L 383.269131 307.584 
L 383.269131 299.365645 
L 382.000938 299.365645 
z
" style="fill:#1f77b4;opacity:0.75;"/>
   </g>
   <g id="patch_247">
    <path clip-path="url(#p50a46927cf)" d="M 383.269131 307.584 
L 384.537236 307.584 
L 384.537236 301.475995 
L 383.269131 301.475995 
z
" style="fill:#1f77b4;opacity:0.75;"/>
   </g>
   <g id="patch_248">
    <path clip-path="url(#p50a46927cf)" d="M 384.537236 307.584 
L 385.805429 307.584 
L 385.805429 300.958501 
L 384.537236 300.958501 
z
" style="fill:#1f77b4;opacity:0.75;"/>
   </g>
   <g id="patch_249">
    <path clip-path="url(#p50a46927cf)" d="M 385.805429 307.584 
L 387.073622 307.584 
L 387.073622 301.241892 
L 385.805429 301.241892 
z
" style="fill:#1f77b4;opacity:0.75;"/>
   </g>
   <g id="patch_250">
    <path clip-path="url(#p50a46927cf)" d="M 387.073622 307.584 
L 388.341815 307.584 
L 388.341815 304.525326 
L 387.073622 304.525326 
z
" style="fill:#1f77b4;opacity:0.75;"/>
   </g>
   <g id="patch_251">
    <path clip-path="url(#p50a46927cf)" d="M 388.341815 307.584 
L 389.610009 307.584 
L 389.610009 304.916211 
L 388.341815 304.916211 
z
" style="fill:#1f77b4;opacity:0.75;"/>
   </g>
   <g id="patch_252">
    <path clip-path="url(#p50a46927cf)" d="M 389.610009 307.584 
L 390.878202 307.584 
L 390.878202 304.935755 
L 389.610009 304.935755 
z
" style="fill:#1f77b4;opacity:0.75;"/>
   </g>
   <g id="patch_253">
    <path clip-path="url(#p50a46927cf)" d="M 390.878202 307.584 
L 392.146395 307.584 
L 392.146395 305.307095 
L 390.878202 305.307095 
z
" style="fill:#1f77b4;opacity:0.75;"/>
   </g>
   <g id="patch_254">
    <path clip-path="url(#p50a46927cf)" d="M 392.146395 307.584 
L 393.414589 307.584 
L 393.414589 305.316868 
L 392.146395 305.316868 
z
" style="fill:#1f77b4;opacity:0.75;"/>
   </g>
   <g id="patch_255">
    <path clip-path="url(#p50a46927cf)" d="M 393.4145 307.584 
L 394.682604 307.584 
L 394.682604 304.564202 
L 393.4145 304.564202 
z
" style="fill:#1f77b4;opacity:0.75;"/>
   </g>
   <g id="patch_256">
    <path clip-path="url(#p50a46927cf)" d="M 394.682693 307.584 
L 395.950886 307.584 
L 395.950886 303.30381 
L 394.682693 303.30381 
z
" style="fill:#1f77b4;opacity:0.75;"/>
   </g>
   <g id="patch_257">
    <path clip-path="url(#p50a46927cf)" d="M 395.950886 307.584 
L 397.219079 307.584 
L 397.219079 303.264722 
L 395.950886 303.264722 
z
" style="fill:#1f77b4;opacity:0.75;"/>
   </g>
   <g id="patch_258">
    <path clip-path="url(#p50a46927cf)" d="M 397.219079 307.584 
L 398.487273 307.584 
L 398.487273 306.147498 
L 397.219079 306.147498 
z
" style="fill:#1f77b4;opacity:0.75;"/>
   </g>
   <g id="matplotlib.axis_1">
    <g id="xtick_1">
     <g id="line2d_1">
      <path clip-path="url(#p50a46927cf)" d="M 74.425315 307.584 
L 74.425315 41.472 
" style="fill:none;stroke:#b0b0b0;stroke-linecap:square;stroke-width:0.8;"/>
     </g>
     <g id="line2d_2">
      <defs>
       <path d="M 0 0 
L 0 3.5 
" id="mc649aae23a" style="stroke:#000000;stroke-width:0.8;"/>
      </defs>
      <g>
       <use style="stroke:#000000;stroke-width:0.8;" x="74.425315" xlink:href="#mc649aae23a" y="307.584"/>
      </g>
     </g>
     <g id="text_1">
      <!-- 100 -->
      <g transform="translate(64.881565 322.182437)scale(0.1 -0.1)">
       <defs>
        <path d="M 12.40625 8.296875 
L 28.515625 8.296875 
L 28.515625 63.921875 
L 10.984375 60.40625 
L 10.984375 69.390625 
L 28.421875 72.90625 
L 38.28125 72.90625 
L 38.28125 8.296875 
L 54.390625 8.296875 
L 54.390625 0 
L 12.40625 0 
z
" id="DejaVuSans-49"/>
        <path d="M 31.78125 66.40625 
Q 24.171875 66.40625 20.328125 58.90625 
Q 16.5 51.421875 16.5 36.375 
Q 16.5 21.390625 20.328125 13.890625 
Q 24.171875 6.390625 31.78125 6.390625 
Q 39.453125 6.390625 43.28125 13.890625 
Q 47.125 21.390625 47.125 36.375 
Q 47.125 51.421875 43.28125 58.90625 
Q 39.453125 66.40625 31.78125 66.40625 
z
M 31.78125 74.21875 
Q 44.046875 74.21875 50.515625 64.515625 
Q 56.984375 54.828125 56.984375 36.375 
Q 56.984375 17.96875 50.515625 8.265625 
Q 44.046875 -1.421875 31.78125 -1.421875 
Q 19.53125 -1.421875 13.0625 8.265625 
Q 6.59375 17.96875 6.59375 36.375 
Q 6.59375 54.828125 13.0625 64.515625 
Q 19.53125 74.21875 31.78125 74.21875 
z
" id="DejaVuSans-48"/>
       </defs>
       <use xlink:href="#DejaVuSans-49"/>
       <use x="63.623047" xlink:href="#DejaVuSans-48"/>
       <use x="127.246094" xlink:href="#DejaVuSans-48"/>
      </g>
     </g>
    </g>
    <g id="xtick_2">
     <g id="line2d_3">
      <path clip-path="url(#p50a46927cf)" d="M 132.676166 307.584 
L 132.676166 41.472 
" style="fill:none;stroke:#b0b0b0;stroke-linecap:square;stroke-width:0.8;"/>
     </g>
     <g id="line2d_4">
      <g>
       <use style="stroke:#000000;stroke-width:0.8;" x="132.676166" xlink:href="#mc649aae23a" y="307.584"/>
      </g>
     </g>
     <g id="text_2">
      <!-- 110 -->
      <g transform="translate(123.132416 322.182437)scale(0.1 -0.1)">
       <use xlink:href="#DejaVuSans-49"/>
       <use x="63.623047" xlink:href="#DejaVuSans-49"/>
       <use x="127.246094" xlink:href="#DejaVuSans-48"/>
      </g>
     </g>
    </g>
    <g id="xtick_3">
     <g id="line2d_5">
      <path clip-path="url(#p50a46927cf)" d="M 190.927018 307.584 
L 190.927018 41.472 
" style="fill:none;stroke:#b0b0b0;stroke-linecap:square;stroke-width:0.8;"/>
     </g>
     <g id="line2d_6">
      <g>
       <use style="stroke:#000000;stroke-width:0.8;" x="190.927018" xlink:href="#mc649aae23a" y="307.584"/>
      </g>
     </g>
     <g id="text_3">
      <!-- 120 -->
      <g transform="translate(181.383268 322.182437)scale(0.1 -0.1)">
       <defs>
        <path d="M 19.1875 8.296875 
L 53.609375 8.296875 
L 53.609375 0 
L 7.328125 0 
L 7.328125 8.296875 
Q 12.9375 14.109375 22.625 23.890625 
Q 32.328125 33.6875 34.8125 36.53125 
Q 39.546875 41.84375 41.421875 45.53125 
Q 43.3125 49.21875 43.3125 52.78125 
Q 43.3125 58.59375 39.234375 62.25 
Q 35.15625 65.921875 28.609375 65.921875 
Q 23.96875 65.921875 18.8125 64.3125 
Q 13.671875 62.703125 7.8125 59.421875 
L 7.8125 69.390625 
Q 13.765625 71.78125 18.9375 73 
Q 24.125 74.21875 28.421875 74.21875 
Q 39.75 74.21875 46.484375 68.546875 
Q 53.21875 62.890625 53.21875 53.421875 
Q 53.21875 48.921875 51.53125 44.890625 
Q 49.859375 40.875 45.40625 35.40625 
Q 44.1875 33.984375 37.640625 27.21875 
Q 31.109375 20.453125 19.1875 8.296875 
z
" id="DejaVuSans-50"/>
       </defs>
       <use xlink:href="#DejaVuSans-49"/>
       <use x="63.623047" xlink:href="#DejaVuSans-50"/>
       <use x="127.246094" xlink:href="#DejaVuSans-48"/>
      </g>
     </g>
    </g>
    <g id="xtick_4">
     <g id="line2d_7">
      <path clip-path="url(#p50a46927cf)" d="M 249.177869 307.584 
L 249.177869 41.472 
" style="fill:none;stroke:#b0b0b0;stroke-linecap:square;stroke-width:0.8;"/>
     </g>
     <g id="line2d_8">
      <g>
       <use style="stroke:#000000;stroke-width:0.8;" x="249.177869" xlink:href="#mc649aae23a" y="307.584"/>
      </g>
     </g>
     <g id="text_4">
      <!-- 130 -->
      <g transform="translate(239.634119 322.182437)scale(0.1 -0.1)">
       <defs>
        <path d="M 40.578125 39.3125 
Q 47.65625 37.796875 51.625 33 
Q 55.609375 28.21875 55.609375 21.1875 
Q 55.609375 10.40625 48.1875 4.484375 
Q 40.765625 -1.421875 27.09375 -1.421875 
Q 22.515625 -1.421875 17.65625 -0.515625 
Q 12.796875 0.390625 7.625 2.203125 
L 7.625 11.71875 
Q 11.71875 9.328125 16.59375 8.109375 
Q 21.484375 6.890625 26.8125 6.890625 
Q 36.078125 6.890625 40.9375 10.546875 
Q 45.796875 14.203125 45.796875 21.1875 
Q 45.796875 27.640625 41.28125 31.265625 
Q 36.765625 34.90625 28.71875 34.90625 
L 20.21875 34.90625 
L 20.21875 43.015625 
L 29.109375 43.015625 
Q 36.375 43.015625 40.234375 45.921875 
Q 44.09375 48.828125 44.09375 54.296875 
Q 44.09375 59.90625 40.109375 62.90625 
Q 36.140625 65.921875 28.71875 65.921875 
Q 24.65625 65.921875 20.015625 65.03125 
Q 15.375 64.15625 9.8125 62.3125 
L 9.8125 71.09375 
Q 15.4375 72.65625 20.34375 73.4375 
Q 25.25 74.21875 29.59375 74.21875 
Q 40.828125 74.21875 47.359375 69.109375 
Q 53.90625 64.015625 53.90625 55.328125 
Q 53.90625 49.265625 50.4375 45.09375 
Q 46.96875 40.921875 40.578125 39.3125 
z
" id="DejaVuSans-51"/>
       </defs>
       <use xlink:href="#DejaVuSans-49"/>
       <use x="63.623047" xlink:href="#DejaVuSans-51"/>
       <use x="127.246094" xlink:href="#DejaVuSans-48"/>
      </g>
     </g>
    </g>
    <g id="xtick_5">
     <g id="line2d_9">
      <path clip-path="url(#p50a46927cf)" d="M 307.42872 307.584 
L 307.42872 41.472 
" style="fill:none;stroke:#b0b0b0;stroke-linecap:square;stroke-width:0.8;"/>
     </g>
     <g id="line2d_10">
      <g>
       <use style="stroke:#000000;stroke-width:0.8;" x="307.42872" xlink:href="#mc649aae23a" y="307.584"/>
      </g>
     </g>
     <g id="text_5">
      <!-- 140 -->
      <g transform="translate(297.88497 322.182437)scale(0.1 -0.1)">
       <defs>
        <path d="M 37.796875 64.3125 
L 12.890625 25.390625 
L 37.796875 25.390625 
z
M 35.203125 72.90625 
L 47.609375 72.90625 
L 47.609375 25.390625 
L 58.015625 25.390625 
L 58.015625 17.1875 
L 47.609375 17.1875 
L 47.609375 0 
L 37.796875 0 
L 37.796875 17.1875 
L 4.890625 17.1875 
L 4.890625 26.703125 
z
" id="DejaVuSans-52"/>
       </defs>
       <use xlink:href="#DejaVuSans-49"/>
       <use x="63.623047" xlink:href="#DejaVuSans-52"/>
       <use x="127.246094" xlink:href="#DejaVuSans-48"/>
      </g>
     </g>
    </g>
    <g id="xtick_6">
     <g id="line2d_11">
      <path clip-path="url(#p50a46927cf)" d="M 365.679571 307.584 
L 365.679571 41.472 
" style="fill:none;stroke:#b0b0b0;stroke-linecap:square;stroke-width:0.8;"/>
     </g>
     <g id="line2d_12">
      <g>
       <use style="stroke:#000000;stroke-width:0.8;" x="365.679571" xlink:href="#mc649aae23a" y="307.584"/>
      </g>
     </g>
     <g id="text_6">
      <!-- 150 -->
      <g transform="translate(356.135821 322.182437)scale(0.1 -0.1)">
       <defs>
        <path d="M 10.796875 72.90625 
L 49.515625 72.90625 
L 49.515625 64.59375 
L 19.828125 64.59375 
L 19.828125 46.734375 
Q 21.96875 47.46875 24.109375 47.828125 
Q 26.265625 48.1875 28.421875 48.1875 
Q 40.625 48.1875 47.75 41.5 
Q 54.890625 34.8125 54.890625 23.390625 
Q 54.890625 11.625 47.5625 5.09375 
Q 40.234375 -1.421875 26.90625 -1.421875 
Q 22.3125 -1.421875 17.546875 -0.640625 
Q 12.796875 0.140625 7.71875 1.703125 
L 7.71875 11.625 
Q 12.109375 9.234375 16.796875 8.0625 
Q 21.484375 6.890625 26.703125 6.890625 
Q 35.15625 6.890625 40.078125 11.328125 
Q 45.015625 15.765625 45.015625 23.390625 
Q 45.015625 31 40.078125 35.4375 
Q 35.15625 39.890625 26.703125 39.890625 
Q 22.75 39.890625 18.8125 39.015625 
Q 14.890625 38.140625 10.796875 36.28125 
z
" id="DejaVuSans-53"/>
       </defs>
       <use xlink:href="#DejaVuSans-49"/>
       <use x="63.623047" xlink:href="#DejaVuSans-53"/>
       <use x="127.246094" xlink:href="#DejaVuSans-48"/>
      </g>
     </g>
    </g>
    <g id="text_7">
     <!-- weights -->
     <g transform="translate(216.6975 335.860562)scale(0.1 -0.1)">
      <defs>
       <path d="M 4.203125 54.6875 
L 13.1875 54.6875 
L 24.421875 12.015625 
L 35.59375 54.6875 
L 46.1875 54.6875 
L 57.421875 12.015625 
L 68.609375 54.6875 
L 77.59375 54.6875 
L 63.28125 0 
L 52.6875 0 
L 40.921875 44.828125 
L 29.109375 0 
L 18.5 0 
z
" id="DejaVuSans-119"/>
       <path d="M 56.203125 29.59375 
L 56.203125 25.203125 
L 14.890625 25.203125 
Q 15.484375 15.921875 20.484375 11.0625 
Q 25.484375 6.203125 34.421875 6.203125 
Q 39.59375 6.203125 44.453125 7.46875 
Q 49.3125 8.734375 54.109375 11.28125 
L 54.109375 2.78125 
Q 49.265625 0.734375 44.1875 -0.34375 
Q 39.109375 -1.421875 33.890625 -1.421875 
Q 20.796875 -1.421875 13.15625 6.1875 
Q 5.515625 13.8125 5.515625 26.8125 
Q 5.515625 40.234375 12.765625 48.109375 
Q 20.015625 56 32.328125 56 
Q 43.359375 56 49.78125 48.890625 
Q 56.203125 41.796875 56.203125 29.59375 
z
M 47.21875 32.234375 
Q 47.125 39.59375 43.09375 43.984375 
Q 39.0625 48.390625 32.421875 48.390625 
Q 24.90625 48.390625 20.390625 44.140625 
Q 15.875 39.890625 15.1875 32.171875 
z
" id="DejaVuSans-101"/>
       <path d="M 9.421875 54.6875 
L 18.40625 54.6875 
L 18.40625 0 
L 9.421875 0 
z
M 9.421875 75.984375 
L 18.40625 75.984375 
L 18.40625 64.59375 
L 9.421875 64.59375 
z
" id="DejaVuSans-105"/>
       <path d="M 45.40625 27.984375 
Q 45.40625 37.75 41.375 43.109375 
Q 37.359375 48.484375 30.078125 48.484375 
Q 22.859375 48.484375 18.828125 43.109375 
Q 14.796875 37.75 14.796875 27.984375 
Q 14.796875 18.265625 18.828125 12.890625 
Q 22.859375 7.515625 30.078125 7.515625 
Q 37.359375 7.515625 41.375 12.890625 
Q 45.40625 18.265625 45.40625 27.984375 
z
M 54.390625 6.78125 
Q 54.390625 -7.171875 48.1875 -13.984375 
Q 42 -20.796875 29.203125 -20.796875 
Q 24.46875 -20.796875 20.265625 -20.09375 
Q 16.0625 -19.390625 12.109375 -17.921875 
L 12.109375 -9.1875 
Q 16.0625 -11.328125 19.921875 -12.34375 
Q 23.78125 -13.375 27.78125 -13.375 
Q 36.625 -13.375 41.015625 -8.765625 
Q 45.40625 -4.15625 45.40625 5.171875 
L 45.40625 9.625 
Q 42.625 4.78125 38.28125 2.390625 
Q 33.9375 0 27.875 0 
Q 17.828125 0 11.671875 7.65625 
Q 5.515625 15.328125 5.515625 27.984375 
Q 5.515625 40.671875 11.671875 48.328125 
Q 17.828125 56 27.875 56 
Q 33.9375 56 38.28125 53.609375 
Q 42.625 51.21875 45.40625 46.390625 
L 45.40625 54.6875 
L 54.390625 54.6875 
z
" id="DejaVuSans-103"/>
       <path d="M 54.890625 33.015625 
L 54.890625 0 
L 45.90625 0 
L 45.90625 32.71875 
Q 45.90625 40.484375 42.875 44.328125 
Q 39.84375 48.1875 33.796875 48.1875 
Q 26.515625 48.1875 22.3125 43.546875 
Q 18.109375 38.921875 18.109375 30.90625 
L 18.109375 0 
L 9.078125 0 
L 9.078125 75.984375 
L 18.109375 75.984375 
L 18.109375 46.1875 
Q 21.34375 51.125 25.703125 53.5625 
Q 30.078125 56 35.796875 56 
Q 45.21875 56 50.046875 50.171875 
Q 54.890625 44.34375 54.890625 33.015625 
z
" id="DejaVuSans-104"/>
       <path d="M 18.3125 70.21875 
L 18.3125 54.6875 
L 36.8125 54.6875 
L 36.8125 47.703125 
L 18.3125 47.703125 
L 18.3125 18.015625 
Q 18.3125 11.328125 20.140625 9.421875 
Q 21.96875 7.515625 27.59375 7.515625 
L 36.8125 7.515625 
L 36.8125 0 
L 27.59375 0 
Q 17.1875 0 13.234375 3.875 
Q 9.28125 7.765625 9.28125 18.015625 
L 9.28125 47.703125 
L 2.6875 47.703125 
L 2.6875 54.6875 
L 9.28125 54.6875 
L 9.28125 70.21875 
z
" id="DejaVuSans-116"/>
       <path d="M 44.28125 53.078125 
L 44.28125 44.578125 
Q 40.484375 46.53125 36.375 47.5 
Q 32.28125 48.484375 27.875 48.484375 
Q 21.1875 48.484375 17.84375 46.4375 
Q 14.5 44.390625 14.5 40.28125 
Q 14.5 37.15625 16.890625 35.375 
Q 19.28125 33.59375 26.515625 31.984375 
L 29.59375 31.296875 
Q 39.15625 29.25 43.1875 25.515625 
Q 47.21875 21.78125 47.21875 15.09375 
Q 47.21875 7.46875 41.1875 3.015625 
Q 35.15625 -1.421875 24.609375 -1.421875 
Q 20.21875 -1.421875 15.453125 -0.5625 
Q 10.6875 0.296875 5.421875 2 
L 5.421875 11.28125 
Q 10.40625 8.6875 15.234375 7.390625 
Q 20.0625 6.109375 24.8125 6.109375 
Q 31.15625 6.109375 34.5625 8.28125 
Q 37.984375 10.453125 37.984375 14.40625 
Q 37.984375 18.0625 35.515625 20.015625 
Q 33.0625 21.96875 24.703125 23.78125 
L 21.578125 24.515625 
Q 13.234375 26.265625 9.515625 29.90625 
Q 5.8125 33.546875 5.8125 39.890625 
Q 5.8125 47.609375 11.28125 51.796875 
Q 16.75 56 26.8125 56 
Q 31.78125 56 36.171875 55.265625 
Q 40.578125 54.546875 44.28125 53.078125 
z
" id="DejaVuSans-115"/>
      </defs>
      <use xlink:href="#DejaVuSans-119"/>
      <use x="81.787109" xlink:href="#DejaVuSans-101"/>
      <use x="143.310547" xlink:href="#DejaVuSans-105"/>
      <use x="171.09375" xlink:href="#DejaVuSans-103"/>
      <use x="234.570312" xlink:href="#DejaVuSans-104"/>
      <use x="297.949219" xlink:href="#DejaVuSans-116"/>
      <use x="337.158203" xlink:href="#DejaVuSans-115"/>
     </g>
    </g>
   </g>
   <g id="matplotlib.axis_2">
    <g id="ytick_1">
     <g id="line2d_13">
      <path clip-path="url(#p50a46927cf)" d="M 57.6 307.584 
L 414.72 307.584 
" style="fill:none;stroke:#b0b0b0;stroke-linecap:square;stroke-width:0.8;"/>
     </g>
     <g id="line2d_14">
      <defs>
       <path d="M 0 0 
L -3.5 0 
" id="m09f6e6815f" style="stroke:#000000;stroke-width:0.8;"/>
      </defs>
      <g>
       <use style="stroke:#000000;stroke-width:0.8;" x="57.6" xlink:href="#m09f6e6815f" y="307.584"/>
      </g>
     </g>
     <g id="text_8">
      <!-- 0.00 -->
      <g transform="translate(28.334375 311.383219)scale(0.1 -0.1)">
       <defs>
        <path d="M 10.6875 12.40625 
L 21 12.40625 
L 21 0 
L 10.6875 0 
z
" id="DejaVuSans-46"/>
       </defs>
       <use xlink:href="#DejaVuSans-48"/>
       <use x="63.623047" xlink:href="#DejaVuSans-46"/>
       <use x="95.410156" xlink:href="#DejaVuSans-48"/>
       <use x="159.033203" xlink:href="#DejaVuSans-48"/>
      </g>
     </g>
    </g>
    <g id="ytick_2">
     <g id="line2d_15">
      <path clip-path="url(#p50a46927cf)" d="M 57.6 261.39124 
L 414.72 261.39124 
" style="fill:none;stroke:#b0b0b0;stroke-linecap:square;stroke-width:0.8;"/>
     </g>
     <g id="line2d_16">
      <g>
       <use style="stroke:#000000;stroke-width:0.8;" x="57.6" xlink:href="#m09f6e6815f" y="261.39124"/>
      </g>
     </g>
     <g id="text_9">
      <!-- 0.01 -->
      <g transform="translate(28.334375 265.190459)scale(0.1 -0.1)">
       <use xlink:href="#DejaVuSans-48"/>
       <use x="63.623047" xlink:href="#DejaVuSans-46"/>
       <use x="95.410156" xlink:href="#DejaVuSans-48"/>
       <use x="159.033203" xlink:href="#DejaVuSans-49"/>
      </g>
     </g>
    </g>
    <g id="ytick_3">
     <g id="line2d_17">
      <path clip-path="url(#p50a46927cf)" d="M 57.6 215.198481 
L 414.72 215.198481 
" style="fill:none;stroke:#b0b0b0;stroke-linecap:square;stroke-width:0.8;"/>
     </g>
     <g id="line2d_18">
      <g>
       <use style="stroke:#000000;stroke-width:0.8;" x="57.6" xlink:href="#m09f6e6815f" y="215.198481"/>
      </g>
     </g>
     <g id="text_10">
      <!-- 0.02 -->
      <g transform="translate(28.334375 218.9977)scale(0.1 -0.1)">
       <use xlink:href="#DejaVuSans-48"/>
       <use x="63.623047" xlink:href="#DejaVuSans-46"/>
       <use x="95.410156" xlink:href="#DejaVuSans-48"/>
       <use x="159.033203" xlink:href="#DejaVuSans-50"/>
      </g>
     </g>
    </g>
    <g id="ytick_4">
     <g id="line2d_19">
      <path clip-path="url(#p50a46927cf)" d="M 57.6 169.005721 
L 414.72 169.005721 
" style="fill:none;stroke:#b0b0b0;stroke-linecap:square;stroke-width:0.8;"/>
     </g>
     <g id="line2d_20">
      <g>
       <use style="stroke:#000000;stroke-width:0.8;" x="57.6" xlink:href="#m09f6e6815f" y="169.005721"/>
      </g>
     </g>
     <g id="text_11">
      <!-- 0.03 -->
      <g transform="translate(28.334375 172.80494)scale(0.1 -0.1)">
       <use xlink:href="#DejaVuSans-48"/>
       <use x="63.623047" xlink:href="#DejaVuSans-46"/>
       <use x="95.410156" xlink:href="#DejaVuSans-48"/>
       <use x="159.033203" xlink:href="#DejaVuSans-51"/>
      </g>
     </g>
    </g>
    <g id="ytick_5">
     <g id="line2d_21">
      <path clip-path="url(#p50a46927cf)" d="M 57.6 122.812962 
L 414.72 122.812962 
" style="fill:none;stroke:#b0b0b0;stroke-linecap:square;stroke-width:0.8;"/>
     </g>
     <g id="line2d_22">
      <g>
       <use style="stroke:#000000;stroke-width:0.8;" x="57.6" xlink:href="#m09f6e6815f" y="122.812962"/>
      </g>
     </g>
     <g id="text_12">
      <!-- 0.04 -->
      <g transform="translate(28.334375 126.61218)scale(0.1 -0.1)">
       <use xlink:href="#DejaVuSans-48"/>
       <use x="63.623047" xlink:href="#DejaVuSans-46"/>
       <use x="95.410156" xlink:href="#DejaVuSans-48"/>
       <use x="159.033203" xlink:href="#DejaVuSans-52"/>
      </g>
     </g>
    </g>
    <g id="ytick_6">
     <g id="line2d_23">
      <path clip-path="url(#p50a46927cf)" d="M 57.6 76.620202 
L 414.72 76.620202 
" style="fill:none;stroke:#b0b0b0;stroke-linecap:square;stroke-width:0.8;"/>
     </g>
     <g id="line2d_24">
      <g>
       <use style="stroke:#000000;stroke-width:0.8;" x="57.6" xlink:href="#m09f6e6815f" y="76.620202"/>
      </g>
     </g>
     <g id="text_13">
      <!-- 0.05 -->
      <g transform="translate(28.334375 80.419421)scale(0.1 -0.1)">
       <use xlink:href="#DejaVuSans-48"/>
       <use x="63.623047" xlink:href="#DejaVuSans-46"/>
       <use x="95.410156" xlink:href="#DejaVuSans-48"/>
       <use x="159.033203" xlink:href="#DejaVuSans-53"/>
      </g>
     </g>
    </g>
    <g id="text_14">
     <!-- Probability -->
     <g transform="translate(22.254687 200.956906)rotate(-90)scale(0.1 -0.1)">
      <defs>
       <path d="M 19.671875 64.796875 
L 19.671875 37.40625 
L 32.078125 37.40625 
Q 38.96875 37.40625 42.71875 40.96875 
Q 46.484375 44.53125 46.484375 51.125 
Q 46.484375 57.671875 42.71875 61.234375 
Q 38.96875 64.796875 32.078125 64.796875 
z
M 9.8125 72.90625 
L 32.078125 72.90625 
Q 44.34375 72.90625 50.609375 67.359375 
Q 56.890625 61.8125 56.890625 51.125 
Q 56.890625 40.328125 50.609375 34.8125 
Q 44.34375 29.296875 32.078125 29.296875 
L 19.671875 29.296875 
L 19.671875 0 
L 9.8125 0 
z
" id="DejaVuSans-80"/>
       <path d="M 41.109375 46.296875 
Q 39.59375 47.171875 37.8125 47.578125 
Q 36.03125 48 33.890625 48 
Q 26.265625 48 22.1875 43.046875 
Q 18.109375 38.09375 18.109375 28.8125 
L 18.109375 0 
L 9.078125 0 
L 9.078125 54.6875 
L 18.109375 54.6875 
L 18.109375 46.1875 
Q 20.953125 51.171875 25.484375 53.578125 
Q 30.03125 56 36.53125 56 
Q 37.453125 56 38.578125 55.875 
Q 39.703125 55.765625 41.0625 55.515625 
z
" id="DejaVuSans-114"/>
       <path d="M 30.609375 48.390625 
Q 23.390625 48.390625 19.1875 42.75 
Q 14.984375 37.109375 14.984375 27.296875 
Q 14.984375 17.484375 19.15625 11.84375 
Q 23.34375 6.203125 30.609375 6.203125 
Q 37.796875 6.203125 41.984375 11.859375 
Q 46.1875 17.53125 46.1875 27.296875 
Q 46.1875 37.015625 41.984375 42.703125 
Q 37.796875 48.390625 30.609375 48.390625 
z
M 30.609375 56 
Q 42.328125 56 49.015625 48.375 
Q 55.71875 40.765625 55.71875 27.296875 
Q 55.71875 13.875 49.015625 6.21875 
Q 42.328125 -1.421875 30.609375 -1.421875 
Q 18.84375 -1.421875 12.171875 6.21875 
Q 5.515625 13.875 5.515625 27.296875 
Q 5.515625 40.765625 12.171875 48.375 
Q 18.84375 56 30.609375 56 
z
" id="DejaVuSans-111"/>
       <path d="M 48.6875 27.296875 
Q 48.6875 37.203125 44.609375 42.84375 
Q 40.53125 48.484375 33.40625 48.484375 
Q 26.265625 48.484375 22.1875 42.84375 
Q 18.109375 37.203125 18.109375 27.296875 
Q 18.109375 17.390625 22.1875 11.75 
Q 26.265625 6.109375 33.40625 6.109375 
Q 40.53125 6.109375 44.609375 11.75 
Q 48.6875 17.390625 48.6875 27.296875 
z
M 18.109375 46.390625 
Q 20.953125 51.265625 25.265625 53.625 
Q 29.59375 56 35.59375 56 
Q 45.5625 56 51.78125 48.09375 
Q 58.015625 40.1875 58.015625 27.296875 
Q 58.015625 14.40625 51.78125 6.484375 
Q 45.5625 -1.421875 35.59375 -1.421875 
Q 29.59375 -1.421875 25.265625 0.953125 
Q 20.953125 3.328125 18.109375 8.203125 
L 18.109375 0 
L 9.078125 0 
L 9.078125 75.984375 
L 18.109375 75.984375 
z
" id="DejaVuSans-98"/>
       <path d="M 34.28125 27.484375 
Q 23.390625 27.484375 19.1875 25 
Q 14.984375 22.515625 14.984375 16.5 
Q 14.984375 11.71875 18.140625 8.90625 
Q 21.296875 6.109375 26.703125 6.109375 
Q 34.1875 6.109375 38.703125 11.40625 
Q 43.21875 16.703125 43.21875 25.484375 
L 43.21875 27.484375 
z
M 52.203125 31.203125 
L 52.203125 0 
L 43.21875 0 
L 43.21875 8.296875 
Q 40.140625 3.328125 35.546875 0.953125 
Q 30.953125 -1.421875 24.3125 -1.421875 
Q 15.921875 -1.421875 10.953125 3.296875 
Q 6 8.015625 6 15.921875 
Q 6 25.140625 12.171875 29.828125 
Q 18.359375 34.515625 30.609375 34.515625 
L 43.21875 34.515625 
L 43.21875 35.40625 
Q 43.21875 41.609375 39.140625 45 
Q 35.0625 48.390625 27.6875 48.390625 
Q 23 48.390625 18.546875 47.265625 
Q 14.109375 46.140625 10.015625 43.890625 
L 10.015625 52.203125 
Q 14.9375 54.109375 19.578125 55.046875 
Q 24.21875 56 28.609375 56 
Q 40.484375 56 46.34375 49.84375 
Q 52.203125 43.703125 52.203125 31.203125 
z
" id="DejaVuSans-97"/>
       <path d="M 9.421875 75.984375 
L 18.40625 75.984375 
L 18.40625 0 
L 9.421875 0 
z
" id="DejaVuSans-108"/>
       <path d="M 32.171875 -5.078125 
Q 28.375 -14.84375 24.75 -17.8125 
Q 21.140625 -20.796875 15.09375 -20.796875 
L 7.90625 -20.796875 
L 7.90625 -13.28125 
L 13.1875 -13.28125 
Q 16.890625 -13.28125 18.9375 -11.515625 
Q 21 -9.765625 23.484375 -3.21875 
L 25.09375 0.875 
L 2.984375 54.6875 
L 12.5 54.6875 
L 29.59375 11.921875 
L 46.6875 54.6875 
L 56.203125 54.6875 
z
" id="DejaVuSans-121"/>
      </defs>
      <use xlink:href="#DejaVuSans-80"/>
      <use x="58.552734" xlink:href="#DejaVuSans-114"/>
      <use x="97.416016" xlink:href="#DejaVuSans-111"/>
      <use x="158.597656" xlink:href="#DejaVuSans-98"/>
      <use x="222.074219" xlink:href="#DejaVuSans-97"/>
      <use x="283.353516" xlink:href="#DejaVuSans-98"/>
      <use x="346.830078" xlink:href="#DejaVuSans-105"/>
      <use x="374.613281" xlink:href="#DejaVuSans-108"/>
      <use x="402.396484" xlink:href="#DejaVuSans-105"/>
      <use x="430.179688" xlink:href="#DejaVuSans-116"/>
      <use x="469.388672" xlink:href="#DejaVuSans-121"/>
     </g>
    </g>
   </g>
   <g id="LineCollection_1">
    <path clip-path="url(#p50a46927cf)" d="M 94.123636 307.584 
L 94.123636 304.378744 
" style="fill:none;stroke:#ff0000;stroke-width:1.5;"/>
   </g>
   <g id="LineCollection_2">
    <path clip-path="url(#p50a46927cf)" d="M 378.196364 307.584 
L 378.196364 295.447024 
" style="fill:none;stroke:#ff0000;stroke-width:1.5;"/>
   </g>
   <g id="patch_259">
    <path d="M 57.6 307.584 
L 57.6 41.472 
" style="fill:none;stroke:#000000;stroke-linecap:square;stroke-linejoin:miter;stroke-width:0.8;"/>
   </g>
   <g id="patch_260">
    <path d="M 414.72 307.584 
L 414.72 41.472 
" style="fill:none;stroke:#000000;stroke-linecap:square;stroke-linejoin:miter;stroke-width:0.8;"/>
   </g>
   <g id="patch_261">
    <path d="M 57.6 307.584 
L 414.72 307.584 
" style="fill:none;stroke:#000000;stroke-linecap:square;stroke-linejoin:miter;stroke-width:0.8;"/>
   </g>
   <g id="patch_262">
    <path d="M 57.6 41.472 
L 414.72 41.472 
" style="fill:none;stroke:#000000;stroke-linecap:square;stroke-linejoin:miter;stroke-width:0.8;"/>
   </g>
   <g id="text_15">
    <!-- Remove Extremes -->
    <g transform="translate(181.523438 35.472)scale(0.12 -0.12)">
     <defs>
      <path d="M 44.390625 34.1875 
Q 47.5625 33.109375 50.5625 29.59375 
Q 53.5625 26.078125 56.59375 19.921875 
L 66.609375 0 
L 56 0 
L 46.6875 18.703125 
Q 43.0625 26.03125 39.671875 28.421875 
Q 36.28125 30.8125 30.421875 30.8125 
L 19.671875 30.8125 
L 19.671875 0 
L 9.8125 0 
L 9.8125 72.90625 
L 32.078125 72.90625 
Q 44.578125 72.90625 50.734375 67.671875 
Q 56.890625 62.453125 56.890625 51.90625 
Q 56.890625 45.015625 53.6875 40.46875 
Q 50.484375 35.9375 44.390625 34.1875 
z
M 19.671875 64.796875 
L 19.671875 38.921875 
L 32.078125 38.921875 
Q 39.203125 38.921875 42.84375 42.21875 
Q 46.484375 45.515625 46.484375 51.90625 
Q 46.484375 58.296875 42.84375 61.546875 
Q 39.203125 64.796875 32.078125 64.796875 
z
" id="DejaVuSans-82"/>
      <path d="M 52 44.1875 
Q 55.375 50.25 60.0625 53.125 
Q 64.75 56 71.09375 56 
Q 79.640625 56 84.28125 50.015625 
Q 88.921875 44.046875 88.921875 33.015625 
L 88.921875 0 
L 79.890625 0 
L 79.890625 32.71875 
Q 79.890625 40.578125 77.09375 44.375 
Q 74.3125 48.1875 68.609375 48.1875 
Q 61.625 48.1875 57.5625 43.546875 
Q 53.515625 38.921875 53.515625 30.90625 
L 53.515625 0 
L 44.484375 0 
L 44.484375 32.71875 
Q 44.484375 40.625 41.703125 44.40625 
Q 38.921875 48.1875 33.109375 48.1875 
Q 26.21875 48.1875 22.15625 43.53125 
Q 18.109375 38.875 18.109375 30.90625 
L 18.109375 0 
L 9.078125 0 
L 9.078125 54.6875 
L 18.109375 54.6875 
L 18.109375 46.1875 
Q 21.1875 51.21875 25.484375 53.609375 
Q 29.78125 56 35.6875 56 
Q 41.65625 56 45.828125 52.96875 
Q 50 49.953125 52 44.1875 
z
" id="DejaVuSans-109"/>
      <path d="M 2.984375 54.6875 
L 12.5 54.6875 
L 29.59375 8.796875 
L 46.6875 54.6875 
L 56.203125 54.6875 
L 35.6875 0 
L 23.484375 0 
z
" id="DejaVuSans-118"/>
      <path id="DejaVuSans-32"/>
      <path d="M 9.8125 72.90625 
L 55.90625 72.90625 
L 55.90625 64.59375 
L 19.671875 64.59375 
L 19.671875 43.015625 
L 54.390625 43.015625 
L 54.390625 34.71875 
L 19.671875 34.71875 
L 19.671875 8.296875 
L 56.78125 8.296875 
L 56.78125 0 
L 9.8125 0 
z
" id="DejaVuSans-69"/>
      <path d="M 54.890625 54.6875 
L 35.109375 28.078125 
L 55.90625 0 
L 45.3125 0 
L 29.390625 21.484375 
L 13.484375 0 
L 2.875 0 
L 24.125 28.609375 
L 4.6875 54.6875 
L 15.28125 54.6875 
L 29.78125 35.203125 
L 44.28125 54.6875 
z
" id="DejaVuSans-120"/>
     </defs>
     <use xlink:href="#DejaVuSans-82"/>
     <use x="64.982422" xlink:href="#DejaVuSans-101"/>
     <use x="126.505859" xlink:href="#DejaVuSans-109"/>
     <use x="223.917969" xlink:href="#DejaVuSans-111"/>
     <use x="285.099609" xlink:href="#DejaVuSans-118"/>
     <use x="344.279297" xlink:href="#DejaVuSans-101"/>
     <use x="405.802734" xlink:href="#DejaVuSans-32"/>
     <use x="437.589844" xlink:href="#DejaVuSans-69"/>
     <use x="500.773438" xlink:href="#DejaVuSans-120"/>
     <use x="559.953125" xlink:href="#DejaVuSans-116"/>
     <use x="599.162109" xlink:href="#DejaVuSans-114"/>
     <use x="638.025391" xlink:href="#DejaVuSans-101"/>
     <use x="699.548828" xlink:href="#DejaVuSans-109"/>
     <use x="796.960938" xlink:href="#DejaVuSans-101"/>
     <use x="858.484375" xlink:href="#DejaVuSans-115"/>
    </g>
   </g>
  </g>
 </g>
 <defs>
  <clipPath id="p50a46927cf">
   <rect height="266.112" width="357.12" x="57.6" y="41.472"/>
  </clipPath>
 </defs>
</svg>
